{
.appVersion = "1036";
DisplayStrings = (
"/cedi \U00A2/colonsign $/euro/lira/liraTurkish \012/manat/naira/peso/ruble/rupeeIndian \U00A3/won \U00A5"
);
classes = (
{
automatic = 1;

glyphs = (
{
glyphname = A;
lastChange = "2016-09-21 11:55:25 +0000";
layers = (
{
anchors = (
{
name = bottom;
position = "{363, 0}";
},
{
name = ogonek;
position = "{689, 10}";
},
{
name = top;
position = "{363, 712}";
}
);
background = {
anchors = (
{
name = bottom;
position = "{1171, 0}";
},
{
name = ogonek;
position = "{1497, 10}";
},
{
name = top;
position = "{1171, 712}";
}
);
paths = (
{
closed = 1;
nodes = (
"528 208 LINE",
"615 0 LINE",
"684 0 LINE",
"390 711 LINE",
"316 711 LINE",
"19 0 LINE",
"86 0 LINE",
"169 208 LINE"
);
},
{
closed = 1;
nodes = (
"353 678 LINE",
"391 570 LINE",
"511 254 LINE",
"187 254 LINE",
"315 570 LINE"
);
}
);
};
layerId = "9E718F8A-2CEA-4931-B05D-987794BD97DA";
paths = (
{
closed = 1;
nodes = (
"376 676 LINE",
"349 676 LINE",
"639 0 LINE",
"696 0 LINE",
"388 712 LINE",
"337 712 LINE",
"29 0 LINE",
"86 0 LINE"
);
},
{
closed = 1;
nodes = (
"572 193 LINE",
"554 241 LINE",
"173 241 LINE",
"157 193 LINE"
);
}
);
width = 725;
},
{
anchors = (
{
name = bottom;
position = "{381, 0}";
},
{
name = ogonek;
position = "{713, 10}";
},
{
name = top;
position = "{380, 712}";
}
);
background = {
paths = (
{
closed = 1;
nodes = (
"114 0 LINE",
"187 189 LINE",
"500 189 LINE",
"573 0 LINE",
"676 0 LINE",
"394 718 LINE",
"294 718 LINE",
"13 0 LINE"
);
},
{
closed = 1;
nodes = (
"342 624 LINE",
"468 271 LINE",
"216 271 LINE"
);
}
);
};
layerId = "E1B555A7-F4E1-459C-9C1A-AE952106EEF9";
paths = (
{
closed = 1;
nodes = (
"401 583 LINE",
"363 583 LINE",
"613 0 LINE",
"774 0 LINE",
"445 712 LINE",
"315 712 LINE",
"-13 0 LINE",
"150 0 LINE"
);
},
{
closed = 1;
nodes = (
"615 156 LINE",
"553 279 LINE",
"198 279 LINE",
"136 156 LINE"
);
}
);
width = 761;
}
);
leftKerningGroup = A;
rightKerningGroup = A;
unicode = 0041;
userData = {
anchors = (
);
b = {
};
com.typemytype.robofont.layerData = {
b = {
anchors = (
);
components = (
);
contours = (
{
points = (
{
segmentType = line;
smooth = 0;
x = 403;
y = 502;
},
{
segmentType = line;
smooth = 0;
x = 703;
y = 1275;
},
{
segmentType = line;
smooth = 0;
x = 705;
y = 1275;
},
{
segmentType = line;
smooth = 0;
x = 1004;
y = 502;
}
);
},
{
points = (
{
segmentType = curve;
smooth = 1;
x = 150;
y = 0;
},
{
smooth = 0;
x = 181;
y = 0;
},
{
smooth = 0;
x = 214;
y = 15;
},
{
segmentType = curve;
smooth = 1;
x = 229;
y = 53;
},
{
segmentType = line;
smooth = 0;
x = 356;
y = 373;
},
{
segmentType = line;
smooth = 0;
x = 1051;
y = 373;
},
{
segmentType = line;
smooth = 1;
x = 1179;
y = 53;
},
{
smooth = 0;
x = 1193;
y = 17;
},
{
smooth = 0;
x = 1228;
y = 0;
},
{
segmentType = curve;
smooth = 1;
x = 1260;
y = 0;
},
{
smooth = 0;
x = 1306;
y = 0;
},
{
smooth = 0;
x = 1354;
y = 31;
},
{
segmentType = curve;
smooth = 1;
x = 1354;
y = 80;
},
{
smooth = 0;
x = 1354;
y = 87;
},
{
smooth = 0;
x = 1352;
y = 97;
},
{
segmentType = curve;
smooth = 0;
x = 1349;
y = 108;
},
{
segmentType = line;
smooth = 1;
x = 871;
y = 1288;
},
{
smooth = 0;
x = 817;
y = 1420;
},
{
smooth = 0;
x = 777;
y = 1430;
},
{
segmentType = curve;
smooth = 1;
x = 710;
y = 1430;
},
{
smooth = 0;
x = 644;
y = 1430;
},
{
smooth = 0;
x = 596;
y = 1413;
},
{
segmentType = curve;
smooth = 1;
x = 542;
y = 1280;
},
{
segmentType = line;
smooth = 1;
x = 66;
y = 108;
},
{
smooth = 0;
x = 62;
y = 97;
},
{
smooth = 0;
x = 60;
y = 87;
},
{
segmentType = curve;
smooth = 1;
x = 60;
y = 78;
},
{
smooth = 0;
x = 60;
y = 32;
},
{
smooth = 0;
x = 106;
y = 0;
}
);
}
);
lib = {
};
name = A;
unicodes = (
);
width = 1414;
};
};
components = (
);
contours = {
};
lib = {
};
name = A;
points = {
};
segmentType = line;
unicodes = (
);
width = 1445;
x = 718;
y = 1232;
};
},
{
glyphname = Aogonek;
lastChange = "2016-09-21 14:51:45 +0000";
layers = (
{
background = {
components = (
{
name = A;
},
{
name = ogonek;
transform = "{1, 0, 0, 1, 438, 0}";
}
);
};
layerId = "9E718F8A-2CEA-4931-B05D-987794BD97DA";
paths = (
{
closed = 1;
nodes = (
"572 193 LINE",
"554 241 LINE",
"173 241 LINE",
"157 193 LINE"
);
},
{
closed = 1;
nodes = (
"703 -143 OFFCURVE",
"681 -149 OFFCURVE",
"665 -149 CURVE SMOOTH",
"624 -149 OFFCURVE",
"596 -126 OFFCURVE",
"596 -83 CURVE SMOOTH",
"596 -38 OFFCURVE",
"624 0 OFFCURVE",
"689 0 CURVE SMOOTH",
"696 0 LINE",
"388 712 LINE",
"337 712 LINE",
"29 0 LINE",
"86 0 LINE",
"376 676 LINE",
"349 676 LINE",
"639 0 LINE",
"663 38 LINE",
"586 21 OFFCURVE",
"545 -28 OFFCURVE",
"545 -89 CURVE SMOOTH",
"545 -149 OFFCURVE",
"591 -193 OFFCURVE",
"660 -193 CURVE SMOOTH",
"693 -193 OFFCURVE",
"721 -183 OFFCURVE",
"740 -170 CURVE",
"724 -131 LINE"
);
}
);
width = 725;
},
{
background = {
components = (
{
name = A;
},
{
name = ogonek;
transform = "{1, 0, 0, 1, 465, 0}";
}
);
};
layerId = "E1B555A7-F4E1-459C-9C1A-AE952106EEF9";
paths = (
{
closed = 1;
nodes = (
"615 156 LINE",
"553 279 LINE",
"198 279 LINE",
"136 156 LINE"
);
},
{
closed = 1;
nodes = (
"740 -114 OFFCURVE",
"722 -118 OFFCURVE",
"705 -118 CURVE SMOOTH",
"667 -118 OFFCURVE",
"645 -100 OFFCURVE",
"645 -65 CURVE SMOOTH",
"645 -27 OFFCURVE",
"675 0 OFFCURVE",
"720 0 CURVE SMOOTH",
"774 0 LINE",
"445 712 LINE",
"315 712 LINE",
"-13 0 LINE",
"150 0 LINE",
"401 583 LINE",
"363 583 LINE",
"613 0 LINE",
"634 33 LINE",
"577 11 OFFCURVE",
"545 -35 OFFCURVE",
"545 -88 CURVE SMOOTH",
"545 -156 OFFCURVE",
"602 -199 OFFCURVE",
"675 -199 CURVE SMOOTH",
"711 -199 OFFCURVE",
"746 -192 OFFCURVE",
"777 -179 CURVE",
"760 -106 LINE"
);
}
);
width = 761;
}
);
leftKerningGroup = A;
rightKerningGroup = A;
unicode = 0104;
},
{
glyphname = Aring;
lastChange = "2016-09-21 14:51:45 +0000";
layers = (
{
background = {
components = (
{
name = A;
},
{
name = ring;
transform = "{1, 0, 0, 1, 148, 210}";
}
);
};
layerId = "9E718F8A-2CEA-4931-B05D-987794BD97DA";
paths = (
{
closed = 1;
nodes = (
"417 682 OFFCURVE",
"462 724 OFFCURVE",
"462 779 CURVE SMOOTH",
"462 833 OFFCURVE",
"417 876 OFFCURVE",
"363 876 CURVE SMOOTH",
"308 876 OFFCURVE",
"264 833 OFFCURVE",
"264 779 CURVE SMOOTH",
"264 724 OFFCURVE",
"308 682 OFFCURVE",
"363 682 CURVE SMOOTH"
);
},
{
closed = 1;
nodes = (
"333 726 OFFCURVE",
"312 749 OFFCURVE",
"312 779 CURVE SMOOTH",
"312 808 OFFCURVE",
"333 831 OFFCURVE",
"363 831 CURVE SMOOTH",
"392 831 OFFCURVE",
"413 808 OFFCURVE",
"413 779 CURVE SMOOTH",
"413 749 OFFCURVE",
"392 726 OFFCURVE",
"363 726 CURVE SMOOTH"
);
},
{
closed = 1;
nodes = (
"376 676 LINE",
"349 676 LINE",
"639 0 LINE",
"696 0 LINE",
"388 712 LINE",
"337 712 LINE",
"29 0 LINE",
"86 0 LINE"
);
},
{
closed = 1;
nodes = (
"572 193 LINE",
"554 241 LINE",
"173 241 LINE",
"157 193 LINE"
);
}
);
width = 725;
},
{
background = {
components = (
{
name = A;
},
{
name = ring;
transform = "{1, 0, 0, 1, 188, 244}";
}
);
};
layerId = "E1B555A7-F4E1-459C-9C1A-AE952106EEF9";
paths = (
{
closed = 1;
nodes = (
"442 677 OFFCURVE",
"492 724 OFFCURVE",
"492 786 CURVE SMOOTH",
"492 847 OFFCURVE",
"442 895 OFFCURVE",
"381 895 CURVE SMOOTH",
"319 895 OFFCURVE",
"270 847 OFFCURVE",
"270 786 CURVE SMOOTH",
"270 724 OFFCURVE",
"319 677 OFFCURVE",
"381 677 CURVE SMOOTH"
);
},
{
closed = 1;
nodes = (
"356 740 OFFCURVE",
"337 761 OFFCURVE",
"337 786 CURVE SMOOTH",
"337 811 OFFCURVE",
"356 831 OFFCURVE",
"381 831 CURVE SMOOTH",
"406 831 OFFCURVE",
"424 811 OFFCURVE",
"424 786 CURVE SMOOTH",
"424 761 OFFCURVE",
"406 740 OFFCURVE",
"381 740 CURVE SMOOTH"
);
},
{
closed = 1;
nodes = (
"401 583 LINE",
"363 583 LINE",
"613 0 LINE",
"774 0 LINE",
"445 712 LINE",
"315 712 LINE",
"-13 0 LINE",
"150 0 LINE"
);
},
{
closed = 1;
nodes = (
"615 156 LINE",
"553 279 LINE",
"198 279 LINE",
"136 156 LINE"
);
}
);
width = 761;
}
);
leftKerningGroup = A;
rightKerningGroup = A;
unicode = 00C5;
},
{
glyphname = Aringacute;
lastChange = "2016-09-21 14:51:45 +0000";
layers = (
{
background = {
components = (
{
name = A;
},
{
name = ring;
transform = "{1, 0, 0, 1, 194, 210}";
},
{
name = acute;
transform = "{1, 0, 0, 1, 253, 420}";
}
);
};
layerId = "9E718F8A-2CEA-4931-B05D-987794BD97DA";
paths = (
{
closed = 1;
nodes = (
"86 0 LINE",
"376 676 LINE",
"349 676 LINE",
"639 0 LINE",
"696 0 LINE",
"388 712 LINE",
"337 712 LINE",
"29 0 LINE"
);
},
{
closed = 1;
nodes = (
"572 193 LINE",
"554 241 LINE",
"173 241 LINE",
"157 193 LINE"
);
},
{
closed = 1;
nodes = (
"417 682 OFFCURVE",
"462 724 OFFCURVE",
"462 779 CURVE SMOOTH",
"462 833 OFFCURVE",
"417 876 OFFCURVE",
"363 876 CURVE SMOOTH",
"308 876 OFFCURVE",
"264 833 OFFCURVE",
"264 779 CURVE SMOOTH",
"264 724 OFFCURVE",
"308 682 OFFCURVE",
"363 682 CURVE SMOOTH"
);
},
{
closed = 1;
nodes = (
"333 726 OFFCURVE",
"312 749 OFFCURVE",
"312 779 CURVE SMOOTH",
"312 808 OFFCURVE",
"333 831 OFFCURVE",
"363 831 CURVE SMOOTH",
"392 831 OFFCURVE",
"413 808 OFFCURVE",
"413 779 CURVE SMOOTH",
"413 749 OFFCURVE",
"392 726 OFFCURVE",
"363 726 CURVE SMOOTH"
);
},
{
closed = 1;
nodes = (
"578 948 LINE",
"504 948 LINE",
"402 843 LINE",
"435 826 LINE"
);
}
);
width = 725;
},
{
layerId = "E1B555A7-F4E1-459C-9C1A-AE952106EEF9";
paths = (
{
closed = 1;
nodes = (
"150 0 LINE",
"401 583 LINE",
"363 583 LINE",
"613 0 LINE",
"774 0 LINE",
"445 712 LINE",
"315 712 LINE",
"-13 0 LINE"
);
},
{
closed = 1;
nodes = (
"615 156 LINE",
"553 279 LINE",
"198 279 LINE",
"136 156 LINE"
);
},
{
closed = 1;
nodes = (
"442 677 OFFCURVE",
"492 724 OFFCURVE",
"492 786 CURVE SMOOTH",
"492 847 OFFCURVE",
"442 895 OFFCURVE",
"381 895 CURVE SMOOTH",
"319 895 OFFCURVE",
"270 847 OFFCURVE",
"270 786 CURVE SMOOTH",
"270 724 OFFCURVE",
"319 677 OFFCURVE",
"381 677 CURVE SMOOTH"
);
},
{
closed = 1;
nodes = (
"356 740 OFFCURVE",
"337 761 OFFCURVE",
"337 786 CURVE SMOOTH",
"337 811 OFFCURVE",
"356 831 OFFCURVE",
"381 831 CURVE SMOOTH",
"406 831 OFFCURVE",
"424 811 OFFCURVE",
"424 786 CURVE SMOOTH",
"424 761 OFFCURVE",
"406 740 OFFCURVE",
"381 740 CURVE SMOOTH"
);
},
{
closed = 1;
nodes = (
"635 955 LINE",
"491 955 LINE",
"411 868 LINE",
"475 822 LINE"
);
}
);
width = 761;
}
);
leftKerningGroup = A;
rightKerningGroup = A;
unicode = 01FA;
},
{
glyphname = AE;
lastChange = "2016-09-21 14:51:45 +0000";
layers = (
{
anchors = (
{
name = bottom;
position = "{502, 0}";
},
{
name = top;
position = "{501, 712}";
}
);
background = {
anchors = (
{
name = bottom;
position = "{1209, 0}";
},
{
name = top;
position = "{1208, 712}";
}
);
paths = (
{
closed = 1;
nodes = (
"535 254 LINE",
"229 254 LINE",
"460 655 LINE",
"504 655 LINE"
);
},
{
closed = 1;
nodes = (
"87 0 LINE",
"200 199 LINE",
"543 199 LINE",
"559 0 LINE",
"934 0 LINE",
"934 56 LINE",
"612 56 LINE",
"590 337 LINE",
"902 337 LINE",
"902 393 LINE",
"583 393 LINE",
"563 655 LINE",
"922 655 LINE",
"922 711 LINE",
"423 711 LINE",
"16 0 LINE"
);
}
);
};
layerId = "9E718F8A-2CEA-4931-B05D-987794BD97DA";
paths = (
{
closed = 1;
nodes = (
"68 0 LINE",
"466 672 LINE",
"441 663 LINE",
"943 663 LINE",
"943 712 LINE",
"436 712 LINE",
"9 0 LINE"
);
},
{
closed = 1;
nodes = (
"575 193 LINE",
"566 241 LINE",
"164 241 LINE",
"147 193 LINE"
);
},
{
closed = 1;
nodes = (
"943 0 LINE",
"943 49 LINE",
"607 49 LINE",
"546 688 LINE",
"498 688 LINE",
"563 0 LINE"
);
},
{
closed = 1;
nodes = (
"923 337 LINE",
"923 386 LINE",
"564 386 LINE",
"564 337 LINE"
);
}
);
width = 998;
},
{
anchors = (
{
name = bottom;
position = "{510, 0}";
},
{
name = top;
position = "{510, 712}";
}
);
background = {
paths = (
{
closed = 1;
nodes = (
"1225 0 LINE",
"1640 718 LINE",
"2142 718 LINE",
"2142 637 LINE",
"1802 637 LINE",
"1822 408 LINE",
"2126 408 LINE",
"2126 331 LINE",
"1829 331 LINE",
"1852 80 LINE",
"2154 80 LINE",
"2154 0 LINE",
"1763 0 LINE",
"1746 198 LINE",
"1444 198 LINE",
"1331 0 LINE"
);
},
{
closed = 1;
nodes = (
"1481 271 LINE",
"1739 271 LINE",
"1712 637 LINE",
"1689 637 LINE"
);
},
{
closed = 1;
nodes = (
"438 593 LINE",
"569 0 LINE",
"975 0 LINE",
"975 126 LINE",
"689 126 LINE",
"575 639 LINE"
);
},
{
closed = 1;
nodes = (
"592 156 LINE",
"556 279 LINE",
"200 279 LINE",
"137 156 LINE"
);
},
{
closed = 1;
nodes = (
"954 299 LINE",
"954 425 LINE",
"573 425 LINE",
"573 299 LINE"
);
},
{
closed = 1;
nodes = (
"542 586 LINE",
"975 586 LINE",
"975 712 LINE",
"416 712 LINE",
"-33 0 LINE",
"143 0 LINE",
"485 577 LINE",
"533 577 LINE"
);
}
);
};
layerId = "E1B555A7-F4E1-459C-9C1A-AE952106EEF9";
paths = (
{
closed = 1;
nodes = (
"143 0 LINE",
"503 607 LINE",
"472 586 LINE",
"975 586 LINE",
"975 712 LINE",
"416 712 LINE",
"-33 0 LINE"
);
},
{
closed = 1;
nodes = (
"592 156 LINE",
"556 279 LINE",
"200 279 LINE",
"137 156 LINE"
);
},
{
closed = 1;
nodes = (
"975 0 LINE",
"975 126 LINE",
"687 126 LINE",
"651 639 LINE",
"505 639 LINE",
"548 0 LINE"
);
},
{
closed = 1;
nodes = (
"954 299 LINE",
"954 425 LINE",
"573 425 LINE",
"573 299 LINE"
);
}
);
width = 1011;
}
);
leftKerningGroup = A;
rightKerningGroup = E;
unicode = 00C6;
userData = {
com.typemytype.robofont.layerData = {
b = {
anchors = (
);
components = (
);
contours = (
);
lib = {
};
name = AE;
unicodes = (
);
width = 1976;
};
};
};
},
{
glyphname = B;
lastChange = "2016-09-21 14:51:45 +0000";
layers = (
{
anchors = (
{
name = bottom;
position = "{341, 0}";
},
{
name = top;
position = "{340, 712}";
}
);
background = {
anchors = (
{
name = bottom;
position = "{341, 0}";
},
{
name = top;
position = "{340, 712}";
}
);
paths = (
{
closed = 1;
nodes = (
"438 0 OFFCURVE",
"495 23 OFFCURVE",
"534 59 CURVE SMOOTH",
"572 94 OFFCURVE",
"592 143 OFFCURVE",
"592 194 CURVE SMOOTH",
"592 249 OFFCURVE",
"572 292 OFFCURVE",
"538 323 CURVE SMOOTH",
"504 354 OFFCURVE",
"455 371 OFFCURVE",
"398 373 CURVE",
"443 381 OFFCURVE",
"483 402 OFFCURVE",
"512 432 CURVE SMOOTH",
"541 461 OFFCURVE",
"558 500 OFFCURVE",
"558 544 CURVE SMOOTH",
"558 600 OFFCURVE",
"537 637 OFFCURVE",
"504 662 CURVE SMOOTH",
"472 687 OFFCURVE",
"427 699 OFFCURVE",
"381 705 CURVE SMOOTH",
"334 711 OFFCURVE",
"286 711 OFFCURVE",
"245 711 CURVE SMOOTH",
"109 711 LINE",
"109 0 LINE",
"361 0 LINE SMOOTH"
);
},
{
closed = 1;
nodes = (
"371 341 OFFCURVE",
"428 333 OFFCURVE",
"467 310 CURVE SMOOTH",
"505 287 OFFCURVE",
"526 250 OFFCURVE",
"526 194 CURVE SMOOTH",
"526 99 OFFCURVE",
"454 56 OFFCURVE",
"327 56 CURVE SMOOTH",
"173 56 LINE",
"173 341 LINE",
"296 341 LINE SMOOTH"
);
},
{
closed = 1;
nodes = (
"289 655 LINE SMOOTH",
"346 655 OFFCURVE",
"396 650 OFFCURVE",
"433 632 CURVE SMOOTH",
"470 614 OFFCURVE",
"492 583 OFFCURVE",
"492 530 CURVE SMOOTH",
"492 477 OFFCURVE",
"466 443 OFFCURVE",
"426 423 CURVE SMOOTH",
"387 403 OFFCURVE",
"334 396 OFFCURVE",
"283 396 CURVE SMOOTH",
"174 396 LINE",
"174 655 LINE"
);
}
);
};
layerId = "9E718F8A-2CEA-4931-B05D-987794BD97DA";
paths = (
{
closed = 1;
nodes = (
"375 0 LINE SMOOTH",
"523 0 OFFCURVE",
"607 67 OFFCURVE",
"607 193 CURVE SMOOTH",
"607 288 OFFCURVE",
"553 351 OFFCURVE",
"464 368 CURVE",
"464 360 LINE",
"542 384 OFFCURVE",
"591 442 OFFCURVE",
"591 525 CURVE SMOOTH",
"591 646 OFFCURVE",
"508 712 OFFCURVE",
"364 712 CURVE SMOOTH",
"94 712 LINE",
"94 0 LINE"
);
},
{
closed = 1;
nodes = (
"148 337 LINE",
"372 337 LINE SMOOTH",
"492 337 OFFCURVE",
"551 287 OFFCURVE",
"551 190 CURVE SMOOTH",
"551 94 OFFCURVE",
"494 48 OFFCURVE",
"372 48 CURVE SMOOTH",
"148 48 LINE"
);
},
{
closed = 1;
nodes = (
"148 664 LINE",
"357 664 LINE SMOOTH",
"477 664 OFFCURVE",
"535 618 OFFCURVE",
"535 528 CURVE SMOOTH",
"535 436 OFFCURVE",
"474 386 OFFCURVE",
"357 386 CURVE SMOOTH",
"148 386 LINE"
);
}
);
width = 675;
},
{
anchors = (
{
name = bottom;
position = "{352, 0}";
},
{
name = top;
position = "{352, 712}";
}
);
background = {
anchors = (
{
name = bottom;
position = "{352, 0}";
},
{
name = top;
position = "{352, 712}";
}
);
paths = (
{
closed = 1;
nodes = (
"348 0 LINE SMOOTH",
"519 0 OFFCURVE",
"604 88 OFFCURVE",
"604 198 CURVE SMOOTH",
"604 294 OFFCURVE",
"544 363 OFFCURVE",
"446 379 CURVE",
"530 400 OFFCURVE",
"570 465 OFFCURVE",
"570 540 CURVE SMOOTH",
"570 701 OFFCURVE",
"406 718 OFFCURVE",
"274 718 CURVE SMOOTH",
"93 718 LINE",
"93 0 LINE"
);
},
{
closed = 1;
nodes = (
"187 331 LINE",
"315 331 LINE SMOOTH",
"447 331 OFFCURVE",
"504 300 OFFCURVE",
"504 201 CURVE SMOOTH",
"504 118 OFFCURVE",
"443 81 OFFCURVE",
"330 81 CURVE SMOOTH",
"187 81 LINE"
);
},
{
closed = 1;
nodes = (
"187 637 LINE",
"294 637 LINE SMOOTH",
"398 637 OFFCURVE",
"472 618 OFFCURVE",
"472 527 CURVE SMOOTH",
"472 435 OFFCURVE",
"392 410 OFFCURVE",
"303 410 CURVE SMOOTH",
"187 410 LINE"
);
}
);
};
layerId = "E1B555A7-F4E1-459C-9C1A-AE952106EEF9";
paths = (
{
closed = 1;
nodes = (
"411 0 LINE SMOOTH",
"566 0 OFFCURVE",
"661 75 OFFCURVE",
"661 195 CURVE SMOOTH",
"661 287 OFFCURVE",
"609 351 OFFCURVE",
"517 372 CURVE",
"517 364 LINE",
"596 387 OFFCURVE",
"642 448 OFFCURVE",
"642 527 CURVE SMOOTH",
"642 641 OFFCURVE",
"549 712 OFFCURVE",
"401 712 CURVE SMOOTH",
"70 712 LINE",
"70 0 LINE"
);
},
{
closed = 1;
nodes = (
"228 300 LINE",
"392 300 LINE SMOOTH",
"474 300 OFFCURVE",
"508 273 OFFCURVE",
"508 211 CURVE SMOOTH",
"508 150 OFFCURVE",
"474 124 OFFCURVE",
"392 124 CURVE SMOOTH",
"228 124 LINE"
);
},
{
closed = 1;
nodes = (
"228 588 LINE",
"374 588 LINE SMOOTH",
"452 588 OFFCURVE",
"489 562 OFFCURVE",
"489 505 CURVE SMOOTH",
"489 450 OFFCURVE",
"452 424 OFFCURVE",
"374 424 CURVE SMOOTH",
"228 424 LINE"
);
}
);
width = 697;
}
);
leftKerningGroup = H;
rightKerningGroup = B;
unicode = 0042;
userData = {
anchors = (
);
b = {
};
com.typemytype.robofont.layerData = {
b = {
anchors = (
);
components = (
);
contours = (
{
points = (
{
segmentType = curve;
smooth = 1;
x = 266;
y = 0;
},
{
segmentType = line;
smooth = 1;
x = 1035;
y = 0;
},
{
smooth = 0;
x = 1084;
y = 0;
},
{
smooth = 0;
x = 1108;
y = 36;
},
{
segmentType = curve;
smooth = 1;
x = 1108;
y = 73;
},
{
smooth = 0;
x = 1108;
y = 109;
},
{
smooth = 0;
x = 1084;
y = 145;
},
{
segmentType = curve;
smooth = 1;
x = 1035;
y = 145;
},
{
segmentType = line;
smooth = 0;
x = 353;
y = 145;
},
{
segmentType = line;
smooth = 0;
x = 353;
y = 662;
},
{
segmentType = line;
smooth = 1;
x = 975;
y = 662;
},
{
smooth = 0;
x = 1024;
y = 662;
},
{
smooth = 0;
x = 1049;
y = 698;
},
{
segmentType = curve;
smooth = 1;
x = 1049;
y = 734;
},
{
smooth = 0;
x = 1049;
y = 770;
},
{
smooth = 0;
x = 1026;
y = 806;
},
{
segmentType = curve;
smooth = 1;
x = 975;
y = 806;
},
{
segmentType = line;
smooth = 0;
x = 353;
y = 806;
},
{
segmentType = line;
smooth = 0;
x = 353;
y = 1281;
},
{
segmentType = line;
smooth = 1;
x = 1007;
y = 1281;
},
{
smooth = 0;
x = 1056;
y = 1281;
},
{
smooth = 0;
x = 1080;
y = 1317;
},
{
segmentType = curve;
smooth = 1;
x = 1080;
y = 1354;
},
{
smooth = 0;
x = 1080;
y = 1390;
},
{
smooth = 0;
x = 1056;
y = 1426;
},
{
segmentType = curve;
smooth = 1;
x = 1007;
y = 1426;
},
{
segmentType = line;
smooth = 1;
x = 261;
y = 1426;
},
{
smooth = 0;
x = 213;
y = 1426;
},
{
smooth = 0;
x = 178;
y = 1383;
},
{
segmentType = curve;
smooth = 1;
x = 178;
y = 1340;
},
{
segmentType = line;
smooth = 1;
x = 178;
y = 86;
},
{
smooth = 0;
x = 178;
y = 41;
},
{
smooth = 0;
x = 222;
y = 0;
}
);
}
);
lib = {
};
name = B;
unicodes = (
);
width = 1292;
};
};
components = (
);
contours = {
};
lib = {
};
name = B;
points = {
};
segmentType = curve;
unicodes = (
);
width = 1395;
x = 676;
y = 1260;
};
},
{
glyphname = C;
lastChange = "2016-09-21 14:51:45 +0000";
layers = (
{
anchors = (
{
name = bottom;
position = "{386, 0}";
},
{
name = top;
position = "{387, 712}";
}
);
background = {
paths = (
{
closed = 1;
nodes = (
"555 704 OFFCURVE",
"492 724 OFFCURVE",
"406 724 CURVE SMOOTH",
"299 724 OFFCURVE",
"213 681 OFFCURVE",
"154 611 CURVE SMOOTH",
"95 542 OFFCURVE",
"63 448 OFFCURVE",
"63 346 CURVE SMOOTH",
"63 247 OFFCURVE",
"91 158 OFFCURVE",
"146 94 CURVE SMOOTH",
"201 29 OFFCURVE",
"282 -11 OFFCURVE",
"388 -11 CURVE SMOOTH",
"491 -11 OFFCURVE",
"573 13 OFFCURVE",
"629 58 CURVE",
"609 105 LINE",
"563 64 OFFCURVE",
"490 44 OFFCURVE",
"403 44 CURVE SMOOTH",
"308 44 OFFCURVE",
"240 80 OFFCURVE",
"196 136 CURVE SMOOTH",
"151 191 OFFCURVE",
"130 267 OFFCURVE",
"130 347 CURVE SMOOTH",
"130 427 OFFCURVE",
"153 507 OFFCURVE",
"200 568 CURVE SMOOTH",
"247 628 OFFCURVE",
"317 668 OFFCURVE",
"414 668 CURVE SMOOTH",
"487 668 OFFCURVE",
"545 651 OFFCURVE",
"588 618 CURVE",
"611 655 LINE"
);
}
);
};
layerId = "9E718F8A-2CEA-4931-B05D-987794BD97DA";
paths = (
{
closed = 1;
nodes = (
"485 -8 OFFCURVE",
"568 23 OFFCURVE",
"629 86 CURVE",
"605 130 LINE",
"535 67 OFFCURVE",
"471 42 OFFCURVE",
"387 42 CURVE SMOOTH",
"219 42 OFFCURVE",
"123 157 OFFCURVE",
"123 357 CURVE SMOOTH",
"123 556 OFFCURVE",
"220 670 OFFCURVE",
"387 670 CURVE SMOOTH",
"471 670 OFFCURVE",
"535 645 OFFCURVE",
"605 582 CURVE",
"629 626 LINE",
"568 689 OFFCURVE",
"485 720 OFFCURVE",
"387 720 CURVE SMOOTH",
"189 720 OFFCURVE",
"66 584 OFFCURVE",
"66 357 CURVE SMOOTH",
"66 129 OFFCURVE",
"189 -8 OFFCURVE",
"387 -8 CURVE SMOOTH"
);
}
);
width = 684;
},
{
anchors = (
{
name = bottom;
position = "{399, 0}";
},
{
name = top;
position = "{399, 712}";
}
);
background = {
anchors = (
{
name = bottom;
position = "{399, 0}";
},
{
name = top;
position = "{399, 712}";
}
);
paths = (
{
closed = 1;
nodes = (
"493 -11 OFFCURVE",
"576 13 OFFCURVE",
"646 65 CURVE",
"614 141 LINE",
"547 92 OFFCURVE",
"480 70 OFFCURVE",
"411 70 CURVE SMOOTH",
"263 70 OFFCURVE",
"153 174 OFFCURVE",
"153 354 CURVE SMOOTH",
"153 509 OFFCURVE",
"243 650 OFFCURVE",
"411 650 CURVE SMOOTH",
"476 650 OFFCURVE",
"538 632 OFFCURVE",
"592 593 CURVE",
"629 658 LINE",
"565 710 OFFCURVE",
"490 731 OFFCURVE",
"402 731 CURVE SMOOTH",
"195 731 OFFCURVE",
"53 568 OFFCURVE",
"53 354 CURVE SMOOTH",
"53 109 OFFCURVE",
"225 -11 OFFCURVE",
"407 -11 CURVE SMOOTH"
);
}
);
};
layerId = "E1B555A7-F4E1-459C-9C1A-AE952106EEF9";
paths = (
{
closed = 1;
nodes = (
"500 -9 OFFCURVE",
"592 21 OFFCURVE",
"647 72 CURVE",
"596 188 LINE",
"533 141 OFFCURVE",
"474 121 OFFCURVE",
"409 121 CURVE SMOOTH",
"285 121 OFFCURVE",
"215 202 OFFCURVE",
"215 357 CURVE SMOOTH",
"215 511 OFFCURVE",
"285 591 OFFCURVE",
"409 591 CURVE SMOOTH",
"474 591 OFFCURVE",
"533 571 OFFCURVE",
"596 524 CURVE",
"647 640 LINE",
"592 691 OFFCURVE",
"500 721 OFFCURVE",
"406 721 CURVE SMOOTH",
"186 721 OFFCURVE",
"49 577 OFFCURVE",
"49 357 CURVE SMOOTH",
"49 136 OFFCURVE",
"186 -9 OFFCURVE",
"406 -9 CURVE SMOOTH"
);
}
);
width = 685;
}
);
leftKerningGroup = O;
rightKerningGroup = C;
unicode = 0043;
userData = {
anchors = (
);
b = {
};
com.typemytype.robofont.layerData = {
b = {
anchors = (
);
components = (
);
contours = (
);
lib = {
};
name = C;
unicodes = (
);
width = 1353.89001;
};
};
components = (
);
contours = (
);
lib = {
};
name = C;
unicodes = (
);
width = 1354;
};
},
{
glyphname = D;
lastChange = "2016-09-21 14:51:45 +0000";
layers = (
{
anchors = (
{
name = bottom;
position = "{369, 0}";
},
{
name = center;
position = "{369, 357}";
},
{
name = top;
position = "{368, 712}";
}
);
background = {
anchors = (
{
name = bottom;
position = "{369, 0}";
},
{
name = center;
position = "{369, 357}";
},
{
name = top;
position = "{368, 712}";
}
);
paths = (
{
closed = 1;
nodes = (
"301 0 LINE SMOOTH",
"426 0 OFFCURVE",
"526 35 OFFCURVE",
"595 97 CURVE SMOOTH",
"663 158 OFFCURVE",
"700 247 OFFCURVE",
"700 354 CURVE SMOOTH",
"700 452 OFFCURVE",
"680 524 OFFCURVE",
"644 577 CURVE SMOOTH",
"606 630 OFFCURVE",
"553 664 OFFCURVE",
"487 684 CURVE SMOOTH",
"420 704 OFFCURVE",
"341 711 OFFCURVE",
"252 711 CURVE SMOOTH",
"106 711 LINE",
"103 0 LINE"
);
},
{
closed = 1;
nodes = (
"261 655 LINE SMOOTH",
"382 655 OFFCURVE",
"475 636 OFFCURVE",
"538 588 CURVE SMOOTH",
"600 540 OFFCURVE",
"632 464 OFFCURVE",
"632 351 CURVE SMOOTH",
"632 265 OFFCURVE",
"607 191 OFFCURVE",
"554 139 CURVE SMOOTH",
"501 86 OFFCURVE",
"420 56 OFFCURVE",
"310 56 CURVE SMOOTH",
"168 56 LINE",
"168 655 LINE"
);
}
);
};
layerId = "9E718F8A-2CEA-4931-B05D-987794BD97DA";
paths = (
{
closed = 1;
nodes = (
"319 0 LINE SMOOTH",
"543 0 OFFCURVE",
"671 128 OFFCURVE",
"671 357 CURVE SMOOTH",
"671 585 OFFCURVE",
"544 712 OFFCURVE",
"319 712 CURVE SMOOTH",
"94 712 LINE",
"94 0 LINE"
);
},
{
closed = 1;
nodes = (
"148 664 LINE",
"317 664 LINE SMOOTH",
"514 664 OFFCURVE",
"613 561 OFFCURVE",
"613 357 CURVE SMOOTH",
"613 153 OFFCURVE",
"513 48 OFFCURVE",
"317 48 CURVE SMOOTH",
"148 48 LINE"
);
}
);
width = 737;
},
{
anchors = (
{
name = bottom;
position = "{386, 0}";
},
{
name = center;
position = "{386, 357}";
},
{
name = top;
position = "{386, 712}";
}
);
background = {
anchors = (
{
name = bottom;
position = "{386, 0}";
},
{
name = center;
position = "{386, 357}";
},
{
name = top;
position = "{386, 712}";
}
);
paths = (
{
closed = 1;
nodes = (
"301 0 LINE SMOOTH",
"558 0 OFFCURVE",
"697 136 OFFCURVE",
"697 359 CURVE SMOOTH",
"697 624 OFFCURVE",
"520 718 OFFCURVE",
"255 718 CURVE SMOOTH",
"93 718 LINE",
"93 0 LINE"
);
},
{
closed = 1;
nodes = (
"187 637 LINE",
"266 637 LINE SMOOTH",
"490 637 OFFCURVE",
"597 560 OFFCURVE",
"597 358 CURVE SMOOTH",
"597 192 OFFCURVE",
"507 81 OFFCURVE",
"307 81 CURVE SMOOTH",
"187 81 LINE"
);
}
);
};
layerId = "E1B555A7-F4E1-459C-9C1A-AE952106EEF9";
paths = (
{
closed = 1;
nodes = (
"348 0 LINE SMOOTH",
"585 0 OFFCURVE",
"723 132 OFFCURVE",
"723 357 CURVE SMOOTH",
"723 580 OFFCURVE",
"584 712 OFFCURVE",
"348 712 CURVE SMOOTH",
"70 712 LINE",
"70 0 LINE"
);
},
{
closed = 1;
nodes = (
"232 581 LINE",
"337 581 LINE SMOOTH",
"487 581 OFFCURVE",
"561 507 OFFCURVE",
"561 357 CURVE SMOOTH",
"561 206 OFFCURVE",
"487 131 OFFCURVE",
"337 131 CURVE SMOOTH",
"232 131 LINE"
);
}
);
width = 773;
}
);
leftKerningGroup = H;
rightKerningGroup = O;
unicode = 0044;
userData = {
anchors = (
);
b = {
};
com.typemytype.robofont.layerData = {
b = {
anchors = (
);
components = (
);
contours = (
{
points = (
{
segmentType = curve;
smooth = 1;
x = 266;
y = 0;
},
{
segmentType = line;
smooth = 1;
x = 1035;
y = 0;
},
{
smooth = 0;
x = 1084;
y = 0;
},
{
smooth = 0;
x = 1108;
y = 34;
},
{
segmentType = curve;
smooth = 1;
x = 1108;
y = 71;
},
{
smooth = 0;
x = 1108;
y = 107;
},
{
smooth = 0;
x = 1084;
y = 141;
},
{
segmentType = curve;
smooth = 1;
x = 1035;
y = 141;
},
{
segmentType = line;
smooth = 0;
x = 356;
y = 141;
},
{
segmentType = line;
smooth = 0;
x = 356;
y = 665;
},
{
segmentType = line;
smooth = 1;
x = 975;
y = 665;
},
{
smooth = 0;
x = 1024;
y = 665;
},
{
smooth = 0;
x = 1049;
y = 698;
},
{
segmentType = curve;
smooth = 1;
x = 1049;
y = 734;
},
{
smooth = 0;
x = 1049;
y = 770;
},
{
smooth = 0;
x = 1026;
y = 803;
},
{
segmentType = curve;
smooth = 1;
x = 975;
y = 803;
},
{
segmentType = line;
smooth = 0;
x = 356;
y = 803;
},
{
segmentType = line;
smooth = 0;
x = 356;
y = 1285;
},
{
segmentType = line;
smooth = 1;
x = 1007;
y = 1285;
},
{
smooth = 0;
x = 1056;
y = 1285;
},
{
smooth = 0;
x = 1080;
y = 1319;
},
{
segmentType = curve;
smooth = 1;
x = 1080;
y = 1356;
},
{
smooth = 0;
x = 1080;
y = 1392;
},
{
smooth = 0;
x = 1056;
y = 1426;
},
{
segmentType = curve;
smooth = 1;
x = 1007;
y = 1426;
},
{
segmentType = line;
smooth = 1;
x = 261;
y = 1426;
},
{
smooth = 0;
x = 213;
y = 1426;
},
{
smooth = 0;
x = 178;
y = 1383;
},
{
segmentType = curve;
smooth = 1;
x = 178;
y = 1340;
},
{
segmentType = line;
smooth = 1;
x = 178;
y = 86;
},
{
smooth = 0;
x = 178;
y = 41;
},
{
smooth = 0;
x = 222;
y = 0;
}
);
}
);
lib = {
};
name = D;
unicodes = (
);
width = 1499;
};
};
components = (
);
contours = (
);
lib = {
};
name = D;
unicodes = (
);
width = 1535;
};
},
{
glyphname = Eth;
lastChange = "2016-09-21 14:51:45 +0000";
layers = (
{
background = {
paths = (
{
closed = 1;
nodes = (
"103 0 LINE",
"301 0 LINE SMOOTH",
"426 0 OFFCURVE",
"525 35 OFFCURVE",
"594 97 CURVE SMOOTH",
"663 158 OFFCURVE",
"700 247 OFFCURVE",
"700 354 CURVE SMOOTH",
"700 452 OFFCURVE",
"680 524 OFFCURVE",
"643 577 CURVE SMOOTH",
"606 630 OFFCURVE",
"553 664 OFFCURVE",
"486 684 CURVE SMOOTH",
"420 704 OFFCURVE",
"341 711 OFFCURVE",
"251 711 CURVE SMOOTH",
"104 711 LINE",
"104 386 LINE",
"6 386 LINE",
"6 336 LINE",
"103 336 LINE"
);
},
{
closed = 1;
nodes = (
"272 336 LINE",
"272 386 LINE",
"168 386 LINE",
"168 655 LINE",
"260 655 LINE SMOOTH",
"381 655 OFFCURVE",
"475 636 OFFCURVE",
"538 588 CURVE SMOOTH",
"600 540 OFFCURVE",
"632 464 OFFCURVE",
"632 351 CURVE SMOOTH",
"632 265 OFFCURVE",
"606 191 OFFCURVE",
"554 139 CURVE SMOOTH",
"500 86 OFFCURVE",
"420 56 OFFCURVE",
"310 56 CURVE SMOOTH",
"167 56 LINE",
"167 336 LINE"
);
}
);
};
layerId = "9E718F8A-2CEA-4931-B05D-987794BD97DA";
paths = (
{
closed = 1;
nodes = (
"352 338 LINE",
"352 385 LINE",
"5 385 LINE",
"5 338 LINE"
);
},
{
closed = 1;
nodes = (
"326 0 LINE SMOOTH",
"550 0 OFFCURVE",
"678 128 OFFCURVE",
"678 357 CURVE SMOOTH",
"678 585 OFFCURVE",
"551 712 OFFCURVE",
"326 712 CURVE SMOOTH",
"101 712 LINE",
"101 0 LINE"
);
},
{
closed = 1;
nodes = (
"156 664 LINE",
"324 664 LINE SMOOTH",
"521 664 OFFCURVE",
"620 561 OFFCURVE",
"620 357 CURVE SMOOTH",
"620 153 OFFCURVE",
"520 48 OFFCURVE",
"324 48 CURVE SMOOTH",
"156 48 LINE"
);
}
);
width = 744;
},
{
background = {
components = (
{
name = D;
}
);
paths = (
{
closed = 1;
nodes = (
"6 390 LINE",
"283 390 LINE",
"283 323 LINE",
"6 323 LINE"
);
}
);
};
layerId = "E1B555A7-F4E1-459C-9C1A-AE952106EEF9";
paths = (
{
closed = 1;
nodes = (
"450 298 LINE",
"450 421 LINE",
"15 421 LINE",
"15 298 LINE"
);
},
{
closed = 1;
nodes = (
"380 0 LINE SMOOTH",
"616 0 OFFCURVE",
"754 132 OFFCURVE",
"754 357 CURVE SMOOTH",
"754 580 OFFCURVE",
"615 712 OFFCURVE",
"380 712 CURVE SMOOTH",
"101 712 LINE",
"101 0 LINE"
);
},
{
closed = 1;
nodes = (
"264 581 LINE",
"369 581 LINE SMOOTH",
"518 581 OFFCURVE",
"592 507 OFFCURVE",
"592 357 CURVE SMOOTH",
"592 206 OFFCURVE",
"518 131 OFFCURVE",
"369 131 CURVE SMOOTH",
"264 131 LINE"
);
}
);
width = 804;
}
);
leftKerningGroup = H;
rightKerningGroup = O;
unicode = 00D0;
},
{
glyphname = E;
lastChange = "2016-09-21 14:51:45 +0000";
layers = (
{
anchors = (
{
name = bottom;
position = "{324, 0}";
},
{
name = ogonek;
position = "{510, 10}";
},
{
name = top;
position = "{324, 712}";
},
{
name = topleft;
position = "{26, 712}";
}
);
background = {
anchors = (
{
name = bottom;
position = "{324, 0}";
},
{
name = ogonek;
position = "{510, 10}";
},
{
name = top;
position = "{324, 712}";
},
{
name = topleft;
position = "{26, 712}";
}
);
paths = (
{
closed = 1;
nodes = (
"174 337 LINE",
"502 337 LINE",
"502 393 LINE",
"175 393 LINE",
"175 655 LINE",
"521 655 LINE",
"521 711 LINE",
"110 711 LINE",
"110 0 LINE",
"535 0 LINE",
"535 56 LINE",
"174 56 LINE"
);
}
);
};
guideLines = (
{
angle = 90;
position = "{534, 249}";
}
);
layerId = "9E718F8A-2CEA-4931-B05D-987794BD97DA";
paths = (
{
closed = 1;
nodes = (
"529 0 LINE",
"529 48 LINE",
"148 48 LINE",
"148 337 LINE",
"509 337 LINE",
"509 386 LINE",
"148 386 LINE",
"148 664 LINE",
"529 664 LINE",
"529 712 LINE",
"94 712 LINE",
"94 0 LINE"
);
}
);
width = 584;
},
{
anchors = (
{
name = bottom;
position = "{334, 0}";
},
{
name = ogonek;
position = "{541, 10}";
},
{
name = top;
position = "{334, 712}";
},
{
name = topleft;
position = "{21, 712}";
}
);
background = {
anchors = (
{
name = bottom;
position = "{334, 0}";
},
{
name = ogonek;
position = "{541, 10}";
},
{
name = top;
position = "{334, 712}";
},
{
name = topleft;
position = "{21, 712}";
}
);
paths = (
{
closed = 1;
nodes = (
"93 0 LINE",
"93 718 LINE",
"522 718 LINE",
"522 637 LINE",
"187 637 LINE",
"187 406 LINE",
"504 406 LINE",
"504 325 LINE",
"187 325 LINE",
"187 81 LINE",
"537 81 LINE",
"537 0 LINE"
);
}
);
};
guideLines = (
{
angle = 90;
position = "{579, 249}";
}
);
layerId = "E1B555A7-F4E1-459C-9C1A-AE952106EEF9";
paths = (
{
closed = 1;
nodes = (
"564 0 LINE",
"564 126 LINE",
"228 126 LINE",
"228 299 LINE",
"543 299 LINE",
"543 425 LINE",
"228 425 LINE",
"228 586 LINE",
"564 586 LINE",
"564 712 LINE",
"70 712 LINE",
"70 0 LINE"
);
}
);
width = 600;
}
);
leftKerningGroup = H;
rightKerningGroup = E;
unicode = 0045;
userData = {
anchors = (
);
b = {
};
com.typemytype.robofont.layerData = {
b = {
anchors = (
);
components = (
);
contours = (
);
lib = {
};
name = E;
unicodes = (
);
width = 1234;
};
};
components = (
);
contours = (
);
lib = {
};
name = E;
unicodes = (
);
width = 1258;
};
},
{
glyphname = Eogonek;
lastChange = "2016-09-21 14:51:45 +0000";
layers = (
{
anchors = (
{
name = top;
position = "{324, 712}";
}
);
background = {
anchors = (
{
name = top;
position = "{324, 712}";
}
);
components = (
{
name = E;
},
{
name = ogonek;
transform = "{1, 0, 0, 1, 264, 0}";
}
);
};
layerId = "9E718F8A-2CEA-4931-B05D-987794BD97DA";
paths = (
{
closed = 1;
nodes = (
"524 -143 OFFCURVE",
"502 -149 OFFCURVE",
"486 -149 CURVE SMOOTH",
"445 -149 OFFCURVE",
"417 -126 OFFCURVE",
"417 -83 CURVE SMOOTH",
"417 -36 OFFCURVE",
"449 0 OFFCURVE",
"516 0 CURVE SMOOTH",
"529 0 LINE",
"529 48 LINE",
"148 48 LINE",
"148 337 LINE",
"509 337 LINE",
"509 386 LINE",
"148 386 LINE",
"148 664 LINE",
"529 664 LINE",
"529 712 LINE",
"94 712 LINE",
"94 0 LINE",
"452 0 LINE",
"436 19 LINE",
"391 -5 OFFCURVE",
"367 -42 OFFCURVE",
"367 -89 CURVE SMOOTH",
"367 -149 OFFCURVE",
"412 -193 OFFCURVE",
"481 -193 CURVE SMOOTH",
"514 -193 OFFCURVE",
"542 -183 OFFCURVE",
"562 -170 CURVE",
"545 -131 LINE"
);
}
);
width = 584;
},
{
anchors = (
{
name = top;
position = "{334, 712}";
}
);
background = {
anchors = (
{
name = top;
position = "{334, 712}";
}
);
components = (
{
name = E;
},
{
name = ogonek;
transform = "{1, 0, 0, 1, 265, 0}";
}
);
};
layerId = "E1B555A7-F4E1-459C-9C1A-AE952106EEF9";
paths = (
{
closed = 1;
nodes = (
"567 -114 OFFCURVE",
"548 -118 OFFCURVE",
"531 -118 CURVE SMOOTH",
"493 -118 OFFCURVE",
"472 -100 OFFCURVE",
"472 -65 CURVE SMOOTH",
"472 -25 OFFCURVE",
"499 0 OFFCURVE",
"541 0 CURVE SMOOTH",
"564 0 LINE",
"564 126 LINE",
"228 126 LINE",
"228 299 LINE",
"543 299 LINE",
"543 425 LINE",
"228 425 LINE",
"228 586 LINE",
"564 586 LINE",
"564 712 LINE",
"70 712 LINE",
"70 0 LINE",
"457 0 LINE",
"438 20 LINE",
"394 -5 OFFCURVE",
"372 -42 OFFCURVE",
"372 -88 CURVE SMOOTH",
"372 -153 OFFCURVE",
"425 -199 OFFCURVE",
"501 -199 CURVE SMOOTH",
"537 -199 OFFCURVE",
"573 -192 OFFCURVE",
"603 -179 CURVE",
"586 -106 LINE"
);
}
);
width = 600;
}
);
leftKerningGroup = H;
rightKerningGroup = E;
unicode = 0118;
userData = {
com.typemytype.robofont.layerData = {
b = {
anchors = (
);
components = (
);
contours = (
);
lib = {
};
name = Eogonek;
unicodes = (
);
width = 1234;
};
};
};
},
{
glyphname = F;
lastChange = "2016-09-21 14:51:45 +0000";
layers = (
{
anchors = (
{
name = bottom;
position = "{309, 0}";
},
{
name = top;
position = "{288, 712}";
}
);
background = {
anchors = (
{
name = bottom;
position = "{309, 0}";
},
{
name = top;
position = "{288, 712}";
}
);
paths = (
{
closed = 1;
nodes = (
"488 335 LINE",
"488 390 LINE",
"171 390 LINE",
"171 655 LINE",
"506 655 LINE",
"506 711 LINE",
"106 711 LINE",
"106 0 LINE",
"171 0 LINE",
"171 335 LINE"
);
}
);
};
layerId = "9E718F8A-2CEA-4931-B05D-987794BD97DA";
paths = (
{
closed = 1;
nodes = (
"148 0 LINE",
"148 337 LINE",
"499 337 LINE",
"499 386 LINE",
"148 386 LINE",
"148 664 LINE",
"519 664 LINE",
"519 712 LINE",
"94 712 LINE",
"94 0 LINE"
);
}
);
width = 557;
},
{
anchors = (
{
name = bottom;
position = "{319, 0}";
},
{
name = top;
position = "{291, 712}";
}
);
background = {
anchors = (
{
name = bottom;
position = "{319, 0}";
},
{
name = top;
position = "{291, 712}";
}
);
paths = (
{
closed = 1;
nodes = (
"93 0 LINE",
"93 718 LINE",
"507 718 LINE",
"507 637 LINE",
"187 637 LINE",
"187 403 LINE",
"485 403 LINE",
"485 322 LINE",
"187 322 LINE",
"187 0 LINE"
);
}
);
};
layerId = "E1B555A7-F4E1-459C-9C1A-AE952106EEF9";
paths = (
{
closed = 1;
nodes = (
"230 0 LINE",
"230 298 LINE",
"533 298 LINE",
"533 426 LINE",
"230 426 LINE",
"230 584 LINE",
"553 584 LINE",
"553 712 LINE",
"70 712 LINE",
"70 0 LINE"
);
}
);
width = 579;
}
);
leftKerningGroup = H;
rightKerningGroup = F;
unicode = 0046;
userData = {
anchors = (
);
b = {
};
com.typemytype.robofont.layerData = {
b = {
anchors = (
);
components = (
);
contours = (
{
points = (
{
segmentType = curve;
smooth = 1;
x = 266;
y = 0;
},
{
segmentType = line;
smooth = 1;
x = 1035;
y = 0;
},
{
smooth = 0;
x = 1084;
y = 0;
},
{
smooth = 0;
x = 1108;
y = 34;
},
{
segmentType = curve;
smooth = 1;
x = 1108;
y = 71;
},
{
smooth = 0;
x = 1108;
y = 107;
},
{
smooth = 0;
x = 1084;
y = 141;
},
{
segmentType = curve;
smooth = 1;
x = 1035;
y = 141;
},
{
segmentType = line;
smooth = 0;
x = 353;
y = 141;
},
{
segmentType = line;
smooth = 0;
x = 353;
y = 665;
},
{
segmentType = line;
smooth = 1;
x = 975;
y = 665;
},
{
smooth = 0;
x = 1024;
y = 665;
},
{
smooth = 0;
x = 1049;
y = 698;
},
{
segmentType = curve;
smooth = 1;
x = 1049;
y = 734;
},
{
smooth = 0;
x = 1049;
y = 770;
},
{
smooth = 0;
x = 1026;
y = 803;
},
{
segmentType = curve;
smooth = 1;
x = 975;
y = 803;
},
{
segmentType = line;
smooth = 0;
x = 353;
y = 803;
},
{
segmentType = line;
smooth = 0;
x = 353;
y = 1285;
},
{
segmentType = line;
smooth = 1;
x = 1007;
y = 1285;
},
{
smooth = 0;
x = 1056;
y = 1285;
},
{
smooth = 0;
x = 1080;
y = 1319;
},
{
segmentType = curve;
smooth = 1;
x = 1080;
y = 1356;
},
{
smooth = 0;
x = 1080;
y = 1392;
},
{
smooth = 0;
x = 1056;
y = 1426;
},
{
segmentType = curve;
smooth = 1;
x = 1007;
y = 1426;
},
{
segmentType = line;
smooth = 1;
x = 261;
y = 1426;
},
{
smooth = 0;
x = 213;
y = 1426;
},
{
smooth = 0;
x = 178;
y = 1383;
},
{
segmentType = curve;
smooth = 1;
x = 178;
y = 1340;
},
{
segmentType = line;
smooth = 1;
x = 178;
y = 86;
},
{
smooth = 0;
x = 178;
y = 41;
},
{
smooth = 0;
x = 222;
y = 0;
}
);
}
);
lib = {
};
name = F;
unicodes = (
);
width = 1142;
};
};
components = (
);
contours = (
);
lib = {
};
name = F;
unicodes = (
);
width = 1175;
};
},
{
glyphname = G;
lastChange = "2016-09-21 14:51:45 +0000";
layers = (
{
anchors = (
{
name = bottom;
position = "{397, 0}";
},
{
name = top;
position = "{390, 712}";
}
);
background = {
anchors = (
{
name = bottom;
position = "{397, 0}";
},
{
name = top;
position = "{390, 712}";
}
);
paths = (
{
closed = 1;
nodes = (
"599 77 LINE",
"550 53 OFFCURVE",
"492 44 OFFCURVE",
"429 44 CURVE SMOOTH",
"329 44 OFFCURVE",
"255 75 OFFCURVE",
"206 128 CURVE SMOOTH",
"156 182 OFFCURVE",
"132 258 OFFCURVE",
"132 348 CURVE SMOOTH",
"132 430 OFFCURVE",
"156 511 OFFCURVE",
"204 570 CURVE SMOOTH",
"250 629 OFFCURVE",
"321 668 OFFCURVE",
"414 668 CURVE SMOOTH",
"460 668 OFFCURVE",
"503 661 OFFCURVE",
"539 646 CURVE SMOOTH",
"574 632 OFFCURVE",
"602 610 OFFCURVE",
"618 581 CURVE",
"646 615 LINE",
"632 651 OFFCURVE",
"602 679 OFFCURVE",
"562 697 CURVE SMOOTH",
"521 715 OFFCURVE",
"472 724 OFFCURVE",
"419 724 CURVE SMOOTH",
"308 724 OFFCURVE",
"220 681 OFFCURVE",
"160 611 CURVE SMOOTH",
"99 542 OFFCURVE",
"66 446 OFFCURVE",
"66 341 CURVE SMOOTH",
"66 235 OFFCURVE",
"97 148 OFFCURVE",
"157 86 CURVE SMOOTH",
"216 24 OFFCURVE",
"305 -11 OFFCURVE",
"420 -11 CURVE SMOOTH",
"504 -11 OFFCURVE",
"587 1 OFFCURVE",
"660 37 CURVE",
"662 360 LINE",
"418 360 LINE",
"418 305 LINE",
"600 305 LINE"
);
}
);
};
layerId = "9E718F8A-2CEA-4931-B05D-987794BD97DA";
paths = (
{
closed = 1;
nodes = (
"489 -8 OFFCURVE",
"588 12 OFFCURVE",
"639 40 CURVE",
"639 363 LINE",
"398 363 LINE",
"398 314 LINE",
"589 314 LINE",
"589 41 LINE",
"603 81 LINE",
"549 57 OFFCURVE",
"474 41 OFFCURVE",
"397 41 CURVE SMOOTH",
"220 41 OFFCURVE",
"123 153 OFFCURVE",
"123 357 CURVE SMOOTH",
"123 557 OFFCURVE",
"220 670 OFFCURVE",
"390 670 CURVE SMOOTH",
"475 670 OFFCURVE",
"539 645 OFFCURVE",
"609 582 CURVE",
"633 626 LINE",
"572 689 OFFCURVE",
"489 720 OFFCURVE",
"392 720 CURVE SMOOTH",
"190 720 OFFCURVE",
"66 586 OFFCURVE",
"66 357 CURVE SMOOTH",
"66 127 OFFCURVE",
"189 -8 OFFCURVE",
"397 -8 CURVE SMOOTH"
);
}
);
width = 725;
},
{
anchors = (
{
name = bottom;
position = "{419, 0}";
},
{
name = top;
position = "{412, 712}";
}
);
background = {
anchors = (
{
name = bottom;
position = "{419, 0}";
},
{
name = top;
position = "{412, 712}";
}
);
paths = (
{
closed = 1;
nodes = (
"416 -11 CURVE SMOOTH",
"178 -11 OFFCURVE",
"53 131 OFFCURVE",
"53 346 CURVE SMOOTH",
"53 576 OFFCURVE",
"216 731 OFFCURVE",
"423 731 CURVE SMOOTH",
"519 731 OFFCURVE",
"596 707 OFFCURVE",
"661 660 CURVE",
"622 594 LINE",
"565 633 OFFCURVE",
"501 650 OFFCURVE",
"426 650 CURVE SMOOTH",
"270 650 OFFCURVE",
"150 531 OFFCURVE",
"150 352 CURVE SMOOTH",
"150 186 OFFCURVE",
"234 70 OFFCURVE",
"419 70 CURVE SMOOTH",
"472 70 OFFCURVE",
"530 78 OFFCURVE",
"576 96 CURVE",
"576 297 LINE",
"396 297 LINE",
"396 378 LINE",
"671 378 LINE",
"671 41 LINE",
"589 4 OFFCURVE",
"500 -11 OFFCURVE"
);
}
);
};
layerId = "E1B555A7-F4E1-459C-9C1A-AE952106EEF9";
paths = (
{
closed = 1;
nodes = (
"516 -9 OFFCURVE",
"614 10 OFFCURVE",
"685 44 CURVE",
"685 395 LINE",
"402 395 LINE",
"402 282 LINE",
"539 282 LINE",
"539 89 LINE",
"575 140 LINE",
"526 124 OFFCURVE",
"475 116 OFFCURVE",
"426 116 CURVE SMOOTH",
"284 116 OFFCURVE",
"214 195 OFFCURVE",
"214 357 CURVE SMOOTH",
"214 514 OFFCURVE",
"282 592 OFFCURVE",
"417 592 CURVE SMOOTH",
"489 592 OFFCURVE",
"547 573 OFFCURVE",
"614 526 CURVE",
"666 642 LINE",
"608 692 OFFCURVE",
"514 721 OFFCURVE",
"412 721 CURVE SMOOTH",
"191 721 OFFCURVE",
"49 581 OFFCURVE",
"49 357 CURVE SMOOTH",
"49 128 OFFCURVE",
"190 -9 OFFCURVE",
"419 -9 CURVE SMOOTH"
);
}
);
width = 746;
}
);
leftKerningGroup = O;
rightKerningGroup = G;
unicode = 0047;
userData = {
anchors = (
);
b = {
};
com.typemytype.robofont.layerData = {
b = {
anchors = (
);
components = (
);
contours = (
{
points = (
{
segmentType = curve;
smooth = 1;
x = 783;
y = "-22";
},
{
smooth = 0;
x = 965;
y = "-22";
},
{
smooth = 0;
x = 1086;
y = 34;
},
{
segmentType = curve;
smooth = 1;
x = 1166;
y = 86;
},
{
smooth = 0;
x = 1270;
y = 154;
},
{
smooth = 0;
x = 1186;
y = 258;
},
{
segmentType = curve;
smooth = 1;
x = 1112;
y = 214;
},
{
smooth = 0;
x = 1024;
y = 162;
},
{
smooth = 0;
x = 939;
y = 120;
},
{
segmentType = curve;
smooth = 1;
x = 806;
y = 120;
},
{
smooth = 0;
x = 446;
y = 120;
},
{
smooth = 0;
x = 316;
y = 406;
},
{
segmentType = curve;
smooth = 1;
x = 316;
y = 706;
},
{
smooth = 0;
x = 316;
y = 1005;
},
{
smooth = 0;
x = 450;
y = 1296;
},
{
segmentType = curve;
smooth = 1;
x = 801;
y = 1296;
},
{
smooth = 0;
x = 980;
y = 1296;
},
{
smooth = 0;
x = 1053;
y = 1246;
},
{
segmentType = curve;
smooth = 1;
x = 1094;
y = 1225;
},
{
smooth = 0;
x = 1174;
y = 1184;
},
{
smooth = 0;
x = 1231;
y = 1300;
},
{
segmentType = curve;
smooth = 1;
x = 1156;
y = 1343;
},
{
smooth = 0;
x = 1106;
y = 1372;
},
{
smooth = 0;
x = 995;
y = 1438;
},
{
segmentType = curve;
smooth = 1;
x = 797;
y = 1438;
},
{
smooth = 0;
x = 359;
y = 1438;
},
{
smooth = 0;
x = 128;
y = 1093;
},
{
segmentType = curve;
smooth = 1;
x = 128;
y = 704;
},
{
smooth = 0;
x = 128;
y = 307;
},
{
smooth = 0;
x = 350;
y = "-22";
}
);
}
);
lib = {
};
name = G;
unicodes = (
);
width = 1448;
};
};
components = (
);
contours = (
);
lib = {
};
name = G;
unicodes = (
);
width = 1538;
};
},
{
glyphname = H;
lastChange = "2016-09-21 11:55:25 +0000";
layers = (
{
anchors = (
{
name = bottom;
position = "{381, 0}";
},
{
name = center;
position = "{381, 362}";
},
{
name = top;
position = "{380, 712}";
},
{
name = topleft;
position = "{26, 712}";
}
);
background = {
paths = (
{
closed = 1;
nodes = (
"595 338 LINE",
"595 0 LINE",
"661 0 LINE",
"661 711 LINE",
"597 711 LINE",
"597 394 LINE",
"173 394 LINE",
"173 711 LINE",
"107 711 LINE",
"107 0 LINE",
"171 0 LINE",
"171 338 LINE"
);
}
);
};
layerId = "9E718F8A-2CEA-4931-B05D-987794BD97DA";
paths = (
{
closed = 1;
nodes = (
"667 0 LINE",
"667 712 LINE",
"612 712 LINE",
"612 0 LINE"
);
},
{
closed = 1;
nodes = (
"148 0 LINE",
"148 712 LINE",
"94 712 LINE",
"94 0 LINE"
);
},
{
closed = 1;
nodes = (
"621 337 LINE",
"621 386 LINE",
"128 386 LINE",
"128 337 LINE"
);
}
);
width = 761;
},
{
anchors = (
{
name = bottom;
position = "{390, 0}";
},
{
name = center;
position = "{390, 362}";
},
{
name = top;
position = "{390, 712}";
},
{
name = topleft;
position = "{21, 712}";
}
);
background = {
anchors = (
{
name = bottom;
position = "{390, 0}";
},
{
name = center;
position = "{390, 362}";
},
{
name = top;
position = "{390, 712}";
},
{
name = topleft;
position = "{21, 712}";
}
);
paths = (
{
closed = 1;
nodes = (
"199 0 LINE",
"199 328 LINE",
"581 328 LINE",
"581 0 LINE",
"675 0 LINE",
"675 718 LINE",
"581 718 LINE",
"581 408 LINE",
"199 408 LINE",
"199 718 LINE",
"104 718 LINE",
"104 0 LINE"
);
}
);
};
layerId = "E1B555A7-F4E1-459C-9C1A-AE952106EEF9";
paths = (
{
closed = 1;
nodes = (
"710 0 LINE",
"710 712 LINE",
"550 712 LINE",
"550 0 LINE"
);
},
{
closed = 1;
nodes = (
"229 0 LINE",
"229 712 LINE",
"70 712 LINE",
"70 0 LINE"
);
},
{
closed = 1;
nodes = (
"646 297 LINE",
"646 426 LINE",
"121 426 LINE",
"121 297 LINE"
);
}
);
width = 780;
}
);
leftKerningGroup = H;
rightKerningGroup = H;
unicode = 0048;
userData = {
anchors = (
);
b = {
};
com.typemytype.robofont.layerData = {
b = {
anchors = (
);
components = (
);
contours = (
);
lib = {
};
name = H;
unicodes = (
);
width = 1464;
};
};
components = (
);
contours = (
);
lib = {
};
name = H;
unicodes = (
);
width = 1524;
};
},
{
glyphname = Hbar;
lastChange = "2016-09-21 09:44:36 +0000";
layers = (
{
background = {
components = (
{
name = H;
}
);
paths = (
{
closed = 1;
nodes = (
"716 603 LINE",
"716 631 LINE",
"67 631 LINE",
"68 603 LINE"
);
}
);
};
layerId = "9E718F8A-2CEA-4931-B05D-987794BD97DA";
paths = (
{
closed = 1;
nodes = (
"770 530 LINE",
"770 577 LINE",
"5 577 LINE",
"5 530 LINE"
);
},
{
closed = 1;
nodes = (
"674 0 LINE",
"674 712 LINE",
"619 712 LINE",
"619 0 LINE"
);
},
{
closed = 1;
nodes = (
"156 0 LINE",
"156 712 LINE",
"101 712 LINE",
"101 0 LINE"
);
},
{
closed = 1;
nodes = (
"629 337 LINE",
"629 386 LINE",
"136 386 LINE",
"136 337 LINE"
);
}
);
width = 775;
},
{
background = {
components = (
{
name = H;
}
);
paths = (
{
closed = 1;
nodes = (
"45 571 LINE",
"44 637 LINE",
"710 637 LINE",
"710 571 LINE"
);
}
);
};
layerId = "E1B555A7-F4E1-459C-9C1A-AE952106EEF9";
paths = (
{
closed = 1;
nodes = (
"827 512 LINE",
"827 631 LINE",
"15 631 LINE",
"15 512 LINE"
);
},
{
closed = 1;
nodes = (
"741 0 LINE",
"741 712 LINE",
"582 712 LINE",
"582 0 LINE"
);
},
{
closed = 1;
nodes = (
"261 0 LINE",
"261 712 LINE",
"101 712 LINE",
"101 0 LINE"
);
},
{
closed = 1;
nodes = (
"678 297 LINE",
"678 426 LINE",
"153 426 LINE",
"153 297 LINE"
);
}
);
width = 842;
}
);
leftKerningGroup = H;
rightKerningGroup = H;
unicode = 0126;
userData = {
com.typemytype.robofont.layerData = {
b = {
anchors = (
);
components = (
);
contours = (
);
lib = {
};
name = Hbar;
unicodes = (
);
width = 1464;
};
};
};
},
{
glyphname = I;
lastChange = "2016-09-21 14:51:45 +0000";
layers = (
{
anchors = (
{
name = bottom;
position = "{121, 0}";
},
{
name = ogonek;
position = "{145, 10}";
},
{
name = top;
position = "{121, 712}";
},
{
name = topleft;
position = "{26, 712}";
}
);
background = {
anchors = (
{
name = bottom;
position = "{121, 0}";
},
{
name = ogonek;
position = "{145, 10}";
},
{
name = top;
position = "{121, 712}";
},
{
name = topleft;
position = "{26, 712}";
}
);
paths = (
{
closed = 1;
nodes = (
"115 711 LINE",
"115 0 LINE",
"181 0 LINE",
"181 711 LINE"
);
}
);
};
layerId = "9E718F8A-2CEA-4931-B05D-987794BD97DA";
paths = (
{
closed = 1;
nodes = (
"148 0 LINE",
"148 712 LINE",
"94 712 LINE",
"94 0 LINE"
);
}
);
width = 242;
},
{
anchors = (
{
name = bottom;
position = "{150, 0}";
},
{
name = ogonek;
position = "{202, 10}";
},
{
name = top;
position = "{150, 712}";
},
{
name = topleft;
position = "{21, 712}";
}
);
background = {
anchors = (
{
name = bottom;
position = "{150, 0}";
},
{
name = ogonek;
position = "{202, 10}";
},
{
name = top;
position = "{150, 712}";
},
{
name = topleft;
position = "{21, 712}";
}
);
paths = (
{
closed = 1;
nodes = (
"95 0 LINE",
"95 718 LINE",
"189 718 LINE",
"189 0 LINE"
);
}
);
};
layerId = "E1B555A7-F4E1-459C-9C1A-AE952106EEF9";
paths = (
{
closed = 1;
nodes = (
"232 0 LINE",
"232 712 LINE",
"70 712 LINE",
"70 0 LINE"
);
}
);
width = 302;
}
);
leftKerningGroup = H;
rightKerningGroup = H;
unicode = 0049;
userData = {
anchors = (
);
b = {
};
com.typemytype.robofont.layerData = {
b = {
anchors = (
);
components = (
);
contours = (
);
lib = {
};
name = I;
unicodes = (
);
width = 592;
};
};
components = (
);
contours = (
);
lib = {
};
name = I;
unicodes = (
);
width = 637;
};
},
{
glyphname = Iogonek;
lastChange = "2016-09-21 09:44:36 +0000";
layers = (
{
background = {
components = (
{
name = I;
},
{
name = ogonek;
}
);
};
layerId = "9E718F8A-2CEA-4931-B05D-987794BD97DA";
paths = (
{
closed = 1;
nodes = (
"148 -193 OFFCURVE",
"177 -183 OFFCURVE",
"196 -170 CURVE",
"180 -131 LINE",
"159 -143 OFFCURVE",
"136 -149 OFFCURVE",
"120 -149 CURVE SMOOTH",
"80 -149 OFFCURVE",
"52 -126 OFFCURVE",
"52 -83 CURVE SMOOTH",
"52 -38 OFFCURVE",
"85 0 OFFCURVE",
"144 0 CURVE SMOOTH",
"148 0 LINE",
"148 712 LINE",
"94 712 LINE",
"94 0 LINE",
"111 0 LINE",
"131 38 LINE",
"46 24 OFFCURVE",
"1 -27 OFFCURVE",
"1 -89 CURVE SMOOTH",
"1 -149 OFFCURVE",
"46 -193 OFFCURVE",
"115 -193 CURVE SMOOTH"
);
}
);
width = 242;
},
{
background = {
components = (
{
name = I;
},
{
name = ogonek;
transform = "{1, 0, 0, 1, -21, 0}";
}
);
};
layerId = "E1B555A7-F4E1-459C-9C1A-AE952106EEF9";
paths = (
{
closed = 1;
nodes = (
"199 -199 OFFCURVE",
"234 -192 OFFCURVE",
"265 -179 CURVE",
"247 -106 LINE",
"228 -114 OFFCURVE",
"210 -118 OFFCURVE",
"193 -118 CURVE SMOOTH",
"155 -118 OFFCURVE",
"133 -100 OFFCURVE",
"133 -65 CURVE SMOOTH",
"133 -27 OFFCURVE",
"166 0 OFFCURVE",
"217 0 CURVE SMOOTH",
"232 0 LINE",
"232 712 LINE",
"70 712 LINE",
"70 0 LINE",
"115 0 LINE",
"128 37 LINE",
"64 11 OFFCURVE",
"33 -35 OFFCURVE",
"33 -86 CURVE SMOOTH",
"33 -156 OFFCURVE",
"90 -199 OFFCURVE",
"163 -199 CURVE SMOOTH"
);
}
);
width = 302;
}
);
leftKerningGroup = H;
rightKerningGroup = H;
unicode = 012E;
},
{
glyphname = J;
lastChange = "2016-09-21 14:51:45 +0000";
layers = (
{
anchors = (
{
name = bottom;
position = "{188, 0}";
},
{
name = top;
position = "{188, 712}";
}
);
background = {
anchors = (
{
name = bottom;
position = "{188, 0}";
},
{
name = top;
position = "{188, 712}";
}
);
paths = (
{
closed = 1;
nodes = (
"94 -2 OFFCURVE",
"122 -11 OFFCURVE",
"159 -11 CURVE SMOOTH",
"223 -11 OFFCURVE",
"274 9 OFFCURVE",
"309 50 CURVE SMOOTH",
"344 92 OFFCURVE",
"363 155 OFFCURVE",
"363 241 CURVE SMOOTH",
"365 711 LINE",
"303 711 LINE",
"300 235 LINE SMOOTH",
"299 177 OFFCURVE",
"290 129 OFFCURVE",
"268 96 CURVE SMOOTH",
"246 63 OFFCURVE",
"211 44 OFFCURVE",
"162 44 CURVE SMOOTH",
"127 44 OFFCURVE",
"101 50 OFFCURVE",
"82 62 CURVE",
"71 15 LINE"
);
}
);
};
layerId = "9E718F8A-2CEA-4931-B05D-987794BD97DA";
paths = (
{
closed = 1;
nodes = (
"152 -206 OFFCURVE",
"215 -162 OFFCURVE",
"215 -2 CURVE SMOOTH",
"215 712 LINE",
"161 712 LINE",
"161 0 LINE SMOOTH",
"161 -128 OFFCURVE",
"117 -153 OFFCURVE",
"-7 -128 CURVE",
"-7 -178 LINE"
);
}
);
width = 309;
},
{
anchors = (
{
name = bottom;
position = "{233, 0}";
},
{
name = top;
position = "{233, 712}";
}
);
background = {
anchors = (
{
name = bottom;
position = "{233, 0}";
},
{
name = top;
position = "{233, 712}";
}
);
paths = (
{
closed = 1;
nodes = (
"199 -163 OFFCURVE",
"255 -89 OFFCURVE",
"255 58 CURVE SMOOTH",
"255 718 LINE",
"160 718 LINE",
"160 60 LINE SMOOTH",
"160 -34 OFFCURVE",
"146 -82 OFFCURVE",
"77 -82 CURVE SMOOTH",
"33 -82 OFFCURVE",
"-4 -70 OFFCURVE",
"-19 -65 CURVE",
"-32 -140 LINE",
"-13 -147 OFFCURVE",
"36 -163 OFFCURVE",
"89 -163 CURVE SMOOTH"
);
},
{
closed = 1;
nodes = (
"101 -5 LINE SMOOTH",
"243 3 OFFCURVE",
"315 75 OFFCURVE",
"315 209 CURVE SMOOTH",
"315 712 LINE",
"152 712 LINE",
"152 207 LINE SMOOTH",
"152 154 OFFCURVE",
"127 128 OFFCURVE",
"74 125 CURVE SMOOTH",
"-4 120 LINE",
"6 -10 LINE"
);
}
);
};
layerId = "E1B555A7-F4E1-459C-9C1A-AE952106EEF9";
paths = (
{
closed = 1;
nodes = (
"240 -214 OFFCURVE",
"315 -141 OFFCURVE",
"315 45 CURVE SMOOTH",
"315 712 LINE",
"152 712 LINE",
"152 43 LINE SMOOTH",
"152 -52 OFFCURVE",
"126 -64 OFFCURVE",
"0 -48 CURVE",
"0 -179 LINE"
);
}
);
width = 385;
}
);
leftKerningGroup = J;
rightKerningGroup = J;
unicode = 004A;
userData = {
anchors = (
);
b = {
};
com.typemytype.robofont.layerData = {
b = {
anchors = (
);
components = (
);
contours = (
);
lib = {
};
name = J;
unicodes = (
);
width = 1003;
};
};
components = (
);
contours = (
);
lib = {
};
name = J;
unicodes = (
);
width = 1126;
};
},
{
glyphname = K;
lastChange = "2016-09-21 14:51:45 +0000";
layers = (
{
anchors = (
{
name = bottom;
position = "{309, 0}";
},
{
name = top;
position = "{308, 712}";
}
);
background = {
anchors = (
{
name = bottom;
position = "{309, 0}";
},
{
name = top;
position = "{308, 712}";
}
);
paths = (
{
closed = 1;
nodes = (
"111 711 LINE",
"111 0 LINE",
"176 0 LINE",
"176 371 LINE",
"531 0 LINE",
"621 0 LINE",
"260 370 LINE",
"595 711 LINE",
"517 711 LINE",
"177 375 LINE",
"177 711 LINE"
);
}
);
};
layerId = "9E718F8A-2CEA-4931-B05D-987794BD97DA";
paths = (
{
closed = 1;
nodes = (
"613 0 LINE",
"181 383 LINE",
"179 342 LINE",
"591 712 LINE",
"517 712 LINE",
"126 361 LINE",
"537 0 LINE"
);
},
{
closed = 1;
nodes = (
"148 0 LINE",
"148 712 LINE",
"94 712 LINE",
"94 0 LINE"
);
}
);
width = 614;
},
{
anchors = (
{
name = bottom;
position = "{346, 0}";
},
{
name = top;
position = "{346, 712}";
}
);
background = {
paths = (
{
closed = 1;
nodes = (
"93 0 LINE",
"93 718 LINE",
"187 718 LINE",
"187 394 LINE",
"496 718 LINE",
"613 718 LINE",
"281 373 LINE",
"636 0 LINE",
"517 0 LINE",
"187 341 LINE",
"187 0 LINE"
);
}
);
};
layerId = "E1B555A7-F4E1-459C-9C1A-AE952106EEF9";
paths = (
{
closed = 1;
nodes = (
"732 0 LINE",
"358 409 LINE",
"345 324 LINE",
"719 712 LINE",
"527 712 LINE",
"198 364 LINE",
"537 0 LINE"
);
},
{
closed = 1;
nodes = (
"232 0 LINE",
"232 712 LINE",
"70 712 LINE",
"70 0 LINE"
);
}
);
width = 689;
}
);
leftKerningGroup = H;
rightKerningGroup = K;
unicode = 004B;
userData = {
anchors = (
);
b = {
};
com.typemytype.robofont.layerData = {
b = {
anchors = (
);
components = (
);
contours = (
);
lib = {
};
name = K;
unicodes = (
);
width = 1210;
};
};
components = (
);
contours = (
);
lib = {
};
name = K;
unicodes = (
);
width = 1329;
};
},
{
glyphname = L;
lastChange = "2016-09-21 14:51:45 +0000";
layers = (
{
anchors = (
{
name = bottom;
position = "{310, 0}";
},
{
name = center;
position = "{337, 357}";
},
{
name = top;
position = "{121, 712}";
},
{
name = topright;
position = "{239, 712}";
}
);
background = {
anchors = (
{
name = bottom;
position = "{310, 0}";
},
{
name = center;
position = "{337, 357}";
},
{
name = top;
position = "{121, 712}";
},
{
name = topright;
position = "{239, 712}";
}
);
paths = (
{
closed = 1;
nodes = (
"174 56 LINE",
"174 711 LINE",
"109 711 LINE",
"109 0 LINE",
"521 0 LINE",
"521 56 LINE"
);
}
);
};
layerId = "9E718F8A-2CEA-4931-B05D-987794BD97DA";
paths = (
{
closed = 1;
nodes = (
"520 0 LINE",
"520 48 LINE",
"148 48 LINE",
"148 712 LINE",
"94 712 LINE",
"94 0 LINE"
);
}
);
width = 536;
},
{
anchors = (
{
name = bottom;
position = "{316, 0}";
},
{
name = center;
position = "{398, 357}";
},
{
name = top;
position = "{150, 712}";
},
{
name = topright;
position = "{323, 712}";
}
);
background = {
anchors = (
{
name = bottom;
position = "{316, 0}";
},
{
name = center;
position = "{398, 357}";
},
{
name = top;
position = "{150, 712}";
},
{
name = topright;
position = "{323, 712}";
}
);
paths = (
{
closed = 1;
nodes = (
"93 0 LINE",
"93 718 LINE",
"187 718 LINE",
"187 81 LINE",
"520 81 LINE",
"520 0 LINE"
);
}
);
};
layerId = "E1B555A7-F4E1-459C-9C1A-AE952106EEF9";
paths = (
{
closed = 1;
nodes = (
"547 0 LINE",
"547 132 LINE",
"232 132 LINE",
"232 712 LINE",
"70 712 LINE",
"70 0 LINE"
);
}
);
width = 571;
}
);
leftKerningGroup = H;
rightKerningGroup = L;
unicode = 004C;
userData = {
anchors = (
);
b = {
};
com.typemytype.robofont.layerData = {
b = {
anchors = (
);
components = (
);
contours = (
{
points = (
{
segmentType = curve;
smooth = 1;
x = 266;
y = 0;
},
{
segmentType = line;
smooth = 1;
x = 1035;
y = 0;
},
{
smooth = 0;
x = 1084;
y = 0;
},
{
smooth = 0;
x = 1108;
y = 34;
},
{
segmentType = curve;
smooth = 1;
x = 1108;
y = 71;
},
{
smooth = 0;
x = 1108;
y = 107;
},
{
smooth = 0;
x = 1084;
y = 141;
},
{
segmentType = curve;
smooth = 1;
x = 1035;
y = 141;
},
{
segmentType = line;
smooth = 0;
x = 356;
y = 141;
},
{
segmentType = line;
smooth = 0;
x = 356;
y = 665;
},
{
segmentType = line;
smooth = 1;
x = 975;
y = 665;
},
{
smooth = 0;
x = 1024;
y = 665;
},
{
smooth = 0;
x = 1049;
y = 698;
},
{
segmentType = curve;
smooth = 1;
x = 1049;
y = 734;
},
{
smooth = 0;
x = 1049;
y = 770;
},
{
smooth = 0;
x = 1026;
y = 803;
},
{
segmentType = curve;
smooth = 1;
x = 975;
y = 803;
},
{
segmentType = line;
smooth = 0;
x = 356;
y = 803;
},
{
segmentType = line;
smooth = 0;
x = 356;
y = 1285;
},
{
segmentType = line;
smooth = 1;
x = 1007;
y = 1285;
},
{
smooth = 0;
x = 1056;
y = 1285;
},
{
smooth = 0;
x = 1080;
y = 1319;
},
{
segmentType = curve;
smooth = 1;
x = 1080;
y = 1356;
},
{
smooth = 0;
x = 1080;
y = 1392;
},
{
smooth = 0;
x = 1056;
y = 1426;
},
{
segmentType = curve;
smooth = 1;
x = 1007;
y = 1426;
},
{
segmentType = line;
smooth = 1;
x = 261;
y = 1426;
},
{
smooth = 0;
x = 213;
y = 1426;
},
{
smooth = 0;
x = 178;
y = 1383;
},
{
segmentType = curve;
smooth = 1;
x = 178;
y = 1340;
},
{
segmentType = line;
smooth = 1;
x = 178;
y = 86;
},
{
smooth = 0;
x = 178;
y = 41;
},
{
smooth = 0;
x = 222;
y = 0;
}
);
}
);
lib = {
};
name = L;
unicodes = (
);
width = 1095;
};
};
components = (
);
contours = (
);
lib = {
};
name = L;
unicodes = (
);
width = 1169;
};
},
{
glyphname = LJ;
lastChange = "2016-09-21 14:51:45 +0000";
layers = (
{
background = {
paths = (
{
closed = 1;
nodes = (
"490 0 LINE",
"490 48 LINE",
"148 48 LINE",
"148 712 LINE",
"94 712 LINE",
"94 0 LINE"
);
},
{
closed = 1;
nodes = (
"585 -2 LINE SMOOTH",
"694 5 OFFCURVE",
"749 65 OFFCURVE",
"749 173 CURVE SMOOTH",
"749 712 LINE",
"695 712 LINE",
"695 169 LINE SMOOTH",
"695 92 OFFCURVE",
"657 52 OFFCURVE",
"579 45 CURVE SMOOTH",
"525 41 LINE",
"529 -6 LINE"
);
}
);
};
layerId = "9E718F8A-2CEA-4931-B05D-987794BD97DA";
paths = (
{
closed = 1;
nodes = (
"490 0 LINE",
"490 48 LINE",
"148 48 LINE",
"148 712 LINE",
"94 712 LINE",
"94 0 LINE"
);
},
{
closed = 1;
nodes = (
"600 -206 OFFCURVE",
"664 -162 OFFCURVE",
"664 -2 CURVE SMOOTH",
"664 712 LINE",
"609 712 LINE",
"609 0 LINE SMOOTH",
"609 -128 OFFCURVE",
"566 -153 OFFCURVE",
"441 -128 CURVE",
"441 -178 LINE"
);
}
);
width = 758;
},
{
background = {
paths = (
{
closed = 1;
nodes = (
"517 0 LINE",
"517 132 LINE",
"232 132 LINE",
"232 712 LINE",
"70 712 LINE",
"70 0 LINE"
);
},
{
closed = 1;
nodes = (
"675 -5 LINE SMOOTH",
"817 3 OFFCURVE",
"889 75 OFFCURVE",
"889 209 CURVE SMOOTH",
"889 712 LINE",
"725 712 LINE",
"725 207 LINE SMOOTH",
"725 154 OFFCURVE",
"701 128 OFFCURVE",
"647 125 CURVE SMOOTH",
"570 120 LINE",
"580 -10 LINE"
);
}
);
};
layerId = "E1B555A7-F4E1-459C-9C1A-AE952106EEF9";
paths = (
{
closed = 1;
nodes = (
"517 0 LINE",
"517 132 LINE",
"232 132 LINE",
"232 712 LINE",
"70 712 LINE",
"70 0 LINE"
);
},
{
closed = 1;
nodes = (
"765 -214 OFFCURVE",
"839 -141 OFFCURVE",
"839 45 CURVE SMOOTH",
"839 712 LINE",
"676 712 LINE",
"676 43 LINE SMOOTH",
"676 -52 OFFCURVE",
"650 -64 OFFCURVE",
"524 -48 CURVE",
"524 -179 LINE"
);
}
);
width = 909;
}
);
leftKerningGroup = H;
rightKerningGroup = J;
unicode = 01C7;
},
{
glyphname = Lslash;
lastChange = "2016-09-21 14:51:45 +0000";
layers = (
{
background = {
paths = (
{
closed = 1;
nodes = (
"172 56 LINE",
"172 329 LINE",
"399 429 LINE",
"399 479 LINE",
"173 378 LINE",
"173 711 LINE",
"111 711 LINE",
"111 351 LINE",
"-12 298 LINE",
"-12 248 LINE",
"109 302 LINE",
"109 0 LINE",
"521 0 LINE",
"521 56 LINE"
);
}
);
};
guideLines = (
{
position = "{388, 362}";
},
{
angle = 90;
position = "{0, 126}";
},
{
angle = 90;
position = "{257, 126}";
},
{
angle = 90;
position = "{358, 126}";
}
);
layerId = "9E718F8A-2CEA-4931-B05D-987794BD97DA";
paths = (
{
closed = 1;
nodes = (
"346 459 LINE",
"346 514 LINE",
"8 319 LINE",
"8 264 LINE"
);
},
{
closed = 1;
nodes = (
"527 0 LINE",
"527 48 LINE",
"156 48 LINE",
"156 712 LINE",
"101 712 LINE",
"101 0 LINE"
);
}
);
width = 543;
},
{
background = {
components = (
{
name = L;
}
);
paths = (
{
closed = 1;
nodes = (
"322 436 LINE",
"11 233 LINE",
"11 311 LINE",
"322 514 LINE"
);
},
{
closed = 1;
nodes = (
"475 459 LINE",
"416 564 LINE",
"-16 314 LINE",
"42 209 LINE"
);
},
{
closed = 1;
nodes = (
"579 0 LINE",
"579 132 LINE",
"264 132 LINE",
"264 712 LINE",
"101 712 LINE",
"101 0 LINE"
);
}
);
};
guideLines = (
{
angle = 90;
position = "{365, 235}";
},
{
angle = 90;
position = "{0, 235}";
},
{
position = "{336, 360}";
},
{
angle = 90;
position = "{466, 235}";
}
);
layerId = "E1B555A7-F4E1-459C-9C1A-AE952106EEF9";
paths = (
{
closed = 1;
nodes = (
"448 443 LINE",
"448 582 LINE",
"10 329 LINE",
"10 191 LINE"
);
},
{
closed = 1;
nodes = (
"579 0 LINE",
"579 132 LINE",
"264 132 LINE",
"264 712 LINE",
"101 712 LINE",
"101 0 LINE"
);
}
);
width = 603;
}
);
leftKerningGroup = L;
rightKerningGroup = L;
unicode = 0141;
},
{
glyphname = M;
lastChange = "2016-09-21 14:51:45 +0000";
layers = (
{
anchors = (
{
name = bottom;
position = "{424, 0}";
},
{
name = top;
position = "{424, 712}";
}
);
background = {
anchors = (
{
name = bottom;
position = "{424, 0}";
},
{
name = top;
position = "{424, 712}";
}
);
paths = (
{
closed = 1;
nodes = (
"169 674 LINE",
"222 549 LINE",
"470 0 LINE",
"516 0 LINE",
"773 561 LINE",
"818 679 LINE",
"818 459 LINE",
"818 0 LINE",
"883 0 LINE",
"883 711 LINE",
"785 711 LINE",
"548 193 LINE",
"494 66 LINE",
"439 193 LINE",
"207 711 LINE",
"105 711 LINE",
"105 0 LINE",
"169 0 LINE",
"169 458 LINE"
);
}
);
};
layerId = "9E718F8A-2CEA-4931-B05D-987794BD97DA";
paths = (
{
closed = 1;
nodes = (
"146 0 LINE",
"145 652 LINE",
"114 650 LINE",
"404 0 LINE",
"446 0 LINE",
"731 649 LINE",
"703 652 LINE",
"702 0 LINE",
"754 0 LINE",
"754 712 LINE",
"708 712 LINE",
"410 28 LINE",
"442 28 LINE",
"140 712 LINE",
"94 712 LINE",
"94 0 LINE"
);
}
);
width = 848;
},
{
anchors = (
{
name = bottom;
position = "{425, 0}";
},
{
name = top;
position = "{425, 712}";
}
);
background = {
paths = (
{
closed = 1;
nodes = (
"214 0 LINE",
"214 470 LINE",
"186 461 LINE",
"373 117 LINE",
"478 117 LINE",
"662 461 LINE",
"636 470 LINE",
"636 0 LINE",
"779 0 LINE",
"779 712 LINE",
"652 712 LINE",
"409 248 LINE",
"444 248 LINE",
"200 712 LINE",
"72 712 LINE",
"72 0 LINE"
);
}
);
};
layerId = "E1B555A7-F4E1-459C-9C1A-AE952106EEF9";
paths = (
{
closed = 1;
nodes = (
"214 0 LINE",
"214 470 LINE",
"176 461 LINE",
"373 0 LINE",
"478 0 LINE",
"672 461 LINE",
"636 470 LINE",
"636 0 LINE",
"779 0 LINE",
"779 712 LINE",
"652 712 LINE",
"399 131 LINE",
"455 131 LINE",
"200 712 LINE",
"72 712 LINE",
"72 0 LINE"
);
}
);
width = 851;
}
);
leftKerningGroup = H;
rightKerningGroup = H;
unicode = 004D;
userData = {
anchors = (
);
b = {
};
com.typemytype.robofont.layerData = {
b = {
anchors = (
);
components = (
);
contours = (
);
lib = {
};
name = M;
unicodes = (
);
width = 1899;
};
};
components = (
);
contours = (
);
lib = {
};
name = M;
unicodes = (
);
width = 1984;
};
},
{
glyphname = N;
lastChange = "2016-09-21 14:51:45 +0000";
layers = (
{
anchors = (
{
name = bottom;
position = "{371, 0}";
},
{
name = top;
position = "{371, 712}";
}
);
background = {
anchors = (
{
name = bottom;
position = "{371, 0}";
},
{
name = top;
position = "{371, 712}";
}
);
paths = (
{
closed = 1;
nodes = (
"596 0 LINE",
"684 0 LINE",
"684 711 LINE",
"625 711 LINE",
"625 216 LINE",
"625 50 LINE",
"559 158 LINE",
"190 711 LINE",
"104 711 LINE",
"104 0 LINE",
"167 0 LINE",
"167 646 LINE",
"226 553 LINE"
);
}
);
};
layerId = "9E718F8A-2CEA-4931-B05D-987794BD97DA";
paths = (
{
closed = 1;
nodes = (
"145 0 LINE",
"145 650 LINE",
"123 649 LINE",
"604 0 LINE",
"647 0 LINE",
"647 712 LINE",
"596 712 LINE",
"596 62 LINE",
"619 63 LINE",
"138 712 LINE",
"94 712 LINE",
"94 0 LINE"
);
}
);
width = 741;
},
{
anchors = (
{
name = bottom;
position = "{381, 0}";
},
{
name = top;
position = "{380, 712}";
}
);
background = {
anchors = (
{
name = bottom;
position = "{381, 0}";
},
{
name = top;
position = "{380, 712}";
}
);
paths = (
{
closed = 1;
nodes = (
"93 0 LINE",
"93 718 LINE",
"195 718 LINE",
"548 198 LINE",
"593 131 LINE",
"593 718 LINE",
"682 718 LINE",
"682 0 LINE",
"580 0 LINE",
"223 518 LINE",
"181 584 LINE",
"181 0 LINE"
);
}
);
};
layerId = "E1B555A7-F4E1-459C-9C1A-AE952106EEF9";
paths = (
{
closed = 1;
nodes = (
"221 0 LINE",
"221 500 LINE",
"194 479 LINE",
"570 0 LINE",
"691 0 LINE",
"691 712 LINE",
"538 712 LINE",
"538 212 LINE",
"567 232 LINE",
"189 712 LINE",
"70 712 LINE",
"70 0 LINE"
);
}
);
width = 761;
}
);
leftKerningGroup = H;
rightKerningGroup = H;
unicode = 004E;
userData = {
anchors = (
);
b = {
};
com.typemytype.robofont.layerData = {
b = {
anchors = (
);
components = (
);
contours = (
);
lib = {
};
name = N;
unicodes = (
);
width = 1499;
};
};
components = (
);
contours = (
);
lib = {
};
name = N;
unicodes = (
);
width = 1557;
};
},
{
glyphname = Eng;
lastChange = "2016-09-21 14:51:45 +0000";
layers = (
{
background = {
paths = (
{
closed = 1;
nodes = (
"661 -211 OFFCURVE",
"673 -114 OFFCURVE",
"674 0 CURVE SMOOTH",
"674 718 LINE",
"621 718 LINE",
"621 70 LINE",
"559 166 LINE",
"172 718 LINE",
"119 718 LINE",
"119 0 LINE",
"172 0 LINE",
"172 642 LINE",
"225 561 LINE",
"621 0 LINE",
"621 -41 LINE SMOOTH",
"621 -128 OFFCURVE",
"577 -171 OFFCURVE",
"479 -171 CURVE SMOOTH",
"433 -171 OFFCURVE",
"368 -166 OFFCURVE",
"272 -140 CURVE",
"268 -184 LINE",
"356 -203 OFFCURVE",
"424 -211 OFFCURVE",
"479 -211 CURVE SMOOTH"
);
}
);
};
layerId = "9E718F8A-2CEA-4931-B05D-987794BD97DA";
paths = (
{
closed = 1;
nodes = (
"596 62 LINE",
"619 63 LINE",
"138 712 LINE",
"94 712 LINE",
"94 0 LINE",
"145 0 LINE",
"145 650 LINE",
"123 649 LINE",
"604 0 LINE",
"596 38 LINE",
"596 -13 LINE SMOOTH",
"596 -91 OFFCURVE",
"553 -130 OFFCURVE",
"477 -136 CURVE SMOOTH",
"423 -140 LINE",
"427 -188 LINE",
"483 -184 LINE SMOOTH",
"600 -176 OFFCURVE",
"647 -109 OFFCURVE",
"647 -9 CURVE SMOOTH",
"647 712 LINE",
"596 712 LINE"
);
}
);
width = 741;
},
{
background = {
paths = (
{
closed = 1;
nodes = (
"269 -181 CURVE",
"280 -106 LINE",
"344 -123 OFFCURVE",
"399 -132 OFFCURVE",
"442 -132 CURVE SMOOTH",
"538 -132 OFFCURVE",
"582 -92 OFFCURVE",
"587 0 CURVE SMOOTH",
"588 3 OFFCURVE",
"588 23 OFFCURVE",
"588 27 CURVE",
"227 522 LINE",
"185 588 LINE",
"185 0 LINE",
"93 0 LINE",
"93 718 LINE",
"198 718 LINE",
"544 231 LINE",
"589 165 LINE",
"589 718 LINE",
"681 718 LINE",
"681 52 LINE SMOOTH",
"681 -114 OFFCURVE",
"617 -204 OFFCURVE",
"445 -204 CURVE SMOOTH",
"396 -204 OFFCURVE",
"337 -197 OFFCURVE"
);
}
);
};
layerId = "E1B555A7-F4E1-459C-9C1A-AE952106EEF9";
paths = (
{
closed = 1;
nodes = (
"538 212 LINE",
"567 232 LINE",
"189 712 LINE",
"70 712 LINE",
"70 0 LINE",
"221 0 LINE",
"221 500 LINE",
"194 479 LINE",
"565 7 LINE",
"537 92 LINE",
"537 24 LINE SMOOTH",
"537 -27 OFFCURVE",
"505 -60 OFFCURVE",
"449 -63 CURVE SMOOTH",
"372 -68 LINE",
"382 -190 LINE",
"477 -185 LINE SMOOTH",
"619 -177 OFFCURVE",
"691 -105 OFFCURVE",
"691 30 CURVE SMOOTH",
"691 712 LINE",
"538 712 LINE"
);
}
);
width = 761;
}
);
leftKerningGroup = H;
rightKerningGroup = H;
unicode = 014A;
userData = {
com.typemytype.robofont.layerData = {
b = {
anchors = (
);
components = (
);
contours = (
);
lib = {
};
name = Eng;
unicodes = (
);
width = 1495;
};
};
};
},
{
glyphname = O;
lastChange = "2016-09-21 11:55:25 +0000";
layers = (
{
anchors = (
{
name = bottom;
position = "{381, 0}";
},
{
name = center;
position = "{382, 357}";
},
{
name = ogonek;
position = "{487, 10}";
},
{
name = top;
position = "{381, 712}";
},
{
name = topleft;
position = "{26, 712}";
},
{
name = topright;
position = "{411, 712}";
}
);
background = {
anchors = (
{
name = bottom;
position = "{381, 0}";
},
{
name = center;
position = "{382, 357}";
},
{
name = ogonek;
position = "{487, 10}";
},
{
name = top;
position = "{381, 712}";
},
{
name = topleft;
position = "{26, 712}";
},
{
name = topright;
position = "{411, 712}";
}
);
paths = (
{
closed = 1;
nodes = (
"757 468 OFFCURVE",
"725 560 OFFCURVE",
"666 624 CURVE SMOOTH",
"606 688 OFFCURVE",
"521 724 OFFCURVE",
"415 724 CURVE SMOOTH",
"305 724 OFFCURVE",
"218 686 OFFCURVE",
"158 620 CURVE SMOOTH",
"98 555 OFFCURVE",
"65 462 OFFCURVE",
"65 355 CURVE SMOOTH",
"65 244 OFFCURVE",
"98 152 OFFCURVE",
"157 88 CURVE SMOOTH",
"216 24 OFFCURVE",
"302 -11 OFFCURVE",
"409 -11 CURVE SMOOTH",
"518 -11 OFFCURVE",
"605 27 OFFCURVE",
"665 92 CURVE SMOOTH",
"725 157 OFFCURVE",
"757 249 OFFCURVE",
"757 356 CURVE SMOOTH"
);
},
{
closed = 1;
nodes = (
"132 437 OFFCURVE",
"156 516 OFFCURVE",
"203 574 CURVE SMOOTH",
"250 631 OFFCURVE",
"319 668 OFFCURVE",
"411 668 CURVE SMOOTH",
"503 668 OFFCURVE",
"572 635 OFFCURVE",
"618 579 CURVE SMOOTH",
"664 523 OFFCURVE",
"687 445 OFFCURVE",
"687 359 CURVE SMOOTH",
"687 269 OFFCURVE",
"664 191 OFFCURVE",
"617 135 CURVE SMOOTH",
"571 78 OFFCURVE",
"501 44 OFFCURVE",
"410 44 CURVE SMOOTH",
"319 44 OFFCURVE",
"250 79 OFFCURVE",
"203 135 CURVE SMOOTH",
"156 190 OFFCURVE",
"132 268 OFFCURVE",
"132 354 CURVE SMOOTH"
);
}
);
};
layerId = "9E718F8A-2CEA-4931-B05D-987794BD97DA";
paths = (
{
closed = 1;
nodes = (
"576 -8 OFFCURVE",
"697 131 OFFCURVE",
"697 357 CURVE SMOOTH",
"697 582 OFFCURVE",
"577 720 OFFCURVE",
"381 720 CURVE SMOOTH",
"185 720 OFFCURVE",
"66 582 OFFCURVE",
"66 356 CURVE SMOOTH",
"66 131 OFFCURVE",
"187 -8 OFFCURVE",
"381 -8 CURVE SMOOTH"
);
},
{
closed = 1;
nodes = (
"218 42 OFFCURVE",
"123 158 OFFCURVE",
"123 357 CURVE SMOOTH",
"123 556 OFFCURVE",
"218 670 OFFCURVE",
"381 670 CURVE SMOOTH",
"545 670 OFFCURVE",
"639 557 OFFCURVE",
"639 357 CURVE SMOOTH",
"639 157 OFFCURVE",
"544 42 OFFCURVE",
"381 42 CURVE SMOOTH"
);
}
);
width = 763;
},
{
anchors = (
{
name = bottom;
position = "{399, 0}";
},
{
name = center;
position = "{399, 357}";
},
{
name = ogonek;
position = "{518, 10}";
},
{
name = top;
position = "{398, 712}";
},
{
name = topleft;
position = "{22, 712}";
},
{
name = topright;
position = "{429, 712}";
}
);
background = {
anchors = (
{
name = bottom;
position = "{399, 0}";
},
{
name = center;
position = "{399, 357}";
},
{
name = ogonek;
position = "{518, 10}";
},
{
name = top;
position = "{398, 712}";
},
{
name = topleft;
position = "{22, 712}";
},
{
name = topright;
position = "{429, 712}";
}
);
paths = (
{
closed = 1;
nodes = (
"621 -11 OFFCURVE",
"749 134 OFFCURVE",
"749 360 CURVE SMOOTH",
"749 577 OFFCURVE",
"617 731 OFFCURVE",
"403 731 CURVE SMOOTH",
"181 731 OFFCURVE",
"53 577 OFFCURVE",
"53 360 CURVE SMOOTH",
"53 133 OFFCURVE",
"182 -11 OFFCURVE",
"403 -11 CURVE SMOOTH"
);
},
{
closed = 1;
nodes = (
"235 70 OFFCURVE",
"155 187 OFFCURVE",
"155 360 CURVE SMOOTH",
"155 522 OFFCURVE",
"236 650 OFFCURVE",
"402 650 CURVE SMOOTH",
"573 650 OFFCURVE",
"646 522 OFFCURVE",
"646 360 CURVE SMOOTH",
"646 187 OFFCURVE",
"573 70 OFFCURVE",
"402 70 CURVE SMOOTH"
);
}
);
};
layerId = "E1B555A7-F4E1-459C-9C1A-AE952106EEF9";
paths = (
{
closed = 1;
nodes = (
"614 -9 OFFCURVE",
"747 133 OFFCURVE",
"747 357 CURVE SMOOTH",
"747 580 OFFCURVE",
"614 721 OFFCURVE",
"399 721 CURVE SMOOTH",
"184 721 OFFCURVE",
"49 580 OFFCURVE",
"49 357 CURVE SMOOTH",
"49 133 OFFCURVE",
"184 -9 OFFCURVE",
"399 -9 CURVE SMOOTH"
);
},
{
closed = 1;
nodes = (
"284 117 OFFCURVE",
"212 198 OFFCURVE",
"212 357 CURVE SMOOTH",
"212 515 OFFCURVE",
"284 595 OFFCURVE",
"399 595 CURVE SMOOTH",
"514 595 OFFCURVE",
"586 514 OFFCURVE",
"586 357 CURVE SMOOTH",
"586 199 OFFCURVE",
"514 117 OFFCURVE",
"399 117 CURVE SMOOTH"
);
}
);
width = 797;
}
);
leftKerningGroup = O;
rightKerningGroup = O;
unicode = 004F;
userData = {
anchors = (
);
b = {
};
com.typemytype.robofont.guides = (
);
com.typemytype.robofont.layerData = {
b = {
anchors = (
);
components = (
);
contours = (
);
lib = {
};
name = O;
unicodes = (
);
width = 1597;
};
};
components = (
);
contours = (
);
lib = {
};
name = O;
unicodes = (
);
width = 1604;
};
},
{
glyphname = Ohorn;
lastChange = "2016-09-21 14:51:45 +0000";
layers = (
{
anchors = (
{
name = bottom;
position = "{382, 0}";
},
{
name = top;
position = "{381, 712}";
}
);
background = {
anchors = (
{
name = bottom;
position = "{382, 0}";
},
{
name = top;
position = "{381, 712}";
}
);
paths = (
{
closed = 1;
nodes = (
"576 -8 OFFCURVE",
"697 131 OFFCURVE",
"697 357 CURVE SMOOTH",
"697 513 OFFCURVE",
"639 627 OFFCURVE",
"534 683 CURVE",
"540 670 LINE",
"639 670 OFFCURVE",
"697 724 OFFCURVE",
"697 816 CURVE SMOOTH",
"697 842 OFFCURVE",
"689 854 OFFCURVE",
"672 854 CURVE SMOOTH",
"655 854 OFFCURVE",
"646 842 OFFCURVE",
"645 821 CURVE SMOOTH",
"641 736 OFFCURVE",
"615 712 OFFCURVE",
"527 712 CURVE SMOOTH",
"487 712 OFFCURVE",
"434 720 OFFCURVE",
"385 720 CURVE SMOOTH",
"185 720 OFFCURVE",
"66 582 OFFCURVE",
"66 356 CURVE SMOOTH",
"66 131 OFFCURVE",
"187 -8 OFFCURVE",
"381 -8 CURVE SMOOTH"
);
},
{
closed = 1;
nodes = (
"218 42 OFFCURVE",
"123 158 OFFCURVE",
"123 357 CURVE SMOOTH",
"123 556 OFFCURVE",
"218 670 OFFCURVE",
"381 670 CURVE SMOOTH",
"545 670 OFFCURVE",
"639 557 OFFCURVE",
"639 357 CURVE SMOOTH",
"639 157 OFFCURVE",
"544 42 OFFCURVE",
"381 42 CURVE SMOOTH"
);
}
);
};
guideLines = (
{
angle = 90;
position = "{697, 469}";
}
);
layerId = "9E718F8A-2CEA-4931-B05D-987794BD97DA";
paths = (
{
closed = 1;
nodes = (
"575 -8 OFFCURVE",
"697 131 OFFCURVE",
"697 357 CURVE SMOOTH",
"697 513 OFFCURVE",
"639 627 OFFCURVE",
"534 683 CURVE",
"540 670 LINE",
"639 670 OFFCURVE",
"697 724 OFFCURVE",
"697 817 CURVE SMOOTH",
"697 839 LINE",
"646 839 LINE",
"646 826 LINE SMOOTH",
"646 744 OFFCURVE",
"614 713 OFFCURVE",
"527 712 CURVE SMOOTH",
"487 712 OFFCURVE",
"433 720 OFFCURVE",
"385 720 CURVE SMOOTH",
"185 720 OFFCURVE",
"66 582 OFFCURVE",
"66 356 CURVE SMOOTH",
"66 131 OFFCURVE",
"188 -8 OFFCURVE",
"381 -8 CURVE SMOOTH"
);
},
{
closed = 1;
nodes = (
"218 42 OFFCURVE",
"123 158 OFFCURVE",
"123 357 CURVE SMOOTH",
"123 556 OFFCURVE",
"218 670 OFFCURVE",
"381 670 CURVE SMOOTH",
"545 670 OFFCURVE",
"639 557 OFFCURVE",
"639 357 CURVE SMOOTH",
"639 157 OFFCURVE",
"544 42 OFFCURVE",
"381 42 CURVE SMOOTH"
);
}
);
width = 763;
},
{
anchors = (
{
name = bottom;
position = "{399, 0}";
},
{
name = top;
position = "{398, 712}";
}
);
background = {
anchors = (
{
name = bottom;
position = "{399, 0}";
},
{
name = top;
position = "{398, 712}";
}
);
paths = (
{
closed = 1;
nodes = (
"614 -9 OFFCURVE",
"747 133 OFFCURVE",
"747 357 CURVE SMOOTH",
"747 492 OFFCURVE",
"701 596 OFFCURVE",
"610 658 CURVE",
"594 636 LINE",
"687 636 OFFCURVE",
"747 709 OFFCURVE",
"747 789 CURVE SMOOTH",
"747 841 OFFCURVE",
"725 868 OFFCURVE",
"683 868 CURVE SMOOTH",
"638 868 OFFCURVE",
"612 842 OFFCURVE",
"607 785 CURVE SMOOTH",
"603 730 OFFCURVE",
"582 712 OFFCURVE",
"525 712 CURVE SMOOTH",
"481 712 OFFCURVE",
"446 721 OFFCURVE",
"401 721 CURVE SMOOTH",
"184 721 OFFCURVE",
"49 580 OFFCURVE",
"49 357 CURVE SMOOTH",
"49 133 OFFCURVE",
"184 -9 OFFCURVE",
"399 -9 CURVE SMOOTH"
);
},
{
closed = 1;
nodes = (
"284 117 OFFCURVE",
"212 198 OFFCURVE",
"212 357 CURVE SMOOTH",
"212 515 OFFCURVE",
"284 595 OFFCURVE",
"399 595 CURVE SMOOTH",
"514 595 OFFCURVE",
"586 514 OFFCURVE",
"586 357 CURVE SMOOTH",
"586 199 OFFCURVE",
"514 117 OFFCURVE",
"399 117 CURVE SMOOTH"
);
}
);
};
guideLines = (
{
angle = 90;
position = "{747, 646}";
}
);
layerId = "E1B555A7-F4E1-459C-9C1A-AE952106EEF9";
paths = (
{
closed = 1;
nodes = (
"614 -9 OFFCURVE",
"747 133 OFFCURVE",
"747 357 CURVE SMOOTH",
"747 492 OFFCURVE",
"701 596 OFFCURVE",
"610 658 CURVE",
"594 636 LINE",
"684 636 OFFCURVE",
"747 702 OFFCURVE",
"747 795 CURVE SMOOTH",
"747 834 LINE",
"612 834 LINE",
"612 814 LINE SMOOTH",
"612 739 OFFCURVE",
"589 712 OFFCURVE",
"525 712 CURVE SMOOTH",
"481 712 OFFCURVE",
"449 721 OFFCURVE",
"401 721 CURVE SMOOTH",
"184 721 OFFCURVE",
"49 580 OFFCURVE",
"49 357 CURVE SMOOTH",
"49 133 OFFCURVE",
"184 -9 OFFCURVE",
"399 -9 CURVE SMOOTH"
);
},
{
closed = 1;
nodes = (
"284 117 OFFCURVE",
"212 198 OFFCURVE",
"212 357 CURVE SMOOTH",
"212 515 OFFCURVE",
"284 595 OFFCURVE",
"399 595 CURVE SMOOTH",
"514 595 OFFCURVE",
"586 514 OFFCURVE",
"586 357 CURVE SMOOTH",
"586 199 OFFCURVE",
"514 117 OFFCURVE",
"399 117 CURVE SMOOTH"
);
}
);
width = 797;
}
);
leftKerningGroup = O;
rightKerningGroup = O;
unicode = 01A0;
},
{
glyphname = Oogonek;
lastChange = "2016-09-21 14:51:45 +0000";
layers = (
{
anchors = (
{
name = top;
position = "{381, 712}";
}
);
background = {
anchors = (
{
name = top;
position = "{381, 712}";
}
);
components = (
{
name = O;
},
{
name = ogonek;
transform = "{1, 0, 0, 1, 273, 0}";
}
);
};
layerId = "9E718F8A-2CEA-4931-B05D-987794BD97DA";
paths = (
{
closed = 1;
nodes = (
"615 43 OFFCURVE",
"697 170 OFFCURVE",
"697 357 CURVE SMOOTH",
"697 582 OFFCURVE",
"576 720 OFFCURVE",
"381 720 CURVE SMOOTH",
"186 720 OFFCURVE",
"66 582 OFFCURVE",
"66 356 CURVE SMOOTH",
"66 120 OFFCURVE",
"200 -21 OFFCURVE",
"408 -7 CURVE",
"400 11 LINE",
"365 -11 OFFCURVE",
"343 -48 OFFCURVE",
"343 -89 CURVE SMOOTH",
"343 -150 OFFCURVE",
"390 -193 OFFCURVE",
"458 -193 CURVE SMOOTH",
"489 -193 OFFCURVE",
"517 -185 OFFCURVE",
"538 -170 CURVE",
"522 -131 LINE",
"501 -142 OFFCURVE",
"480 -149 OFFCURVE",
"463 -149 CURVE SMOOTH",
"420 -149 OFFCURVE",
"394 -124 OFFCURVE",
"394 -83 CURVE SMOOTH",
"394 -40 OFFCURVE",
"420 -11 OFFCURVE",
"471 3 CURVE SMOOTH"
);
},
{
closed = 1;
nodes = (
"123 556 OFFCURVE",
"218 670 OFFCURVE",
"381 670 CURVE SMOOTH",
"545 670 OFFCURVE",
"639 557 OFFCURVE",
"639 357 CURVE SMOOTH",
"639 157 OFFCURVE",
"544 42 OFFCURVE",
"381 42 CURVE SMOOTH",
"218 42 OFFCURVE",
"123 158 OFFCURVE",
"123 357 CURVE SMOOTH"
);
}
);
width = 763;
},
{
anchors = (
{
name = top;
position = "{398, 712}";
}
);
background = {
anchors = (
{
name = top;
position = "{398, 712}";
}
);
};
layerId = "E1B555A7-F4E1-459C-9C1A-AE952106EEF9";
paths = (
{
closed = 1;
nodes = (
"662 49 OFFCURVE",
"747 177 OFFCURVE",
"747 357 CURVE SMOOTH",
"747 580 OFFCURVE",
"614 721 OFFCURVE",
"399 721 CURVE SMOOTH",
"184 721 OFFCURVE",
"49 580 OFFCURVE",
"49 357 CURVE SMOOTH",
"49 126 OFFCURVE",
"192 -16 OFFCURVE",
"415 -9 CURVE",
"402 12 LINE",
"368 -11 OFFCURVE",
"348 -48 OFFCURVE",
"348 -88 CURVE SMOOTH",
"348 -153 OFFCURVE",
"402 -199 OFFCURVE",
"478 -199 CURVE SMOOTH",
"514 -199 OFFCURVE",
"549 -192 OFFCURVE",
"580 -179 CURVE",
"563 -106 LINE",
"543 -114 OFFCURVE",
"525 -118 OFFCURVE",
"508 -118 CURVE SMOOTH",
"470 -118 OFFCURVE",
"448 -100 OFFCURVE",
"448 -65 CURVE SMOOTH",
"448 -31 OFFCURVE",
"470 -8 OFFCURVE",
"512 5 CURVE SMOOTH"
);
},
{
closed = 1;
nodes = (
"212 515 OFFCURVE",
"284 595 OFFCURVE",
"399 595 CURVE SMOOTH",
"514 595 OFFCURVE",
"586 514 OFFCURVE",
"586 357 CURVE SMOOTH",
"586 199 OFFCURVE",
"514 117 OFFCURVE",
"399 117 CURVE SMOOTH",
"284 117 OFFCURVE",
"212 198 OFFCURVE",
"212 357 CURVE SMOOTH"
);
}
);
width = 797;
}
);
leftKerningGroup = O;
rightKerningGroup = O;
unicode = 01EA;
},
{
glyphname = Oslash;
lastChange = "2016-09-21 14:51:45 +0000";
layers = (
{
anchors = (
{
name = bottom;
position = "{381, 0}";
},
{
name = top;
position = "{381, 712}";
}
);
background = {
anchors = (
{
name = bottom;
position = "{381, 0}";
},
{
name = top;
position = "{381, 712}";
}
);
paths = (
{
closed = 1;
nodes = (
"757 515 OFFCURVE",
"692 630 OFFCURVE",
"575 689 CURVE",
"604 764 LINE",
"545 764 LINE",
"524 709 LINE",
"491 719 OFFCURVE",
"455 724 OFFCURVE",
"415 724 CURVE SMOOTH",
"305 724 OFFCURVE",
"218 686 OFFCURVE",
"158 620 CURVE SMOOTH",
"98 555 OFFCURVE",
"65 462 OFFCURVE",
"65 355 CURVE SMOOTH",
"65 191 OFFCURVE",
"134 73 OFFCURVE",
"259 18 CURVE",
"229 -62 LINE",
"285 -62 LINE",
"309 0 LINE",
"340 -7 OFFCURVE",
"374 -11 OFFCURVE",
"409 -11 CURVE SMOOTH",
"518 -11 OFFCURVE",
"605 27 OFFCURVE",
"665 92 CURVE SMOOTH",
"725 157 OFFCURVE",
"757 249 OFFCURVE",
"757 356 CURVE SMOOTH"
);
},
{
closed = 1;
nodes = (
"132 437 OFFCURVE",
"156 516 OFFCURVE",
"203 574 CURVE SMOOTH",
"250 631 OFFCURVE",
"319 668 OFFCURVE",
"411 668 CURVE SMOOTH",
"445 668 OFFCURVE",
"476 664 OFFCURVE",
"503 655 CURVE",
"281 74 LINE",
"232 100 OFFCURVE",
"195 139 OFFCURVE",
"170 187 CURVE SMOOTH",
"145 234 OFFCURVE",
"132 292 OFFCURVE",
"132 354 CURVE SMOOTH"
);
},
{
closed = 1;
nodes = (
"382 44 OFFCURVE",
"355 48 OFFCURVE",
"330 54 CURVE",
"553 632 LINE",
"645 577 OFFCURVE",
"687 480 OFFCURVE",
"687 359 CURVE SMOOTH",
"687 269 OFFCURVE",
"664 191 OFFCURVE",
"617 135 CURVE SMOOTH",
"571 78 OFFCURVE",
"501 44 OFFCURVE",
"410 44 CURVE SMOOTH"
);
}
);
};
layerId = "9E718F8A-2CEA-4931-B05D-987794BD97DA";
paths = (
{
closed = 1;
nodes = (
"576 -8 OFFCURVE",
"697 131 OFFCURVE",
"697 357 CURVE SMOOTH",
"697 582 OFFCURVE",
"577 720 OFFCURVE",
"381 720 CURVE SMOOTH",
"185 720 OFFCURVE",
"66 582 OFFCURVE",
"66 356 CURVE SMOOTH",
"66 131 OFFCURVE",
"187 -8 OFFCURVE",
"381 -8 CURVE SMOOTH"
);
},
{
closed = 1;
nodes = (
"625 728 LINE",
"585 751 LINE",
"137 -16 LINE",
"178 -39 LINE"
);
},
{
closed = 1;
nodes = (
"218 42 OFFCURVE",
"123 158 OFFCURVE",
"123 357 CURVE SMOOTH",
"123 556 OFFCURVE",
"218 670 OFFCURVE",
"381 670 CURVE SMOOTH",
"545 670 OFFCURVE",
"639 557 OFFCURVE",
"639 357 CURVE SMOOTH",
"639 157 OFFCURVE",
"544 42 OFFCURVE",
"381 42 CURVE SMOOTH"
);
}
);
width = 763;
},
{
anchors = (
{
name = bottom;
position = "{399, 0}";
},
{
name = top;
position = "{398, 712}";
}
);
background = {
components = (
{
name = O;
}
);
paths = (
{
closed = 1;
nodes = (
"213 -62 LINE",
"168 -36 LINE",
"593 769 LINE",
"639 743 LINE"
);
}
);
};
layerId = "E1B555A7-F4E1-459C-9C1A-AE952106EEF9";
paths = (
{
closed = 1;
nodes = (
"614 -9 OFFCURVE",
"747 133 OFFCURVE",
"747 357 CURVE SMOOTH",
"747 580 OFFCURVE",
"614 721 OFFCURVE",
"399 721 CURVE SMOOTH",
"184 721 OFFCURVE",
"49 580 OFFCURVE",
"49 357 CURVE SMOOTH",
"49 133 OFFCURVE",
"184 -9 OFFCURVE",
"399 -9 CURVE SMOOTH"
);
},
{
closed = 1;
nodes = (
"680 720 LINE",
"577 782 LINE",
"117 -8 LINE",
"220 -70 LINE"
);
},
{
closed = 1;
nodes = (
"284 117 OFFCURVE",
"212 198 OFFCURVE",
"212 357 CURVE SMOOTH",
"212 515 OFFCURVE",
"284 595 OFFCURVE",
"399 595 CURVE SMOOTH",
"514 595 OFFCURVE",
"586 514 OFFCURVE",
"586 357 CURVE SMOOTH",
"586 199 OFFCURVE",
"514 117 OFFCURVE",
"399 117 CURVE SMOOTH"
);
}
);
width = 797;
}
);
leftKerningGroup = O;
rightKerningGroup = O;
unicode = 00D8;
userData = {
com.typemytype.robofont.layerData = {
b = {
anchors = (
);
components = (
);
contours = (
);
lib = {
};
name = Oslash;
unicodes = (
);
width = 1597;
};
};
};
},
{
glyphname = OE;
lastChange = "2016-09-21 14:51:45 +0000";
layers = (
{
anchors = (
{
name = bottom;
position = "{537, 0}";
},
{
name = top;
position = "{536, 712}";
}
);
background = {
paths = (
{
closed = 1;
nodes = (
"61 288 OFFCURVE",
"71 225 OFFCURVE",
"92 171 CURVE SMOOTH",
"113 116 OFFCURVE",
"146 71 OFFCURVE",
"188 39 CURVE SMOOTH",
"231 7 OFFCURVE",
"286 -11 OFFCURVE",
"353 -11 CURVE SMOOTH",
"416 -11 OFFCURVE",
"464 -2 OFFCURVE",
"501 11 CURVE SMOOTH",
"538 23 OFFCURVE",
"563 40 OFFCURVE",
"580 54 CURVE",
"581 0 LINE",
"976 0 LINE",
"976 56 LINE",
"645 56 LINE",
"645 337 LINE",
"943 337 LINE",
"943 393 LINE",
"645 393 LINE",
"645 655 LINE",
"961 655 LINE",
"961 711 LINE",
"588 710 LINE",
"588 699 OFFCURVE",
"585 687 OFFCURVE",
"583 676 CURVE",
"529 713 OFFCURVE",
"471 724 OFFCURVE",
"404 724 CURVE SMOOTH",
"297 724 OFFCURVE",
"212 686 OFFCURVE",
"153 621 CURVE SMOOTH",
"94 555 OFFCURVE",
"61 463 OFFCURVE",
"61 355 CURVE SMOOTH"
);
},
{
closed = 1;
nodes = (
"576 105 LINE",
"504 60 OFFCURVE",
"434 37 OFFCURVE",
"368 37 CURVE SMOOTH",
"300 37 OFFCURVE",
"240 62 OFFCURVE",
"197 114 CURVE SMOOTH",
"154 167 OFFCURVE",
"128 246 OFFCURVE",
"128 354 CURVE SMOOTH",
"128 437 OFFCURVE",
"151 515 OFFCURVE",
"198 573 CURVE SMOOTH",
"244 631 OFFCURVE",
"313 668 OFFCURVE",
"404 668 CURVE SMOOTH",
"445 668 OFFCURVE",
"479 664 OFFCURVE",
"508 658 CURVE SMOOTH",
"538 651 OFFCURVE",
"561 643 OFFCURVE",
"580 636 CURVE",
"580 507 LINE"
);
}
);
};
layerId = "9E718F8A-2CEA-4931-B05D-987794BD97DA";
paths = (
{
closed = 1;
nodes = (
"1002 0 LINE",
"1002 48 LINE",
"621 48 LINE",
"621 337 LINE",
"982 337 LINE",
"982 386 LINE",
"621 386 LINE",
"621 664 LINE",
"1002 664 LINE",
"1002 712 LINE",
"568 712 LINE",
"568 645 LINE",
"567 629 LINE",
"567 86 LINE",
"568 67 LINE",
"568 0 LINE"
);
},
{
closed = 1;
nodes = (
"584 651 LINE",
"530 697 OFFCURVE",
"462 720 OFFCURVE",
"381 720 CURVE SMOOTH",
"185 720 OFFCURVE",
"66 582 OFFCURVE",
"66 356 CURVE SMOOTH",
"66 131 OFFCURVE",
"187 -8 OFFCURVE",
"381 -8 CURVE SMOOTH",
"463 -8 OFFCURVE",
"530 15 OFFCURVE",
"584 62 CURVE",
"584 125 LINE",
"538 71 OFFCURVE",
"469 42 OFFCURVE",
"381 42 CURVE SMOOTH",
"218 42 OFFCURVE",
"123 158 OFFCURVE",
"123 357 CURVE SMOOTH",
"123 554 OFFCURVE",
"217 670 OFFCURVE",
"381 670 CURVE SMOOTH",
"469 670 OFFCURVE",
"538 641 OFFCURVE",
"584 588 CURVE"
);
}
);
width = 1057;
},
{
anchors = (
{
name = bottom;
position = "{534, 0}";
},
{
name = top;
position = "{534, 712}";
}
);
background = {
anchors = (
{
name = bottom;
position = "{534, 0}";
},
{
name = top;
position = "{534, 712}";
}
);
paths = (
{
closed = 1;
nodes = (
"1640 19 OFFCURVE",
"1586 -9 OFFCURVE",
"1508 -11 CURVE SMOOTH",
"1296 -16 OFFCURVE",
"1164 125 OFFCURVE",
"1164 360 CURVE SMOOTH",
"1164 579 OFFCURVE",
"1301 733 OFFCURVE",
"1508 731 CURVE",
"1591 731 OFFCURVE",
"1646 704 OFFCURVE",
"1669 683 CURVE",
"1669 718 LINE",
"2068 718 LINE",
"2068 637 LINE",
"1762 637 LINE",
"1762 408 LINE",
"2049 408 LINE",
"2049 327 LINE",
"1763 327 LINE",
"1763 81 LINE",
"2083 81 LINE",
"2083 0 LINE",
"1669 0 LINE",
"1669 46 LINE"
);
},
{
closed = 1;
nodes = (
"1266 189 OFFCURVE",
"1349 64 OFFCURVE",
"1512 68 CURVE SMOOTH",
"1594 70 OFFCURVE",
"1641 99 OFFCURVE",
"1669 129 CURVE",
"1669 598 LINE",
"1640 626 OFFCURVE",
"1589 652 OFFCURVE",
"1508 650 CURVE",
"1354 647 OFFCURVE",
"1266 524 OFFCURVE",
"1266 358 CURVE SMOOTH"
);
},
{
closed = 1;
nodes = (
"614 -9 OFFCURVE",
"747 133 OFFCURVE",
"747 357 CURVE SMOOTH",
"747 580 OFFCURVE",
"614 721 OFFCURVE",
"399 721 CURVE SMOOTH",
"184 721 OFFCURVE",
"49 580 OFFCURVE",
"49 357 CURVE SMOOTH",
"49 133 OFFCURVE",
"184 -9 OFFCURVE",
"399 -9 CURVE SMOOTH"
);
},
{
closed = 1;
nodes = (
"284 117 OFFCURVE",
"212 198 OFFCURVE",
"212 357 CURVE SMOOTH",
"212 515 OFFCURVE",
"284 595 OFFCURVE",
"399 595 CURVE SMOOTH",
"514 595 OFFCURVE",
"586 514 OFFCURVE",
"586 357 CURVE SMOOTH",
"586 199 OFFCURVE",
"514 117 OFFCURVE",
"399 117 CURVE SMOOTH"
);
},
{
closed = 1;
nodes = (
"1018 0 LINE",
"1018 126 LINE",
"683 126 LINE",
"683 299 LINE",
"998 299 LINE",
"998 425 LINE",
"683 425 LINE",
"683 586 LINE",
"1018 586 LINE",
"1018 712 LINE",
"524 712 LINE",
"524 0 LINE"
);
}
);
};
layerId = "E1B555A7-F4E1-459C-9C1A-AE952106EEF9";
paths = (
{
closed = 1;
nodes = (
"1018 0 LINE",
"1018 126 LINE",
"683 126 LINE",
"683 299 LINE",
"998 299 LINE",
"998 425 LINE",
"683 425 LINE",
"683 586 LINE",
"1018 586 LINE",
"1018 712 LINE",
"534 712 LINE",
"534 632 LINE",
"524 613 LINE",
"524 111 LINE",
"534 77 LINE",
"534 0 LINE"
);
},
{
closed = 1;
nodes = (
"559 654 LINE",
"523 698 OFFCURVE",
"461 721 OFFCURVE",
"379 721 CURVE SMOOTH",
"185 721 OFFCURVE",
"49 571 OFFCURVE",
"49 357 CURVE SMOOTH",
"49 141 OFFCURVE",
"185 -9 OFFCURVE",
"379 -9 CURVE SMOOTH",
"462 -9 OFFCURVE",
"523 15 OFFCURVE",
"559 61 CURVE",
"559 185 LINE",
"528 140 OFFCURVE",
"473 117 OFFCURVE",
"399 117 CURVE SMOOTH",
"280 117 OFFCURVE",
"212 203 OFFCURVE",
"212 357 CURVE SMOOTH",
"212 509 OFFCURVE",
"279 595 OFFCURVE",
"399 595 CURVE SMOOTH",
"473 595 OFFCURVE",
"528 572 OFFCURVE",
"559 527 CURVE"
);
}
);
width = 1054;
}
);
leftKerningGroup = O;
rightKerningGroup = E;
unicode = 0152;
},
{
glyphname = P;
lastChange = "2016-09-21 14:51:45 +0000";
layers = (
{
anchors = (
{
name = bottom;
position = "{321, 0}";
},
{
name = top;
position = "{321, 712}";
}
);
background = {
anchors = (
{
name = bottom;
position = "{321, 0}";
},
{
name = top;
position = "{321, 712}";
}
);
paths = (
{
closed = 1;
nodes = (
"294 294 LINE SMOOTH",
"372 294 OFFCURVE",
"444 310 OFFCURVE",
"498 344 CURVE SMOOTH",
"550 377 OFFCURVE",
"584 429 OFFCURVE",
"584 502 CURVE SMOOTH",
"584 559 OFFCURVE",
"568 601 OFFCURVE",
"540 632 CURVE SMOOTH",
"511 663 OFFCURVE",
"471 683 OFFCURVE",
"424 695 CURVE SMOOTH",
"377 707 OFFCURVE",
"324 711 OFFCURVE",
"270 711 CURVE SMOOTH",
"109 711 LINE",
"109 0 LINE",
"171 0 LINE",
"174 294 LINE"
);
},
{
closed = 1;
nodes = (
"291 655 LINE SMOOTH",
"358 655 OFFCURVE",
"415 647 OFFCURVE",
"455 625 CURVE SMOOTH",
"495 601 OFFCURVE",
"518 563 OFFCURVE",
"518 500 CURVE SMOOTH",
"518 448 OFFCURVE",
"496 411 OFFCURVE",
"461 386 CURVE SMOOTH",
"425 361 OFFCURVE",
"375 350 OFFCURVE",
"316 350 CURVE SMOOTH",
"174 350 LINE",
"174 655 LINE"
);
}
);
};
layerId = "9E718F8A-2CEA-4931-B05D-987794BD97DA";
paths = (
{
closed = 1;
nodes = (
"148 0 LINE",
"148 322 LINE",
"364 322 LINE SMOOTH",
"505 322 OFFCURVE",
"591 397 OFFCURVE",
"591 518 CURVE SMOOTH",
"591 639 OFFCURVE",
"506 712 OFFCURVE",
"364 712 CURVE SMOOTH",
"94 712 LINE",
"94 0 LINE"
);
},
{
closed = 1;
nodes = (
"148 664 LINE",
"361 664 LINE SMOOTH",
"476 664 OFFCURVE",
"535 611 OFFCURVE",
"535 518 CURVE SMOOTH",
"535 425 OFFCURVE",
"476 371 OFFCURVE",
"361 371 CURVE SMOOTH",
"148 371 LINE"
);
}
);
width = 642;
},
{
anchors = (
{
name = bottom;
position = "{341, 0}";
},
{
name = top;
position = "{340, 712}";
}
);
background = {
anchors = (
{
name = bottom;
position = "{341, 0}";
},
{
name = top;
position = "{340, 712}";
}
);
paths = (
{
closed = 1;
nodes = (
"93 0 LINE",
"93 718 LINE",
"298 718 LINE SMOOTH",
"467 718 OFFCURVE",
"581 688 OFFCURVE",
"581 522 CURVE SMOOTH",
"581 372 OFFCURVE",
"475 326 OFFCURVE",
"320 326 CURVE SMOOTH",
"187 326 LINE",
"187 0 LINE"
);
},
{
closed = 1;
nodes = (
"187 407 LINE",
"319 407 LINE SMOOTH",
"423 407 OFFCURVE",
"485 428 OFFCURVE",
"485 521 CURVE SMOOTH",
"485 621 OFFCURVE",
"420 636 OFFCURVE",
"301 636 CURVE SMOOTH",
"187 636 LINE"
);
},
{
closed = 1;
nodes = (
"232 0 LINE",
"232 266 LINE",
"400 266 LINE SMOOTH",
"554 266 OFFCURVE",
"646 349 OFFCURVE",
"646 489 CURVE SMOOTH",
"646 629 OFFCURVE",
"556 712 OFFCURVE",
"400 712 CURVE SMOOTH",
"70 712 LINE",
"70 0 LINE"
);
},
{
closed = 1;
nodes = (
"232 588 LINE",
"379 588 LINE SMOOTH",
"457 588 OFFCURVE",
"494 556 OFFCURVE",
"494 488 CURVE SMOOTH",
"494 421 OFFCURVE",
"456 389 OFFCURVE",
"379 389 CURVE SMOOTH",
"232 389 LINE"
);
}
);
};
layerId = "E1B555A7-F4E1-459C-9C1A-AE952106EEF9";
paths = (
{
closed = 1;
nodes = (
"232 0 LINE",
"232 286 LINE",
"396 286 LINE SMOOTH",
"554 286 OFFCURVE",
"646 370 OFFCURVE",
"646 499 CURVE SMOOTH",
"646 629 OFFCURVE",
"556 712 OFFCURVE",
"396 712 CURVE SMOOTH",
"70 712 LINE",
"70 0 LINE"
);
},
{
closed = 1;
nodes = (
"232 588 LINE",
"375 588 LINE SMOOTH",
"457 588 OFFCURVE",
"494 556 OFFCURVE",
"494 498 CURVE SMOOTH",
"494 441 OFFCURVE",
"456 409 OFFCURVE",
"375 409 CURVE SMOOTH",
"232 409 LINE"
);
}
);
width = 677;
}
);
leftKerningGroup = H;
rightKerningGroup = P;
unicode = 0050;
userData = {
anchors = (
);
b = {
};
com.typemytype.robofont.layerData = {
b = {
anchors = (
);
components = (
);
contours = (
{
points = (
{
segmentType = curve;
smooth = 1;
x = 266;
y = 0;
},
{
segmentType = line;
smooth = 1;
x = 1035;
y = 0;
},
{
smooth = 0;
x = 1084;
y = 0;
},
{
smooth = 0;
x = 1108;
y = 34;
},
{
segmentType = curve;
smooth = 1;
x = 1108;
y = 71;
},
{
smooth = 0;
x = 1108;
y = 107;
},
{
smooth = 0;
x = 1084;
y = 141;
},
{
segmentType = curve;
smooth = 1;
x = 1035;
y = 141;
},
{
segmentType = line;
smooth = 0;
x = 356;
y = 141;
},
{
segmentType = line;
smooth = 0;
x = 356;
y = 665;
},
{
segmentType = line;
smooth = 1;
x = 975;
y = 665;
},
{
smooth = 0;
x = 1024;
y = 665;
},
{
smooth = 0;
x = 1049;
y = 698;
},
{
segmentType = curve;
smooth = 1;
x = 1049;
y = 734;
},
{
smooth = 0;
x = 1049;
y = 770;
},
{
smooth = 0;
x = 1026;
y = 803;
},
{
segmentType = curve;
smooth = 1;
x = 975;
y = 803;
},
{
segmentType = line;
smooth = 0;
x = 356;
y = 803;
},
{
segmentType = line;
smooth = 0;
x = 356;
y = 1285;
},
{
segmentType = line;
smooth = 1;
x = 1007;
y = 1285;
},
{
smooth = 0;
x = 1056;
y = 1285;
},
{
smooth = 0;
x = 1080;
y = 1319;
},
{
segmentType = curve;
smooth = 1;
x = 1080;
y = 1356;
},
{
smooth = 0;
x = 1080;
y = 1392;
},
{
smooth = 0;
x = 1056;
y = 1426;
},
{
segmentType = curve;
smooth = 1;
x = 1007;
y = 1426;
},
{
segmentType = line;
smooth = 1;
x = 261;
y = 1426;
},
{
smooth = 0;
x = 213;
y = 1426;
},
{
smooth = 0;
x = 178;
y = 1383;
},
{
segmentType = curve;
smooth = 1;
x = 178;
y = 1340;
},
{
segmentType = line;
smooth = 1;
x = 178;
y = 86;
},
{
smooth = 0;
x = 178;
y = 41;
},
{
smooth = 0;
x = 222;
y = 0;
}
);
}
);
lib = {
};
name = P;
unicodes = (
);
width = 1201;
};
};
components = (
);
contours = (
);
lib = {
};
name = P;
unicodes = (
);
width = 1319;
};
},
{
glyphname = Thorn;
lastChange = "2016-09-21 14:51:45 +0000";
layers = (
{
anchors = (
{
name = bottom;
position = "{321, 0}";
},
{
name = top;
position = "{321, 712}";
}
);
background = {
anchors = (
{
name = bottom;
position = "{321, 0}";
},
{
name = top;
position = "{321, 712}";
}
);
paths = (
{
closed = 1;
nodes = (
"294 188 LINE SMOOTH",
"372 188 OFFCURVE",
"445 203 OFFCURVE",
"498 237 CURVE SMOOTH",
"551 270 OFFCURVE",
"585 322 OFFCURVE",
"585 396 CURVE SMOOTH",
"585 452 OFFCURVE",
"568 494 OFFCURVE",
"540 525 CURVE SMOOTH",
"512 556 OFFCURVE",
"472 576 OFFCURVE",
"425 588 CURVE SMOOTH",
"378 600 OFFCURVE",
"325 604 OFFCURVE",
"270 604 CURVE SMOOTH",
"173 604 LINE",
"173 711 LINE",
"109 711 LINE",
"109 0 LINE",
"171 0 LINE",
"174 188 LINE"
);
},
{
closed = 1;
nodes = (
"292 548 LINE SMOOTH",
"358 548 OFFCURVE",
"416 541 OFFCURVE",
"456 518 CURVE SMOOTH",
"495 494 OFFCURVE",
"519 456 OFFCURVE",
"519 394 CURVE SMOOTH",
"519 341 OFFCURVE",
"497 304 OFFCURVE",
"461 279 CURVE SMOOTH",
"426 254 OFFCURVE",
"375 243 OFFCURVE",
"316 243 CURVE SMOOTH",
"174 243 LINE",
"174 548 LINE"
);
}
);
};
layerId = "9E718F8A-2CEA-4931-B05D-987794BD97DA";
paths = (
{
closed = 1;
nodes = (
"369 174 LINE SMOOTH",
"509 174 OFFCURVE",
"591 243 OFFCURVE",
"591 364 CURVE SMOOTH",
"591 483 OFFCURVE",
"511 550 OFFCURVE",
"369 550 CURVE SMOOTH",
"137 550 LINE",
"137 502 LINE",
"366 502 LINE SMOOTH",
"481 502 OFFCURVE",
"535 458 OFFCURVE",
"535 364 CURVE SMOOTH",
"535 269 OFFCURVE",
"480 222 OFFCURVE",
"366 222 CURVE SMOOTH",
"137 222 LINE",
"137 174 LINE"
);
},
{
closed = 1;
nodes = (
"148 0 LINE",
"148 712 LINE",
"94 712 LINE",
"94 0 LINE"
);
}
);
width = 642;
},
{
anchors = (
{
name = bottom;
position = "{341, 0}";
},
{
name = top;
position = "{340, 712}";
}
);
background = {
anchors = (
{
name = bottom;
position = "{341, 0}";
},
{
name = top;
position = "{340, 712}";
}
);
paths = (
{
closed = 1;
nodes = (
"99 0 LINE",
"99 718 LINE",
"193 718 LINE",
"193 600 LINE",
"290 600 LINE SMOOTH",
"458 600 OFFCURVE",
"594 563 OFFCURVE",
"594 384 CURVE SMOOTH",
"594 232 OFFCURVE",
"469 169 OFFCURVE",
"312 169 CURVE SMOOTH",
"193 169 LINE",
"193 0 LINE"
);
},
{
closed = 1;
nodes = (
"193 250 LINE",
"320 250 LINE SMOOTH",
"423 250 OFFCURVE",
"493 290 OFFCURVE",
"493 383 CURVE SMOOTH",
"493 493 OFFCURVE",
"416 519 OFFCURVE",
"296 519 CURVE SMOOTH",
"193 519 LINE"
);
}
);
};
layerId = "E1B555A7-F4E1-459C-9C1A-AE952106EEF9";
paths = (
{
closed = 1;
nodes = (
"401 154 LINE SMOOTH",
"553 154 OFFCURVE",
"646 232 OFFCURVE",
"646 362 CURVE SMOOTH",
"646 492 OFFCURVE",
"556 570 OFFCURVE",
"401 570 CURVE SMOOTH",
"209 570 LINE",
"209 445 LINE",
"374 445 LINE SMOOTH",
"457 445 OFFCURVE",
"494 420 OFFCURVE",
"494 362 CURVE SMOOTH",
"494 303 OFFCURVE",
"457 278 OFFCURVE",
"374 278 CURVE SMOOTH",
"209 278 LINE",
"209 154 LINE"
);
},
{
closed = 1;
nodes = (
"229 0 LINE",
"229 712 LINE",
"70 712 LINE",
"70 0 LINE"
);
}
);
width = 678;
}
);
leftKerningGroup = H;
rightKerningGroup = THORN;
unicode = 00DE;
},
{
glyphname = Q;
lastChange = "2016-09-21 14:51:45 +0000";
layers = (
{
anchors = (
{
name = bottom;
position = "{381, 0}";
},
{
name = center;
position = "{382, 357}";
},
{
name = ogonek;
position = "{487, 10}";
},
{
name = top;
position = "{381, 712}";
},
{
name = topleft;
position = "{26, 712}";
},
{
name = topright;
position = "{411, 712}";
}
);
background = {
paths = (
{
closed = 1;
nodes = (
"132 409 OFFCURVE",
"143 462 OFFCURVE",
"164 509 CURVE SMOOTH",
"185 556 OFFCURVE",
"216 596 OFFCURVE",
"258 624 CURVE SMOOTH",
"299 651 OFFCURVE",
"350 668 OFFCURVE",
"411 668 CURVE SMOOTH",
"502 668 OFFCURVE",
"572 634 OFFCURVE",
"618 579 CURVE SMOOTH",
"664 523 OFFCURVE",
"687 445 OFFCURVE",
"687 359 CURVE SMOOTH",
"687 269 OFFCURVE",
"664 191 OFFCURVE",
"617 135 CURVE SMOOTH",
"571 78 OFFCURVE",
"501 44 OFFCURVE",
"410 44 CURVE SMOOTH",
"318 44 OFFCURVE",
"249 79 OFFCURVE",
"203 135 CURVE SMOOTH",
"156 191 OFFCURVE",
"132 268 OFFCURVE",
"132 354 CURVE SMOOTH"
);
},
{
closed = 1;
nodes = (
"767 -38 OFFCURVE",
"741 -40 OFFCURVE",
"711 -40 CURVE SMOOTH",
"681 -40 OFFCURVE",
"635 -39 OFFCURVE",
"591 -35 CURVE SMOOTH",
"546 -31 OFFCURVE",
"503 -22 OFFCURVE",
"479 -5 CURVE",
"570 7 OFFCURVE",
"640 53 OFFCURVE",
"687 119 CURVE SMOOTH",
"733 185 OFFCURVE",
"756 271 OFFCURVE",
"756 362 CURVE SMOOTH",
"756 469 OFFCURVE",
"724 560 OFFCURVE",
"665 624 CURVE SMOOTH",
"606 688 OFFCURVE",
"521 724 OFFCURVE",
"416 724 CURVE SMOOTH",
"308 724 OFFCURVE",
"222 687 OFFCURVE",
"162 624 CURVE SMOOTH",
"101 560 OFFCURVE",
"68 470 OFFCURVE",
"68 365 CURVE SMOOTH",
"68 250 OFFCURVE",
"103 156 OFFCURVE",
"164 92 CURVE SMOOTH",
"224 27 OFFCURVE",
"311 -9 OFFCURVE",
"415 -9 CURVE",
"425 -17 OFFCURVE",
"435 -25 OFFCURVE",
"444 -33 CURVE SMOOTH",
"453 -40 OFFCURVE",
"462 -47 OFFCURVE",
"472 -54 CURVE SMOOTH",
"492 -67 OFFCURVE",
"516 -78 OFFCURVE",
"553 -85 CURVE SMOOTH",
"590 -93 OFFCURVE",
"640 -97 OFFCURVE",
"712 -97 CURVE SMOOTH",
"737 -97 OFFCURVE",
"766 -95 OFFCURVE",
"784 -92 CURVE",
"784 -35 LINE"
);
}
);
};
layerId = "9E718F8A-2CEA-4931-B05D-987794BD97DA";
paths = (
{
closed = 1;
nodes = (
"611 -149 LINE",
"560 -106 OFFCURVE",
"514 -55 OFFCURVE",
"478 12 CURVE",
"420 -4 LINE",
"461 -75 OFFCURVE",
"520 -150 OFFCURVE",
"573 -191 CURVE"
);
},
{
closed = 1;
nodes = (
"576 -8 OFFCURVE",
"697 131 OFFCURVE",
"697 357 CURVE SMOOTH",
"697 582 OFFCURVE",
"577 720 OFFCURVE",
"381 720 CURVE SMOOTH",
"185 720 OFFCURVE",
"66 582 OFFCURVE",
"66 356 CURVE SMOOTH",
"66 131 OFFCURVE",
"187 -8 OFFCURVE",
"381 -8 CURVE SMOOTH"
);
},
{
closed = 1;
nodes = (
"218 42 OFFCURVE",
"123 158 OFFCURVE",
"123 357 CURVE SMOOTH",
"123 556 OFFCURVE",
"218 670 OFFCURVE",
"381 670 CURVE SMOOTH",
"545 670 OFFCURVE",
"639 557 OFFCURVE",
"639 357 CURVE SMOOTH",
"639 157 OFFCURVE",
"544 42 OFFCURVE",
"381 42 CURVE SMOOTH"
);
}
);
width = 763;
},
{
anchors = (
{
name = bottom;
position = "{399, 0}";
},
{
name = center;
position = "{399, 357}";
},
{
name = ogonek;
position = "{518, 10}";
},
{
name = top;
position = "{398, 712}";
},
{
name = topleft;
position = "{22, 712}";
},
{
name = topright;
position = "{429, 712}";
}
);
background = {
anchors = (
{
name = bottom;
position = "{399, 0}";
},
{
name = top;
position = "{398, 712}";
}
);
components = (
{
name = O;
}
);
paths = (
{
closed = 1;
nodes = (
"603 -211 LINE",
"603 -211 OFFCURVE",
"505 -118 OFFCURVE",
"449 -4 CURVE",
"537 12 LINE",
"581 -76 OFFCURVE",
"662 -149 OFFCURVE",
"662 -149 CURVE"
);
},
{
closed = 1;
nodes = (
"729 -159 LINE",
"652 -34 LINE SMOOTH",
"621 17 OFFCURVE",
"583 37 OFFCURVE",
"521 37 CURVE",
"537 16 LINE",
"672 65 OFFCURVE",
"747 188 OFFCURVE",
"747 357 CURVE SMOOTH",
"747 580 OFFCURVE",
"614 721 OFFCURVE",
"399 721 CURVE SMOOTH",
"184 721 OFFCURVE",
"49 580 OFFCURVE",
"49 357 CURVE SMOOTH",
"49 133 OFFCURVE",
"184 -9 OFFCURVE",
"399 -9 CURVE SMOOTH",
"440 -9 OFFCURVE",
"468 -22 OFFCURVE",
"484 -48 CURVE SMOOTH",
"591 -222 LINE"
);
},
{
closed = 1;
nodes = (
"284 117 OFFCURVE",
"212 198 OFFCURVE",
"212 357 CURVE SMOOTH",
"212 515 OFFCURVE",
"284 595 OFFCURVE",
"399 595 CURVE SMOOTH",
"514 595 OFFCURVE",
"586 514 OFFCURVE",
"586 357 CURVE SMOOTH",
"586 199 OFFCURVE",
"514 117 OFFCURVE",
"399 117 CURVE SMOOTH"
);
}
);
};
layerId = "E1B555A7-F4E1-459C-9C1A-AE952106EEF9";
paths = (
{
closed = 1;
nodes = (
"702 -109 LINE",
"650 -66 OFFCURVE",
"593 -14 OFFCURVE",
"561 53 CURVE",
"420 -4 LINE",
"461 -75 OFFCURVE",
"520 -142 OFFCURVE",
"593 -191 CURVE"
);
},
{
closed = 1;
nodes = (
"614 -9 OFFCURVE",
"747 133 OFFCURVE",
"747 357 CURVE SMOOTH",
"747 580 OFFCURVE",
"614 721 OFFCURVE",
"399 721 CURVE SMOOTH",
"184 721 OFFCURVE",
"49 580 OFFCURVE",
"49 357 CURVE SMOOTH",
"49 133 OFFCURVE",
"184 -9 OFFCURVE",
"399 -9 CURVE SMOOTH"
);
},
{
closed = 1;
nodes = (
"284 117 OFFCURVE",
"212 198 OFFCURVE",
"212 357 CURVE SMOOTH",
"212 515 OFFCURVE",
"284 595 OFFCURVE",
"399 595 CURVE SMOOTH",
"514 595 OFFCURVE",
"586 514 OFFCURVE",
"586 357 CURVE SMOOTH",
"586 199 OFFCURVE",
"514 117 OFFCURVE",
"399 117 CURVE SMOOTH"
);
}
);
width = 797;
}
);
leftKerningGroup = O;
rightKerningGroup = O;
unicode = 0051;
userData = {
anchors = (
);
b = {
};
com.typemytype.robofont.layerData = {
b = {
anchors = (
);
components = (
);
contours = (
);
lib = {
};
name = Q;
unicodes = (
);
width = 1597;
};
};
components = (
);
contours = (
);
lib = {
};
name = Q;
unicodes = (
);
width = 1604;
};
},
{
glyphname = R;
lastChange = "2016-09-21 14:51:45 +0000";
layers = (
{
anchors = (
{
name = bottom;
position = "{339, 0}";
},
{
name = top;
position = "{339, 712}";
}
);
background = {
anchors = (
{
name = bottom;
position = "{339, 0}";
},
{
name = top;
position = "{339, 712}";
}
);
paths = (
{
closed = 1;
nodes = (
"585 102 LINE SMOOTH",
"569 142 OFFCURVE",
"555 177 OFFCURVE",
"544 206 CURVE SMOOTH",
"533 234 OFFCURVE",
"522 259 OFFCURVE",
"511 278 CURVE SMOOTH",
"488 317 OFFCURVE",
"462 339 OFFCURVE",
"415 348 CURVE",
"415 349 OFFCURVE",
"415 349 OFFCURVE",
"415 349 CURVE",
"415 349 OFFCURVE",
"415 349 OFFCURVE",
"415 350 CURVE SMOOTH",
"415 350 OFFCURVE",
"415 352 OFFCURVE",
"416 354 CURVE",
"466 362 OFFCURVE",
"509 382 OFFCURVE",
"539 412 CURVE SMOOTH",
"568 441 OFFCURVE",
"585 481 OFFCURVE",
"585 529 CURVE SMOOTH",
"585 589 OFFCURVE",
"564 629 OFFCURVE",
"531 656 CURVE SMOOTH",
"498 683 OFFCURVE",
"454 696 OFFCURVE",
"409 704 CURVE SMOOTH",
"363 711 OFFCURVE",
"316 711 OFFCURVE",
"278 711 CURVE SMOOTH",
"111 711 LINE",
"111 0 LINE",
"174 0 LINE",
"174 326 LINE",
"320 326 LINE SMOOTH",
"369 326 OFFCURVE",
"400 319 OFFCURVE",
"424 300 CURVE SMOOTH",
"448 281 OFFCURVE",
"464 250 OFFCURVE",
"482 203 CURVE SMOOTH",
"556 0 LINE",
"624 0 LINE"
);
},
{
closed = 1;
nodes = (
"323 655 LINE SMOOTH",
"379 655 OFFCURVE",
"428 648 OFFCURVE",
"463 628 CURVE SMOOTH",
"498 608 OFFCURVE",
"518 575 OFFCURVE",
"518 520 CURVE SMOOTH",
"518 465 OFFCURVE",
"492 431 OFFCURVE",
"454 410 CURVE SMOOTH",
"417 389 OFFCURVE",
"367 382 OFFCURVE",
"319 382 CURVE SMOOTH",
"176 382 LINE",
"176 655 LINE"
);
}
);
};
layerId = "9E718F8A-2CEA-4931-B05D-987794BD97DA";
paths = (
{
closed = 1;
nodes = (
"148 0 LINE",
"148 320 LINE",
"355 320 LINE SMOOTH",
"429 320 OFFCURVE",
"468 306 OFFCURVE",
"493 237 CURVE SMOOTH",
"581 0 LINE",
"637 0 LINE",
"546 249 LINE SMOOTH",
"523 313 OFFCURVE",
"487 339 OFFCURVE",
"434 339 CURVE",
"364 326 LINE",
"511 326 OFFCURVE",
"597 397 OFFCURVE",
"597 518 CURVE SMOOTH",
"597 644 OFFCURVE",
"512 712 OFFCURVE",
"365 712 CURVE SMOOTH",
"94 712 LINE",
"94 0 LINE"
);
},
{
closed = 1;
nodes = (
"148 664 LINE",
"363 664 LINE SMOOTH",
"484 664 OFFCURVE",
"541 615 OFFCURVE",
"541 519 CURVE SMOOTH",
"541 420 OFFCURVE",
"482 369 OFFCURVE",
"363 369 CURVE SMOOTH",
"148 369 LINE"
);
}
);
width = 687;
},
{
anchors = (
{
name = bottom;
position = "{358, 0}";
},
{
name = top;
position = "{357, 712}";
}
);
background = {
anchors = (
{
name = bottom;
position = "{358, 0}";
},
{
name = top;
position = "{357, 712}";
}
);
paths = (
{
closed = 1;
nodes = (
"93 0 LINE",
"93 718 LINE",
"314 718 LINE SMOOTH",
"438 718 OFFCURVE",
"562 692 OFFCURVE",
"562 527 CURVE SMOOTH",
"562 440 OFFCURVE",
"522 375 OFFCURVE",
"427 351 CURVE",
"489 332 OFFCURVE",
"514 269 OFFCURVE",
"540 203 CURVE SMOOTH",
"623 0 LINE",
"521 0 LINE",
"441 208 LINE SMOOTH",
"409 293 OFFCURVE",
"390 317 OFFCURVE",
"308 317 CURVE SMOOTH",
"187 317 LINE",
"187 0 LINE"
);
},
{
closed = 1;
nodes = (
"187 397 LINE",
"311 397 LINE SMOOTH",
"396 397 OFFCURVE",
"462 423 OFFCURVE",
"462 519 CURVE SMOOTH",
"462 614 OFFCURVE",
"415 637 OFFCURVE",
"318 637 CURVE SMOOTH",
"187 637 LINE"
);
},
{
closed = 1;
nodes = (
"230 0 LINE",
"230 275 LINE",
"304 275 LINE SMOOTH",
"343 275 OFFCURVE",
"372 262 OFFCURVE",
"391 227 CURVE SMOOTH",
"514 0 LINE",
"692 0 LINE",
"577 209 LINE SMOOTH",
"545 266 OFFCURVE",
"504 293 OFFCURVE",
"444 293 CURVE",
"402 281 LINE",
"561 281 OFFCURVE",
"653 365 OFFCURVE",
"653 497 CURVE SMOOTH",
"653 636 OFFCURVE",
"568 712 OFFCURVE",
"399 712 CURVE SMOOTH",
"70 712 LINE",
"70 0 LINE"
);
},
{
closed = 1;
nodes = (
"228 588 LINE",
"375 588 LINE SMOOTH",
"464 588 OFFCURVE",
"501 560 OFFCURVE",
"501 493 CURVE SMOOTH",
"501 427 OFFCURVE",
"464 398 OFFCURVE",
"375 398 CURVE SMOOTH",
"228 398 LINE"
);
}
);
};
layerId = "E1B555A7-F4E1-459C-9C1A-AE952106EEF9";
paths = (
{
closed = 1;
nodes = (
"230 0 LINE",
"230 285 LINE",
"324 285 LINE SMOOTH",
"364 285 OFFCURVE",
"397 274 OFFCURVE",
"411 237 CURVE SMOOTH",
"502 0 LINE",
"674 0 LINE",
"589 219 LINE SMOOTH",
"566 279 OFFCURVE",
"524 308 OFFCURVE",
"475 308 CURVE",
"392 291 LINE",
"550 291 OFFCURVE",
"643 375 OFFCURVE",
"643 502 CURVE SMOOTH",
"643 636 OFFCURVE",
"558 712 OFFCURVE",
"389 712 CURVE SMOOTH",
"70 712 LINE",
"70 0 LINE"
);
},
{
closed = 1;
nodes = (
"228 588 LINE",
"365 588 LINE SMOOTH",
"453 588 OFFCURVE",
"491 560 OFFCURVE",
"491 498 CURVE SMOOTH",
"491 437 OFFCURVE",
"453 408 OFFCURVE",
"365 408 CURVE SMOOTH",
"228 408 LINE"
);
}
);
width = 709;
}
);
leftKerningGroup = H;
rightKerningGroup = R;
unicode = 0052;
userData = {
anchors = (
);
b = {
};
com.typemytype.robofont.guides = (
);
com.typemytype.robofont.layerData = {
b = {
anchors = (
);
components = (
);
contours = (
{
points = (
{
segmentType = curve;
smooth = 1;
x = 267;
y = 0;
},
{
smooth = 0;
x = 311;
y = 0;
},
{
smooth = 0;
x = 356;
y = 27;
},
{
segmentType = curve;
smooth = 1;
x = 356;
y = 84;
},
{
segmentType = line;
smooth = 0;
x = 356;
y = 628;
},
{
segmentType = line;
smooth = 1;
x = 669;
y = 628;
},
{
smooth = 0;
x = 962;
y = 628;
},
{
smooth = 0;
x = 1182;
y = 722;
},
{
segmentType = curve;
smooth = 1;
x = 1182;
y = 1026;
},
{
smooth = 0;
x = 1182;
y = 1324;
},
{
smooth = 0;
x = 993;
y = 1426;
},
{
segmentType = curve;
smooth = 1;
x = 684;
y = 1426;
},
{
segmentType = line;
smooth = 1;
x = 268;
y = 1426;
},
{
smooth = 0;
x = 217;
y = 1426;
},
{
smooth = 0;
x = 178;
y = 1387;
},
{
segmentType = curve;
smooth = 1;
x = 178;
y = 1339;
},
{
segmentType = line;
smooth = 1;
x = 178;
y = 84;
},
{
smooth = 0;
x = 178;
y = 28;
},
{
smooth = 0;
x = 222;
y = 0;
}
);
},
{
points = (
{
segmentType = line;
smooth = 0;
x = 356;
y = 764;
},
{
segmentType = line;
smooth = 0;
x = 356;
y = 1285;
},
{
segmentType = line;
smooth = 1;
x = 684;
y = 1285;
},
{
smooth = 0;
x = 914;
y = 1285;
},
{
smooth = 0;
x = 1008;
y = 1210;
},
{
segmentType = curve;
smooth = 1;
x = 1008;
y = 1026;
},
{
smooth = 0;
x = 1008;
y = 838;
},
{
smooth = 0;
x = 901;
y = 764;
},
{
segmentType = curve;
smooth = 1;
x = 670;
y = 764;
}
);
}
);
lib = {
};
name = R;
unicodes = (
);
width = 1363;
};
};
components = (
);
contours = (
);
lib = {
};
name = R;
unicodes = (
);
width = 1408;
};
},
{
glyphname = S;
lastChange = "2016-09-21 11:55:25 +0000";
layers = (
{
anchors = (
{
name = bottom;
position = "{310, 0}";
},
{
name = top;
position = "{305, 712}";
}
);
background = {
anchors = (
{
name = bottom;
position = "{310, 0}";
},
{
name = top;
position = "{305, 712}";
}
);
paths = (
{
closed = 1;
nodes = (
"124 20 OFFCURVE",
"198 -11 OFFCURVE",
"282 -11 CURVE SMOOTH",
"325 -11 OFFCURVE",
"369 -6 OFFCURVE",
"410 6 CURVE SMOOTH",
"450 19 OFFCURVE",
"485 38 OFFCURVE",
"511 65 CURVE SMOOTH",
"537 92 OFFCURVE",
"553 128 OFFCURVE",
"553 174 CURVE SMOOTH",
"553 233 OFFCURVE",
"528 274 OFFCURVE",
"490 306 CURVE SMOOTH",
"452 337 OFFCURVE",
"401 358 OFFCURVE",
"350 378 CURVE SMOOTH",
"299 398 OFFCURVE",
"249 417 OFFCURVE",
"211 442 CURVE SMOOTH",
"173 467 OFFCURVE",
"147 498 OFFCURVE",
"147 544 CURVE SMOOTH",
"147 588 OFFCURVE",
"171 619 OFFCURVE",
"207 639 CURVE SMOOTH",
"241 659 OFFCURVE",
"287 668 OFFCURVE",
"331 668 CURVE SMOOTH",
"389 668 OFFCURVE",
"450 653 OFFCURVE",
"495 614 CURVE",
"519 660 LINE",
"493 685 OFFCURVE",
"462 701 OFFCURVE",
"430 710 CURVE SMOOTH",
"397 720 OFFCURVE",
"363 724 OFFCURVE",
"332 724 CURVE SMOOTH",
"268 724 OFFCURVE",
"206 708 OFFCURVE",
"158 677 CURVE SMOOTH",
"111 646 OFFCURVE",
"80 600 OFFCURVE",
"80 539 CURVE SMOOTH",
"80 479 OFFCURVE",
"105 438 OFFCURVE",
"143 408 CURVE SMOOTH",
"181 378 OFFCURVE",
"231 357 OFFCURVE",
"282 339 CURVE SMOOTH",
"333 320 OFFCURVE",
"383 303 OFFCURVE",
"421 278 CURVE SMOOTH",
"459 253 OFFCURVE",
"484 221 OFFCURVE",
"484 173 CURVE SMOOTH",
"484 130 OFFCURVE",
"464 99 OFFCURVE",
"431 77 CURVE SMOOTH",
"397 56 OFFCURVE",
"349 44 OFFCURVE",
"293 44 CURVE SMOOTH",
"262 44 OFFCURVE",
"230 46 OFFCURVE",
"198 57 CURVE SMOOTH",
"166 67 OFFCURVE",
"133 86 OFFCURVE",
"101 122 CURVE",
"75 83 LINE"
);
}
);
};
layerId = "9E718F8A-2CEA-4931-B05D-987794BD97DA";
paths = (
{
closed = 1;
nodes = (
"464 -8 OFFCURVE",
"562 71 OFFCURVE",
"562 187 CURVE SMOOTH",
"562 328 OFFCURVE",
"416 348 OFFCURVE",
"292 379 CURVE SMOOTH",
"199 401 OFFCURVE",
"118 430 OFFCURVE",
"118 520 CURVE SMOOTH",
"118 614 OFFCURVE",
"190 670 OFFCURVE",
"313 670 CURVE SMOOTH",
"397 670 OFFCURVE",
"463 643 OFFCURVE",
"530 582 CURVE",
"554 626 LINE",
"494 688 OFFCURVE",
"410 720 OFFCURVE",
"313 720 CURVE SMOOTH",
"160 720 OFFCURVE",
"63 640 OFFCURVE",
"63 520 CURVE SMOOTH",
"63 378 OFFCURVE",
"197 348 OFFCURVE",
"317 320 CURVE SMOOTH",
"416 297 OFFCURVE",
"506 274 OFFCURVE",
"506 188 CURVE SMOOTH",
"506 95 OFFCURVE",
"435 42 OFFCURVE",
"312 42 CURVE SMOOTH",
"211 42 OFFCURVE",
"146 66 OFFCURVE",
"75 130 CURVE",
"51 86 LINE",
"118 21 OFFCURVE",
"201 -8 OFFCURVE",
"312 -8 CURVE SMOOTH"
);
}
);
width = 610;
},
{
anchors = (
{
name = bottom;
position = "{328, 0}";
},
{
name = top;
position = "{333, 712}";
}
);
background = {
anchors = (
{
name = bottom;
position = "{328, 0}";
},
{
name = top;
position = "{333, 712}";
}
);
paths = (
{
closed = 1;
nodes = (
"297 -11 CURVE SMOOTH",
"171 -11 OFFCURVE",
"82 49 OFFCURVE",
"63 70 CURVE",
"104 138 LINE",
"129 119 OFFCURVE",
"206 70 OFFCURVE",
"295 70 CURVE SMOOTH",
"392 70 OFFCURVE",
"443 111 OFFCURVE",
"443 185 CURVE SMOOTH",
"443 262 OFFCURVE",
"414 291 OFFCURVE",
"264 333 CURVE SMOOTH",
"136 371 OFFCURVE",
"61 423 OFFCURVE",
"61 541 CURVE SMOOTH",
"61 669 OFFCURVE",
"174 731 OFFCURVE",
"305 731 CURVE SMOOTH",
"438 731 OFFCURVE",
"499 680 OFFCURVE",
"523 657 CURVE",
"477 592 LINE",
"452 613 OFFCURVE",
"396 650 OFFCURVE",
"317 650 CURVE SMOOTH",
"231 650 OFFCURVE",
"161 618 OFFCURVE",
"161 544 CURVE SMOOTH",
"161 467 OFFCURVE",
"197 446 OFFCURVE",
"326 407 CURVE SMOOTH",
"494 358 OFFCURVE",
"541 298 OFFCURVE",
"541 186 CURVE SMOOTH",
"541 52 OFFCURVE",
"430 -11 OFFCURVE"
);
}
);
};
layerId = "E1B555A7-F4E1-459C-9C1A-AE952106EEF9";
paths = (
{
closed = 1;
nodes = (
"509 -9 OFFCURVE",
"618 75 OFFCURVE",
"618 209 CURVE SMOOTH",
"618 320 OFFCURVE",
"545 379 OFFCURVE",
"361 419 CURVE SMOOTH",
"245 444 OFFCURVE",
"213 465 OFFCURVE",
"213 509 CURVE SMOOTH",
"213 562 OFFCURVE",
"263 595 OFFCURVE",
"341 595 CURVE SMOOTH",
"413 595 OFFCURVE",
"483 572 OFFCURVE",
"547 524 CURVE",
"599 640 LINE",
"543 690 OFFCURVE",
"441 721 OFFCURVE",
"340 721 CURVE SMOOTH",
"168 721 OFFCURVE",
"54 626 OFFCURVE",
"54 497 CURVE SMOOTH",
"54 382 OFFCURVE",
"122 323 OFFCURVE",
"311 284 CURVE SMOOTH",
"421 261 OFFCURVE",
"459 239 OFFCURVE",
"459 195 CURVE SMOOTH",
"459 146 OFFCURVE",
"411 117 OFFCURVE",
"322 117 CURVE SMOOTH",
"239 117 OFFCURVE",
"162 140 OFFCURVE",
"92 188 CURVE",
"40 72 LINE",
"106 21 OFFCURVE",
"214 -9 OFFCURVE",
"320 -9 CURVE SMOOTH"
);
}
);
width = 660;
}
);
leftKerningGroup = S;
rightKerningGroup = S;
unicode = 0053;
userData = {
anchors = (
);
b = {
};
com.typemytype.robofont.layerData = {
b = {
anchors = (
);
components = (
);
contours = (
);
lib = {
};
name = S;
unicodes = (
);
width = 1274;
};
};
components = (
);
contours = (
);
lib = {
};
name = S;
unicodes = (
);
width = 1317;
};
},
{
glyphname = Germandbls;
lastChange = "2016-09-21 14:51:45 +0000";
layers = (
{
background = {
paths = (
{
closed = 1;
nodes = (
"137 -6 OFFCURVE",
"148 5 OFFCURVE",
"148 23 CURVE SMOOTH",
"148 460 LINE SMOOTH",
"148 603 OFFCURVE",
"212 669 OFFCURVE",
"349 669 CURVE SMOOTH",
"455 669 OFFCURVE",
"517 618 OFFCURVE",
"517 531 CURVE SMOOTH",
"517 439 OFFCURVE",
"455 387 OFFCURVE",
"346 387 CURVE SMOOTH",
"267 387 LINE SMOOTH",
"229 387 OFFCURVE",
"229 336 OFFCURVE",
"267 336 CURVE SMOOTH",
"382 336 LINE SMOOTH",
"501 336 OFFCURVE",
"564 288 OFFCURVE",
"564 195 CURVE SMOOTH",
"564 99 OFFCURVE",
"502 43 OFFCURVE",
"399 43 CURVE SMOOTH",
"352 43 OFFCURVE",
"312 56 OFFCURVE",
"267 88 CURVE SMOOTH",
"254 97 OFFCURVE",
"243 104 OFFCURVE",
"235 104 CURVE SMOOTH",
"224 104 OFFCURVE",
"215 94 OFFCURVE",
"215 82 CURVE SMOOTH",
"215 68 OFFCURVE",
"222 59 OFFCURVE",
"249 38 CURVE SMOOTH",
"288 9 OFFCURVE",
"344 -5 OFFCURVE",
"402 -5 CURVE SMOOTH",
"532 -5 OFFCURVE",
"619 74 OFFCURVE",
"619 195 CURVE SMOOTH",
"619 293 OFFCURVE",
"560 358 OFFCURVE",
"455 374 CURVE",
"445 363 LINE",
"524 383 OFFCURVE",
"573 444 OFFCURVE",
"573 531 CURVE SMOOTH",
"573 647 OFFCURVE",
"487 719 OFFCURVE",
"349 719 CURVE SMOOTH",
"179 719 OFFCURVE",
"94 635 OFFCURVE",
"94 467 CURVE SMOOTH",
"94 23 LINE SMOOTH",
"94 5 OFFCURVE",
"105 -6 OFFCURVE",
"121 -6 CURVE SMOOTH"
);
}
);
};
layerId = "9E718F8A-2CEA-4931-B05D-987794BD97DA";
paths = (
{
closed = 1;
nodes = (
"148 0 LINE",
"148 460 LINE SMOOTH",
"148 603 OFFCURVE",
"212 669 OFFCURVE",
"349 669 CURVE SMOOTH",
"455 669 OFFCURVE",
"517 617 OFFCURVE",
"517 531 CURVE SMOOTH",
"517 438 OFFCURVE",
"455 386 OFFCURVE",
"346 386 CURVE SMOOTH",
"243 386 LINE",
"243 337 LINE",
"382 337 LINE SMOOTH",
"500 337 OFFCURVE",
"564 289 OFFCURVE",
"564 195 CURVE SMOOTH",
"564 102 OFFCURVE",
"502 45 OFFCURVE",
"399 43 CURVE SMOOTH",
"345 42 OFFCURVE",
"298 61 OFFCURVE",
"242 106 CURVE",
"219 60 LINE",
"268 16 OFFCURVE",
"334 -7 OFFCURVE",
"402 -7 CURVE SMOOTH",
"532 -7 OFFCURVE",
"619 74 OFFCURVE",
"619 194 CURVE SMOOTH",
"619 293 OFFCURVE",
"560 358 OFFCURVE",
"451 374 CURVE",
"442 363 LINE",
"525 382 OFFCURVE",
"573 444 OFFCURVE",
"573 532 CURVE SMOOTH",
"573 647 OFFCURVE",
"487 719 OFFCURVE",
"349 719 CURVE SMOOTH",
"179 719 OFFCURVE",
"94 635 OFFCURVE",
"94 467 CURVE SMOOTH",
"94 0 LINE"
);
}
);
width = 687;
},
{
background = {
paths = (
{
closed = 1;
nodes = (
"198 -7 OFFCURVE",
"229 25 OFFCURVE",
"229 73 CURVE SMOOTH",
"229 448 LINE SMOOTH",
"229 542 OFFCURVE",
"279 593 OFFCURVE",
"369 593 CURVE SMOOTH",
"435 593 OFFCURVE",
"478 560 OFFCURVE",
"478 506 CURVE SMOOTH",
"478 452 OFFCURVE",
"444 425 OFFCURVE",
"379 425 CURVE SMOOTH",
"345 425 LINE SMOOTH",
"260 425 OFFCURVE",
"260 295 OFFCURVE",
"345 295 CURVE SMOOTH",
"397 295 LINE SMOOTH",
"493 295 OFFCURVE",
"529 270 OFFCURVE",
"529 204 CURVE SMOOTH",
"529 148 OFFCURVE",
"497 114 OFFCURVE",
"445 114 CURVE SMOOTH",
"409 114 OFFCURVE",
"384 130 OFFCURVE",
"360 141 CURVE SMOOTH",
"338 152 OFFCURVE",
"327 155 OFFCURVE",
"314 155 CURVE SMOOTH",
"287 155 OFFCURVE",
"268 129 OFFCURVE",
"268 93 CURVE SMOOTH",
"268 69 OFFCURVE",
"278 49 OFFCURVE",
"299 36 CURVE SMOOTH",
"342 7 OFFCURVE",
"393 -6 OFFCURVE",
"457 -6 CURVE SMOOTH",
"587 -6 OFFCURVE",
"683 81 OFFCURVE",
"683 199 CURVE SMOOTH",
"683 297 OFFCURVE",
"617 364 OFFCURVE",
"509 376 CURVE",
"509 362 LINE",
"583 384 OFFCURVE",
"629 443 OFFCURVE",
"629 519 CURVE SMOOTH",
"629 641 OFFCURVE",
"529 719 OFFCURVE",
"373 719 CURVE SMOOTH",
"181 719 OFFCURVE",
"70 619 OFFCURVE",
"70 445 CURVE SMOOTH",
"70 73 LINE SMOOTH",
"70 24 OFFCURVE",
"101 -7 OFFCURVE",
"149 -7 CURVE SMOOTH"
);
}
);
};
layerId = "E1B555A7-F4E1-459C-9C1A-AE952106EEF9";
paths = (
{
closed = 1;
nodes = (
"229 0 LINE",
"229 448 LINE SMOOTH",
"229 542 OFFCURVE",
"279 593 OFFCURVE",
"369 593 CURVE SMOOTH",
"435 593 OFFCURVE",
"478 560 OFFCURVE",
"478 505 CURVE SMOOTH",
"478 452 OFFCURVE",
"444 423 OFFCURVE",
"379 423 CURVE SMOOTH",
"298 423 LINE",
"298 297 LINE",
"397 297 LINE SMOOTH",
"493 297 OFFCURVE",
"529 270 OFFCURVE",
"529 205 CURVE SMOOTH",
"529 148 OFFCURVE",
"498 114 OFFCURVE",
"447 114 CURVE SMOOTH",
"407 114 OFFCURVE",
"363 130 OFFCURVE",
"309 165 CURVE",
"267 51 LINE",
"320 11 OFFCURVE",
"379 -6 OFFCURVE",
"457 -6 CURVE SMOOTH",
"587 -6 OFFCURVE",
"683 81 OFFCURVE",
"683 199 CURVE SMOOTH",
"683 297 OFFCURVE",
"617 364 OFFCURVE",
"509 376 CURVE",
"509 362 LINE",
"583 384 OFFCURVE",
"629 443 OFFCURVE",
"629 519 CURVE SMOOTH",
"629 641 OFFCURVE",
"529 719 OFFCURVE",
"373 719 CURVE SMOOTH",
"181 719 OFFCURVE",
"70 619 OFFCURVE",
"70 445 CURVE SMOOTH",
"70 0 LINE"
);
}
);
width = 719;
}
);
leftKerningGroup = H;
rightKerningGroup = Germandbls;
unicode = 1E9E;
},
{
glyphname = Schwa;
lastChange = "2016-09-21 14:51:45 +0000";
layers = (
{
anchors = (
{
name = bottom;
position = "{370, 0}";
},
{
name = top;
position = "{370, 712}";
}
);
background = {
anchors = (
{
name = bottom;
position = "{370, 0}";
},
{
name = top;
position = "{370, 712}";
}
);
paths = (
{
closed = 1;
nodes = (
"557 -8 OFFCURVE",
"674 131 OFFCURVE",
"674 357 CURVE SMOOTH",
"674 583 OFFCURVE",
"550 720 OFFCURVE",
"348 720 CURVE SMOOTH",
"255 720 OFFCURVE",
"169 690 OFFCURVE",
"105 631 CURVE SMOOTH",
"97 624 OFFCURVE",
"93 615 OFFCURVE",
"93 604 CURVE SMOOTH",
"93 591 OFFCURVE",
"101 580 OFFCURVE",
"111 580 CURVE SMOOTH",
"117 580 OFFCURVE",
"122 581 OFFCURVE",
"132 589 CURVE SMOOTH",
"215 652 OFFCURVE",
"266 671 OFFCURVE",
"349 671 CURVE SMOOTH",
"519 671 OFFCURVE",
"617 557 OFFCURVE",
"617 357 CURVE SMOOTH",
"617 158 OFFCURVE",
"526 42 OFFCURVE",
"370 42 CURVE SMOOTH",
"214 42 OFFCURVE",
"122 159 OFFCURVE",
"122 357 CURVE",
"107 336 LINE",
"648 336 LINE",
"648 387 LINE",
"104 387 LINE SMOOTH",
"80 387 OFFCURVE",
"66 374 OFFCURVE",
"66 348 CURVE SMOOTH",
"66 130 OFFCURVE",
"184 -8 OFFCURVE",
"370 -8 CURVE SMOOTH"
);
}
);
};
layerId = "9E718F8A-2CEA-4931-B05D-987794BD97DA";
paths = (
{
closed = 1;
nodes = (
"557 -8 OFFCURVE",
"674 131 OFFCURVE",
"674 357 CURVE SMOOTH",
"674 583 OFFCURVE",
"549 720 OFFCURVE",
"347 720 CURVE SMOOTH",
"248 720 OFFCURVE",
"155 686 OFFCURVE",
"95 626 CURVE",
"119 582 LINE",
"185 642 OFFCURVE",
"260 671 OFFCURVE",
"348 671 CURVE SMOOTH",
"519 671 OFFCURVE",
"617 557 OFFCURVE",
"617 357 CURVE SMOOTH",
"617 158 OFFCURVE",
"526 42 OFFCURVE",
"370 42 CURVE SMOOTH",
"214 42 OFFCURVE",
"122 159 OFFCURVE",
"122 357 CURVE",
"107 336 LINE",
"648 336 LINE",
"648 387 LINE",
"66 387 LINE",
"66 352 LINE SMOOTH",
"66 130 OFFCURVE",
"183 -8 OFFCURVE",
"370 -8 CURVE SMOOTH"
);
}
);
width = 740;
},
{
anchors = (
{
name = bottom;
position = "{389, 0}";
},
{
name = top;
position = "{388, 712}";
}
);
background = {
anchors = (
{
name = bottom;
position = "{389, 0}";
},
{
name = top;
position = "{388, 712}";
}
);
paths = (
{
closed = 1;
nodes = (
"595 -9 OFFCURVE",
"727 142 OFFCURVE",
"727 357 CURVE SMOOTH",
"727 580 OFFCURVE",
"586 721 OFFCURVE",
"365 721 CURVE SMOOTH",
"268 721 OFFCURVE",
"178 696 OFFCURVE",
"120 649 CURVE SMOOTH",
"100 633 OFFCURVE",
"92 618 OFFCURVE",
"92 593 CURVE SMOOTH",
"92 557 OFFCURVE",
"115 527 OFFCURVE",
"144 527 CURVE SMOOTH",
"164 527 OFFCURVE",
"176 534 OFFCURVE",
"194 544 CURVE SMOOTH",
"249 576 OFFCURVE",
"304 592 OFFCURVE",
"355 592 CURVE SMOOTH",
"493 592 OFFCURVE",
"566 512 OFFCURVE",
"566 357 CURVE SMOOTH",
"566 198 OFFCURVE",
"507 117 OFFCURVE",
"392 117 CURVE SMOOTH",
"275 117 OFFCURVE",
"207 198 OFFCURVE",
"212 357 CURVE",
"171 298 LINE",
"627 298 LINE",
"627 422 LINE",
"114 422 LINE SMOOTH",
"74 422 OFFCURVE",
"49 397 OFFCURVE",
"49 354 CURVE SMOOTH",
"49 123 OFFCURVE",
"182 -9 OFFCURVE",
"392 -9 CURVE SMOOTH"
);
}
);
};
layerId = "E1B555A7-F4E1-459C-9C1A-AE952106EEF9";
paths = (
{
closed = 1;
nodes = (
"595 -9 OFFCURVE",
"727 142 OFFCURVE",
"727 357 CURVE SMOOTH",
"727 580 OFFCURVE",
"586 721 OFFCURVE",
"365 721 CURVE SMOOTH",
"268 721 OFFCURVE",
"163 690 OFFCURVE",
"100 640 CURVE",
"152 524 LINE",
"213 570 OFFCURVE",
"284 592 OFFCURVE",
"359 592 CURVE SMOOTH",
"493 592 OFFCURVE",
"566 512 OFFCURVE",
"566 357 CURVE SMOOTH",
"566 198 OFFCURVE",
"507 117 OFFCURVE",
"394 117 CURVE SMOOTH",
"275 117 OFFCURVE",
"207 198 OFFCURVE",
"212 357 CURVE",
"171 298 LINE",
"627 298 LINE",
"627 422 LINE",
"49 422 LINE",
"49 360 LINE SMOOTH",
"49 123 OFFCURVE",
"182 -9 OFFCURVE",
"399 -9 CURVE SMOOTH"
);
}
);
width = 777;
}
);
leftKerningGroup = O;
rightKerningGroup = O;
unicode = 018F;
},
{
glyphname = T;
lastChange = "2016-09-21 11:55:25 +0000";
layers = (
{
anchors = (
{
name = bottom;
position = "{297, 0}";
},
{
name = center;
position = "{297, 357}";
},
{
name = top;
position = "{297, 712}";
}
);
background = {
anchors = (
{
name = bottom;
position = "{297, 0}";
},
{
name = center;
position = "{297, 357}";
},
{
name = top;
position = "{297, 712}";
}
);
paths = (
{
closed = 1;
nodes = (
"325 655 LINE",
"557 655 LINE",
"557 711 LINE",
"26 711 LINE",
"26 655 LINE",
"259 655 LINE",
"259 0 LINE",
"325 0 LINE"
);
}
);
};
layerId = "9E718F8A-2CEA-4931-B05D-987794BD97DA";
paths = (
{
closed = 1;
nodes = (
"324 0 LINE",
"324 664 LINE",
"582 664 LINE",
"582 712 LINE",
"12 712 LINE",
"12 664 LINE",
"270 664 LINE",
"270 0 LINE"
);
}
);
width = 594;
},
{
anchors = (
{
name = bottom;
position = "{315, 0}";
},
{
name = center;
position = "{315, 357}";
},
{
name = top;
position = "{315, 712}";
}
);
background = {
anchors = (
{
name = bottom;
position = "{315, 0}";
},
{
name = center;
position = "{315, 357}";
},
{
name = top;
position = "{315, 712}";
}
);
paths = (
{
closed = 1;
nodes = (
"234 0 LINE",
"234 637 LINE",
"5 637 LINE",
"5 718 LINE",
"560 718 LINE",
"560 637 LINE",
"328 637 LINE",
"328 0 LINE"
);
}
);
};
layerId = "E1B555A7-F4E1-459C-9C1A-AE952106EEF9";
paths = (
{
closed = 1;
nodes = (
"397 0 LINE",
"397 580 LINE",
"618 580 LINE",
"618 712 LINE",
"12 712 LINE",
"12 580 LINE",
"233 580 LINE",
"233 0 LINE"
);
}
);
width = 630;
}
);
leftKerningGroup = T;
rightKerningGroup = T;
unicode = 0054;
userData = {
anchors = (
);
b = {
};
com.typemytype.robofont.layerData = {
b = {
anchors = (
);
components = (
);
contours = (
{
points = (
{
segmentType = curve;
smooth = 1;
x = 581;
y = 0;
},
{
segmentType = line;
smooth = 1;
x = 1350;
y = 0;
},
{
smooth = 0;
x = 1399;
y = 0;
},
{
smooth = 0;
x = 1423;
y = 34;
},
{
segmentType = curve;
smooth = 1;
x = 1423;
y = 71;
},
{
smooth = 0;
x = 1423;
y = 107;
},
{
smooth = 0;
x = 1399;
y = 141;
},
{
segmentType = curve;
smooth = 1;
x = 1350;
y = 141;
},
{
segmentType = line;
smooth = 0;
x = 671;
y = 141;
},
{
segmentType = line;
smooth = 0;
x = 671;
y = 665;
},
{
segmentType = line;
smooth = 1;
x = 1290;
y = 665;
},
{
smooth = 0;
x = 1339;
y = 665;
},
{
smooth = 0;
x = 1364;
y = 698;
},
{
segmentType = curve;
smooth = 1;
x = 1364;
y = 734;
},
{
smooth = 0;
x = 1364;
y = 770;
},
{
smooth = 0;
x = 1341;
y = 803;
},
{
segmentType = curve;
smooth = 1;
x = 1290;
y = 803;
},
{
segmentType = line;
smooth = 0;
x = 671;
y = 803;
},
{
segmentType = line;
smooth = 0;
x = 671;
y = 1285;
},
{
segmentType = line;
smooth = 1;
x = 1322;
y = 1285;
},
{
smooth = 0;
x = 1371;
y = 1285;
},
{
smooth = 0;
x = 1395;
y = 1319;
},
{
segmentType = curve;
smooth = 1;
x = 1395;
y = 1356;
},
{
smooth = 0;
x = 1395;
y = 1392;
},
{
smooth = 0;
x = 1371;
y = 1426;
},
{
segmentType = curve;
smooth = 1;
x = 1322;
y = 1426;
},
{
segmentType = line;
smooth = 1;
x = 576;
y = 1426;
},
{
smooth = 0;
x = 528;
y = 1426;
},
{
smooth = 0;
x = 493;
y = 1383;
},
{
segmentType = curve;
smooth = 1;
x = 493;
y = 1340;
},
{
segmentType = line;
smooth = 1;
x = 493;
y = 86;
},
{
smooth = 0;
x = 493;
y = 41;
},
{
smooth = 0;
x = 537;
y = 0;
}
);
}
);
lib = {
};
name = T;
unicodes = (
);
width = 1158;
};
};
components = (
);
contours = (
);
lib = {
};
name = T;
unicodes = (
);
width = 1199;
};
},
{
glyphname = Tbar;
lastChange = "2016-09-21 14:51:45 +0000";
layers = (
{
background = {
components = (
{
name = T;
},
{
name = macron;
transform = "{1, 0, 0, 1, 108, -245}";
}
);
};
layerId = "9E718F8A-2CEA-4931-B05D-987794BD97DA";
paths = (
{
closed = 1;
nodes = (
"471 338 LINE",
"471 385 LINE",
"123 385 LINE",
"123 338 LINE"
);
},
{
closed = 1;
nodes = (
"324 0 LINE",
"324 664 LINE",
"582 664 LINE",
"582 712 LINE",
"12 712 LINE",
"12 664 LINE",
"270 664 LINE",
"270 0 LINE"
);
}
);
width = 594;
},
{
background = {
components = (
{
name = T;
}
);
paths = (
{
closed = 1;
nodes = (
"81 303 LINE",
"81 376 LINE",
"476 376 LINE",
"476 303 LINE"
);
}
);
};
layerId = "E1B555A7-F4E1-459C-9C1A-AE952106EEF9";
paths = (
{
closed = 1;
nodes = (
"533 298 LINE",
"533 421 LINE",
"97 421 LINE",
"97 298 LINE"
);
},
{
closed = 1;
nodes = (
"397 0 LINE",
"397 580 LINE",
"618 580 LINE",
"618 712 LINE",
"12 712 LINE",
"12 580 LINE",
"233 580 LINE",
"233 0 LINE"
);
}
);
width = 630;
}
);
leftKerningGroup = T;
rightKerningGroup = T;
unicode = 0166;
userData = {
com.typemytype.robofont.layerData = {
b = {
anchors = (
);
components = (
);
contours = (
);
lib = {
};
name = Tbar;
unicodes = (
);
width = 1158;
};
};
};
},
{
glyphname = U;
lastChange = "2016-09-21 11:55:25 +0000";
layers = (
{
anchors = (
{
name = bottom;
position = "{363, 0}";
},
{
name = ogonek;
position = "{476, 10}";
},
{
name = top;
position = "{363, 712}";
},
{
name = topright;
position = "{609, 712}";
}
);
background = {
anchors = (
{
name = bottom;
position = "{363, 0}";
},
{
name = ogonek;
position = "{476, 10}";
},
{
name = top;
position = "{363, 712}";
},
{
name = topright;
position = "{609, 712}";
}
);
paths = (
{
closed = 1;
nodes = (
"588 184 OFFCURVE",
"570 129 OFFCURVE",
"535 95 CURVE SMOOTH",
"500 60 OFFCURVE",
"447 44 OFFCURVE",
"378 44 CURVE SMOOTH",
"304 44 OFFCURVE",
"250 65 OFFCURVE",
"215 104 CURVE SMOOTH",
"180 142 OFFCURVE",
"164 196 OFFCURVE",
"164 265 CURVE SMOOTH",
"166 711 LINE",
"104 711 LINE",
"102 260 LINE",
"102 250 LINE SMOOTH",
"102 249 OFFCURVE",
"102 248 OFFCURVE",
"102 247 CURVE SMOOTH",
"102 245 OFFCURVE",
"102 244 OFFCURVE",
"102 242 CURVE",
"108 162 OFFCURVE",
"132 99 OFFCURVE",
"176 56 CURVE SMOOTH",
"220 12 OFFCURVE",
"284 -11 OFFCURVE",
"373 -11 CURVE SMOOTH",
"465 -11 OFFCURVE",
"535 15 OFFCURVE",
"581 63 CURVE SMOOTH",
"627 111 OFFCURVE",
"650 180 OFFCURVE",
"651 268 CURVE SMOOTH",
"653 711 LINE",
"592 711 LINE",
"589 260 LINE SMOOTH"
);
}
);
};
layerId = "9E718F8A-2CEA-4931-B05D-987794BD97DA";
paths = (
{
closed = 1;
nodes = (
"542 -8 OFFCURVE",
"636 88 OFFCURVE",
"636 273 CURVE SMOOTH",
"636 712 LINE",
"582 712 LINE",
"582 266 LINE SMOOTH",
"582 117 OFFCURVE",
"507 42 OFFCURVE",
"363 42 CURVE SMOOTH",
"217 42 OFFCURVE",
"143 117 OFFCURVE",
"143 266 CURVE SMOOTH",
"143 712 LINE",
"89 712 LINE",
"89 273 LINE SMOOTH",
"89 88 OFFCURVE",
"183 -8 OFFCURVE",
"363 -8 CURVE SMOOTH"
);
}
);
width = 725;
},
{
anchors = (
{
name = bottom;
position = "{374, 0}";
},
{
name = ogonek;
position = "{497, 10}";
},
{
name = top;
position = "{374, 712}";
},
{
name = topright;
position = "{602, 712}";
}
);
background = {
anchors = (
{
name = bottom;
position = "{374, 0}";
},
{
name = ogonek;
position = "{497, 10}";
},
{
name = top;
position = "{374, 712}";
},
{
name = topright;
position = "{602, 712}";
}
);
paths = (
{
closed = 1;
nodes = (
"366 -11 CURVE SMOOTH",
"153 -11 OFFCURVE",
"84 111 OFFCURVE",
"84 275 CURVE SMOOTH",
"84 718 LINE",
"179 718 LINE",
"179 276 LINE SMOOTH",
"179 137 OFFCURVE",
"236 70 OFFCURVE",
"369 70 CURVE SMOOTH",
"493 70 OFFCURVE",
"559 135 OFFCURVE",
"559 272 CURVE SMOOTH",
"559 718 LINE",
"653 718 LINE",
"653 277 LINE",
"652 103 OFFCURVE",
"568 -11 OFFCURVE"
);
}
);
};
layerId = "E1B555A7-F4E1-459C-9C1A-AE952106EEF9";
paths = (
{
closed = 1;
nodes = (
"574 -9 OFFCURVE",
"682 98 OFFCURVE",
"682 295 CURVE SMOOTH",
"682 712 LINE",
"522 712 LINE",
"522 288 LINE SMOOTH",
"522 178 OFFCURVE",
"470 117 OFFCURVE",
"374 117 CURVE SMOOTH",
"277 117 OFFCURVE",
"225 177 OFFCURVE",
"225 288 CURVE SMOOTH",
"225 712 LINE",
"66 712 LINE",
"66 295 LINE SMOOTH",
"66 96 OFFCURVE",
"172 -9 OFFCURVE",
"374 -9 CURVE SMOOTH"
);
}
);
width = 747;
}
);
leftKerningGroup = U;
rightKerningGroup = U;
unicode = 0055;
userData = {
anchors = (
);
b = {
};
com.typemytype.robofont.layerData = {
b = {
anchors = (
);
components = (
);
contours = (
);
lib = {
};
name = U;
unicodes = (
);
width = 1490;
};
};
components = (
);
contours = (
);
lib = {
};
name = U;
unicodes = (
);
width = 1513;
};
},
{
glyphname = Uhorn;
lastChange = "2016-09-21 14:51:45 +0000";
layers = (
{
anchors = (
{
name = bottom;
position = "{363, 0}";
},
{
name = top;
position = "{363, 712}";
}
);
background = {
anchors = (
{
name = bottom;
position = "{363, 0}";
},
{
name = top;
position = "{363, 712}";
}
);
paths = (
{
closed = 1;
nodes = (
"542 -8 OFFCURVE",
"636 88 OFFCURVE",
"636 273 CURVE SMOOTH",
"636 689 LINE",
"627 675 LINE",
"705 675 OFFCURVE",
"756 729 OFFCURVE",
"756 811 CURVE SMOOTH",
"756 833 OFFCURVE",
"748 843 OFFCURVE",
"731 843 CURVE SMOOTH",
"715 843 OFFCURVE",
"706 834 OFFCURVE",
"705 816 CURVE SMOOTH",
"701 743 OFFCURVE",
"676 717 OFFCURVE",
"609 717 CURVE SMOOTH",
"594 717 OFFCURVE",
"582 705 OFFCURVE",
"582 688 CURVE SMOOTH",
"582 266 LINE SMOOTH",
"582 117 OFFCURVE",
"507 42 OFFCURVE",
"363 42 CURVE SMOOTH",
"217 42 OFFCURVE",
"143 117 OFFCURVE",
"143 266 CURVE SMOOTH",
"143 688 LINE SMOOTH",
"143 706 OFFCURVE",
"132 717 OFFCURVE",
"116 717 CURVE SMOOTH",
"100 717 OFFCURVE",
"89 706 OFFCURVE",
"89 688 CURVE SMOOTH",
"89 273 LINE SMOOTH",
"89 88 OFFCURVE",
"183 -8 OFFCURVE",
"363 -8 CURVE SMOOTH"
);
}
);
};
layerId = "9E718F8A-2CEA-4931-B05D-987794BD97DA";
paths = (
{
closed = 1;
nodes = (
"706 826 LINE SMOOTH",
"706 745 OFFCURVE",
"675 713 OFFCURVE",
"598 712 CURVE SMOOTH",
"582 712 LINE",
"582 266 LINE SMOOTH",
"582 117 OFFCURVE",
"507 42 OFFCURVE",
"363 42 CURVE SMOOTH",
"217 42 OFFCURVE",
"143 117 OFFCURVE",
"143 266 CURVE SMOOTH",
"143 712 LINE",
"89 712 LINE",
"89 273 LINE SMOOTH",
"89 88 OFFCURVE",
"183 -8 OFFCURVE",
"363 -8 CURVE SMOOTH",
"542 -8 OFFCURVE",
"636 88 OFFCURVE",
"636 273 CURVE SMOOTH",
"636 698 LINE",
"600 670 LINE",
"700 671 OFFCURVE",
"756 723 OFFCURVE",
"756 817 CURVE SMOOTH",
"756 839 LINE",
"706 839 LINE"
);
}
);
width = 725;
},
{
anchors = (
{
name = bottom;
position = "{374, 0}";
},
{
name = top;
position = "{374, 712}";
}
);
background = {
anchors = (
{
name = bottom;
position = "{374, 0}";
},
{
name = top;
position = "{374, 712}";
}
);
paths = (
{
closed = 1;
nodes = (
"574 -9 OFFCURVE",
"682 98 OFFCURVE",
"682 295 CURVE SMOOTH",
"682 681 LINE",
"648 637 LINE",
"734 646 OFFCURVE",
"795 707 OFFCURVE",
"795 784 CURVE SMOOTH",
"795 830 OFFCURVE",
"776 850 OFFCURVE",
"732 850 CURVE SMOOTH",
"685 850 OFFCURVE",
"661 829 OFFCURVE",
"654 780 CURVE SMOOTH",
"649 737 OFFCURVE",
"632 719 OFFCURVE",
"597 718 CURVE SMOOTH",
"551 716 OFFCURVE",
"522 684 OFFCURVE",
"522 637 CURVE SMOOTH",
"522 288 LINE SMOOTH",
"522 178 OFFCURVE",
"470 117 OFFCURVE",
"374 117 CURVE SMOOTH",
"277 117 OFFCURVE",
"225 177 OFFCURVE",
"225 288 CURVE SMOOTH",
"225 637 LINE SMOOTH",
"225 686 OFFCURVE",
"194 717 OFFCURVE",
"145 717 CURVE SMOOTH",
"97 717 OFFCURVE",
"66 686 OFFCURVE",
"66 637 CURVE SMOOTH",
"66 295 LINE SMOOTH",
"66 96 OFFCURVE",
"172 -9 OFFCURVE",
"374 -9 CURVE SMOOTH"
);
}
);
};
layerId = "E1B555A7-F4E1-459C-9C1A-AE952106EEF9";
paths = (
{
closed = 1;
nodes = (
"660 814 LINE SMOOTH",
"660 738 OFFCURVE",
"636 712 OFFCURVE",
"569 712 CURVE SMOOTH",
"522 712 LINE",
"522 288 LINE SMOOTH",
"522 178 OFFCURVE",
"470 117 OFFCURVE",
"374 117 CURVE SMOOTH",
"277 117 OFFCURVE",
"225 177 OFFCURVE",
"225 288 CURVE SMOOTH",
"225 712 LINE",
"66 712 LINE",
"66 295 LINE SMOOTH",
"66 96 OFFCURVE",
"172 -9 OFFCURVE",
"374 -9 CURVE SMOOTH",
"574 -9 OFFCURVE",
"682 98 OFFCURVE",
"682 295 CURVE SMOOTH",
"682 681 LINE",
"649 637 LINE",
"736 642 OFFCURVE",
"795 706 OFFCURVE",
"795 795 CURVE SMOOTH",
"795 834 LINE",
"660 834 LINE"
);
}
);
width = 747;
}
);
leftKerningGroup = U;
rightKerningGroup = Uhorn;
unicode = 01AF;
},
{
glyphname = Uogonek;
lastChange = "2016-09-21 14:51:45 +0000";
layers = (
{
background = {
components = (
{
name = U;
},
{
name = ogonek;
transform = "{1, 0, 0, 1, 244, 0}";
}
);
};
layerId = "9E718F8A-2CEA-4931-B05D-987794BD97DA";
paths = (
{
closed = 1;
nodes = (
"582 266 LINE SMOOTH",
"582 117 OFFCURVE",
"507 42 OFFCURVE",
"363 42 CURVE SMOOTH",
"217 42 OFFCURVE",
"143 117 OFFCURVE",
"143 266 CURVE SMOOTH",
"143 712 LINE",
"89 712 LINE",
"89 273 LINE SMOOTH",
"89 88 OFFCURVE",
"183 -8 OFFCURVE",
"363 -8 CURVE SMOOTH",
"416 -8 LINE",
"404 11 LINE",
"357 -9 OFFCURVE",
"332 -42 OFFCURVE",
"332 -89 CURVE SMOOTH",
"332 -150 OFFCURVE",
"379 -193 OFFCURVE",
"446 -193 CURVE SMOOTH",
"478 -193 OFFCURVE",
"506 -185 OFFCURVE",
"527 -170 CURVE",
"511 -131 LINE",
"490 -142 OFFCURVE",
"469 -149 OFFCURVE",
"451 -149 CURVE SMOOTH",
"409 -149 OFFCURVE",
"383 -124 OFFCURVE",
"383 -83 CURVE SMOOTH",
"383 -40 OFFCURVE",
"409 -13 OFFCURVE",
"471 6 CURVE SMOOTH",
"580 40 OFFCURVE",
"636 129 OFFCURVE",
"636 273 CURVE SMOOTH",
"636 712 LINE",
"582 712 LINE"
);
}
);
width = 725;
},
{
background = {
components = (
{
name = U;
},
{
name = ogonek;
transform = "{1, 0, 0, 1, 265, 0}";
}
);
};
layerId = "E1B555A7-F4E1-459C-9C1A-AE952106EEF9";
paths = (
{
closed = 1;
nodes = (
"522 288 LINE SMOOTH",
"522 178 OFFCURVE",
"470 117 OFFCURVE",
"374 117 CURVE SMOOTH",
"277 117 OFFCURVE",
"225 177 OFFCURVE",
"225 288 CURVE SMOOTH",
"225 712 LINE",
"66 712 LINE",
"66 295 LINE SMOOTH",
"66 96 OFFCURVE",
"172 -9 OFFCURVE",
"375 -9 CURVE SMOOTH",
"396 -9 LINE",
"386 11 LINE",
"348 -11 OFFCURVE",
"327 -48 OFFCURVE",
"327 -88 CURVE SMOOTH",
"327 -153 OFFCURVE",
"381 -199 OFFCURVE",
"457 -199 CURVE SMOOTH",
"493 -199 OFFCURVE",
"528 -192 OFFCURVE",
"559 -179 CURVE",
"541 -106 LINE",
"522 -114 OFFCURVE",
"504 -118 OFFCURVE",
"487 -118 CURVE SMOOTH",
"448 -118 OFFCURVE",
"427 -100 OFFCURVE",
"427 -65 CURVE SMOOTH",
"427 -32 OFFCURVE",
"448 -6 OFFCURVE",
"488 5 CURVE SMOOTH",
"615 40 OFFCURVE",
"682 139 OFFCURVE",
"682 295 CURVE SMOOTH",
"682 712 LINE",
"522 712 LINE"
);
}
);
width = 747;
}
);
leftKerningGroup = U;
rightKerningGroup = U;
unicode = 0172;
},
{
glyphname = V;
lastChange = "2016-09-21 11:55:25 +0000";
layers = (
{
anchors = (
{
name = bottom;
position = "{342, 0}";
},
{
name = top;
position = "{341, 712}";
}
);
background = {
anchors = (
{
name = bottom;
position = "{342, 0}";
},
{
name = top;
position = "{341, 712}";
}
);
paths = (
{
closed = 1;
nodes = (
"87 711 LINE",
"18 711 LINE",
"291 0 LINE",
"366 0 LINE",
"645 711 LINE",
"578 711 LINE",
"367 147 LINE",
"332 49 LINE",
"296 146 LINE"
);
}
);
};
layerId = "9E718F8A-2CEA-4931-B05D-987794BD97DA";
paths = (
{
closed = 1;
nodes = (
"367 0 LINE",
"675 712 LINE",
"618 712 LINE",
"328 37 LINE",
"356 37 LINE",
"66 712 LINE",
"9 712 LINE",
"316 0 LINE"
);
}
);
width = 683;
},
{
anchors = (
{
name = bottom;
position = "{370, 0}";
},
{
name = top;
position = "{369, 712}";
}
);
background = {
anchors = (
{
name = bottom;
position = "{370, 0}";
},
{
name = top;
position = "{369, 712}";
}
);
paths = (
{
closed = 1;
nodes = (
"275 0 LINE",
"6 718 LINE",
"112 718 LINE",
"297 195 LINE",
"326 111 LINE",
"357 195 LINE",
"542 718 LINE",
"641 718 LINE",
"374 0 LINE"
);
}
);
};
layerId = "E1B555A7-F4E1-459C-9C1A-AE952106EEF9";
paths = (
{
closed = 1;
nodes = (
"434 0 LINE",
"755 712 LINE",
"591 712 LINE",
"347 148 LINE",
"394 148 LINE",
"152 712 LINE",
"-17 712 LINE",
"304 0 LINE"
);
}
);
width = 738;
}
);
leftKerningGroup = V;
rightKerningGroup = V;
unicode = 0056;
userData = {
anchors = (
);
b = {
};
com.typemytype.robofont.guides = (
);
com.typemytype.robofont.layerData = {
b = {
anchors = (
);
components = (
);
contours = (
{
points = (
{
segmentType = curve;
smooth = 1;
x = 644;
y = "-5";
},
{
smooth = 0;
x = 712;
y = "-5";
},
{
smooth = 0;
x = 764;
y = 38;
},
{
segmentType = curve;
smooth = 1;
x = 793;
y = 117;
},
{
segmentType = line;
smooth = 1;
x = 1243;
y = 1324;
},
{
smooth = 0;
x = 1247;
y = 1335;
},
{
smooth = 0;
x = 1248;
y = 1342;
},
{
segmentType = curve;
smooth = 1;
x = 1248;
y = 1351;
},
{
smooth = 0;
x = 1248;
y = 1395;
},
{
smooth = 0;
x = 1203;
y = 1427;
},
{
segmentType = curve;
smooth = 1;
x = 1160;
y = 1427;
},
{
smooth = 0;
x = 1125;
y = 1427;
},
{
smooth = 0;
x = 1090;
y = 1408;
},
{
segmentType = curve;
smooth = 1;
x = 1076;
y = 1369;
},
{
segmentType = line;
smooth = 0;
x = 651;
y = 192;
},
{
segmentType = line;
smooth = 0;
x = 650;
y = 190;
},
{
segmentType = line;
smooth = 1;
x = 214;
y = 1370;
},
{
smooth = 0;
x = 200;
y = 1407;
},
{
smooth = 0;
x = 170;
y = 1427;
},
{
segmentType = curve;
smooth = 1;
x = 135;
y = 1427;
},
{
smooth = 0;
x = 90;
y = 1427;
},
{
smooth = 0;
x = 43;
y = 1392;
},
{
segmentType = curve;
smooth = 1;
x = 43;
y = 1344;
},
{
smooth = 0;
x = 43;
y = 1336;
},
{
smooth = 0;
x = 44;
y = 1326;
},
{
segmentType = curve;
smooth = 0;
x = 48;
y = 1318;
},
{
segmentType = line;
smooth = 1;
x = 501;
y = 117;
},
{
smooth = 0;
x = 532;
y = 35;
},
{
smooth = 0;
x = 581;
y = "-5";
}
);
}
);
lib = {
};
name = V;
unicodes = (
);
width = 1289;
};
};
components = (
);
contours = (
);
lib = {
};
name = V;
unicodes = (
);
width = 1365;
};
},
{
glyphname = W;
lastChange = "2016-09-21 11:55:25 +0000";
layers = (
{
anchors = (
{
name = bottom;
position = "{553, 0}";
},
{
name = top;
position = "{552, 712}";
}
);
background = {
anchors = (
{
name = bottom;
position = "{553, 0}";
},
{
name = top;
position = "{552, 712}";
}
);
paths = (
{
closed = 1;
nodes = (
"560 711 LINE",
"487 711 LINE",
"309 155 LINE",
"275 28 LINE",
"240 165 LINE",
"88 711 LINE",
"19 711 LINE",
"226 0 LINE",
"315 0 LINE",
"523 647 LINE",
"727 0 LINE",
"812 0 LINE",
"1020 711 LINE",
"958 711 LINE",
"802 154 LINE",
"773 33 LINE",
"734 163 LINE"
);
}
);
};
layerId = "9E718F8A-2CEA-4931-B05D-987794BD97DA";
paths = (
{
closed = 1;
nodes = (
"335 0 LINE",
"564 655 LINE",
"542 655 LINE",
"771 0 LINE",
"819 0 LINE",
"1067 712 LINE",
"1012 712 LINE",
"779 35 LINE",
"809 35 LINE",
"576 711 LINE",
"531 712 LINE",
"297 35 LINE",
"326 35 LINE",
"94 712 LINE",
"39 712 LINE",
"287 0 LINE"
);
}
);
width = 1106;
},
{
anchors = (
{
name = bottom;
position = "{564, 0}";
},
{
name = top;
position = "{564, 712}";
}
);
background = {
paths = (
{
closed = 1;
nodes = (
"207 0 LINE",
"10 718 LINE",
"112 718 LINE",
"239 217 LINE",
"265 106 LINE",
"293 213 LINE",
"444 718 LINE",
"539 718 LINE",
"691 213 LINE",
"720 108 LINE",
"743 209 LINE",
"869 718 LINE",
"966 718 LINE",
"775 0 LINE",
"665 0 LINE",
"490 592 LINE",
"316 0 LINE"
);
}
);
};
layerId = "E1B555A7-F4E1-459C-9C1A-AE952106EEF9";
paths = (
{
closed = 1;
nodes = (
"400 0 LINE",
"577 497 LINE",
"552 497 LINE",
"726 0 LINE",
"856 0 LINE",
"1110 712 LINE",
"955 712 LINE",
"772 169 LINE",
"807 169 LINE",
"625 712 LINE",
"512 712 LINE",
"321 169 LINE",
"362 169 LINE",
"182 712 LINE",
"17 712 LINE",
"270 0 LINE"
);
}
);
width = 1127;
}
);
leftKerningGroup = V;
rightKerningGroup = V;
unicode = 0057;
userData = {
anchors = (
);
b = {
};
com.typemytype.robofont.layerData = {
b = {
anchors = (
);
components = (
);
contours = (
);
lib = {
};
name = W;
unicodes = (
);
width = 2126;
};
};
components = (
);
contours = (
);
lib = {
};
name = W;
unicodes = (
);
width = 2070;
};
},
{
glyphname = X;
lastChange = "2016-09-21 11:55:25 +0000";
layers = (
{
anchors = (
{
name = bottom;
position = "{321, 0}";
},
{
name = top;
position = "{321, 712}";
}
);
background = {
anchors = (
{
name = bottom;
position = "{321, 0}";
},
{
name = top;
position = "{321, 712}";
}
);
paths = (
{
closed = 1;
nodes = (
"97 0 LINE",
"324 324 LINE",
"540 0 LINE",
"620 0 LINE",
"365 362 LINE",
"616 711 LINE",
"544 711 LINE",
"374 465 LINE",
"326 400 LINE",
"122 711 LINE",
"41 711 LINE",
"284 362 LINE",
"22 0 LINE"
);
}
);
};
layerId = "9E718F8A-2CEA-4931-B05D-987794BD97DA";
paths = (
{
closed = 1;
nodes = (
"321 323 LINE",
"352 365 LINE",
"608 712 LINE",
"544 712 LINE",
"322 407 LINE",
"290 366 LINE",
"19 0 LINE",
"85 0 LINE"
);
},
{
closed = 1;
nodes = (
"622 0 LINE",
"352 365 LINE",
"322 407 LINE",
"99 712 LINE",
"34 712 LINE",
"290 366 LINE",
"321 323 LINE",
"558 0 LINE"
);
}
);
width = 641;
},
{
anchors = (
{
name = bottom;
position = "{342, 0}";
},
{
name = top;
position = "{341, 712}";
}
);
background = {
paths = (
{
closed = 1;
nodes = (
"500 0 LINE",
"305 291 LINE",
"111 0 LINE",
"2 0 LINE",
"251 366 LINE",
"10 718 LINE",
"124 718 LINE",
"308 443 LINE",
"494 718 LINE",
"600 718 LINE",
"362 370 LINE",
"611 0 LINE"
);
}
);
};
layerId = "E1B555A7-F4E1-459C-9C1A-AE952106EEF9";
paths = (
{
closed = 1;
nodes = (
"341 241 LINE",
"433 361 LINE",
"699 712 LINE",
"510 712 LINE",
"341 479 LINE",
"249 361 LINE",
"-22 0 LINE",
"167 0 LINE"
);
},
{
closed = 1;
nodes = (
"705 0 LINE",
"433 361 LINE",
"341 479 LINE",
"174 712 LINE",
"-15 712 LINE",
"249 361 LINE",
"341 241 LINE",
"515 0 LINE"
);
}
);
width = 684;
}
);
leftKerningGroup = X;
rightKerningGroup = X;
unicode = 0058;
userData = {
anchors = (
);
b = {
};
com.typemytype.robofont.layerData = {
b = {
anchors = (
);
components = (
);
contours = (
{
points = (
{
segmentType = curve;
smooth = 1;
x = 151;
y = 0;
},
{
smooth = 0;
x = 176;
y = 0;
},
{
smooth = 0;
x = 201;
y = 12;
},
{
segmentType = curve;
smooth = 1;
x = 222;
y = 41;
},
{
segmentType = line;
smooth = 0;
x = 641;
y = 616;
},
{
segmentType = line;
smooth = 0;
x = 746;
y = 734;
},
{
segmentType = line;
smooth = 1;
x = 1175;
y = 1310;
},
{
smooth = 0;
x = 1186;
y = 1325;
},
{
smooth = 0;
x = 1190;
y = 1338;
},
{
segmentType = curve;
smooth = 1;
x = 1190;
y = 1353;
},
{
smooth = 0;
x = 1190;
y = 1393;
},
{
smooth = 0;
x = 1153;
y = 1426;
},
{
segmentType = curve;
smooth = 1;
x = 1110;
y = 1426;
},
{
smooth = 0;
x = 1083;
y = 1426;
},
{
smooth = 0;
x = 1058;
y = 1414;
},
{
segmentType = curve;
smooth = 1;
x = 1037;
y = 1385;
},
{
segmentType = line;
smooth = 0;
x = 648;
y = 844;
},
{
segmentType = line;
smooth = 0;
x = 542;
y = 732;
},
{
segmentType = line;
smooth = 1;
x = 84;
y = 121;
},
{
smooth = 0;
x = 73;
y = 106;
},
{
smooth = 0;
x = 68;
y = 91;
},
{
segmentType = curve;
smooth = 1;
x = 68;
y = 76;
},
{
smooth = 0;
x = 68;
y = 35;
},
{
smooth = 0;
x = 108;
y = 0;
}
);
},
{
points = (
{
segmentType = curve;
smooth = 1;
x = 1104;
y = 0;
},
{
smooth = 0;
x = 1151;
y = 0;
},
{
smooth = 0;
x = 1200;
y = 40;
},
{
segmentType = curve;
smooth = 1;
x = 1200;
y = 85;
},
{
smooth = 0;
x = 1200;
y = 98;
},
{
smooth = 0;
x = 1195;
y = 113;
},
{
segmentType = curve;
smooth = 0;
x = 1186;
y = 126;
},
{
segmentType = line;
smooth = 0;
x = 272;
y = 1385;
},
{
smooth = 0;
x = 252;
y = 1414;
},
{
smooth = 0;
x = 225;
y = 1426;
},
{
segmentType = curve;
smooth = 1;
x = 197;
y = 1426;
},
{
smooth = 0;
x = 149;
y = 1426;
},
{
smooth = 0;
x = 100;
y = 1388;
},
{
segmentType = curve;
smooth = 1;
x = 100;
y = 1343;
},
{
smooth = 0;
x = 100;
y = 1328;
},
{
smooth = 0;
x = 105;
y = 1315;
},
{
segmentType = curve;
smooth = 0;
x = 114;
y = 1303;
},
{
segmentType = line;
smooth = 0;
x = 1033;
y = 40;
},
{
smooth = 0;
x = 1052;
y = 13;
},
{
smooth = 0;
x = 1076;
y = 0;
}
);
}
);
lib = {
};
name = X;
unicodes = (
);
width = 1274;
};
};
components = (
);
contours = (
);
lib = {
};
name = X;
unicodes = (
);
width = 1322;
};
},
{
glyphname = Y;
lastChange = "2016-09-21 11:55:25 +0000";
layers = (
{
anchors = (
{
name = bottom;
position = "{296, 0}";
},
{
name = top;
position = "{296, 712}";
},
{
name = topleft;
position = "{19, 712}";
}
);
background = {
anchors = (
{
name = bottom;
position = "{296, 0}";
},
{
name = top;
position = "{296, 712}";
},
{
name = topleft;
position = "{19, 712}";
}
);
paths = (
{
closed = 1;
nodes = (
"540 711 LINE",
"314 337 LINE",
"91 711 LINE",
"21 711 LINE",
"280 284 LINE",
"280 0 LINE",
"345 0 LINE",
"345 287 LINE",
"607 711 LINE"
);
}
);
};
layerId = "9E718F8A-2CEA-4931-B05D-987794BD97DA";
paths = (
{
closed = 1;
nodes = (
"323 0 LINE",
"323 320 LINE",
"311 275 LINE",
"597 712 LINE",
"535 712 LINE",
"286 327 LINE",
"309 327 LINE",
"59 712 LINE",
"-5 712 LINE",
"282 275 LINE",
"269 320 LINE",
"269 0 LINE"
);
}
);
width = 593;
},
{
anchors = (
{
name = bottom;
position = "{323, 0}";
},
{
name = top;
position = "{322, 712}";
},
{
name = topleft;
position = "{19, 712}";
}
);
background = {
anchors = (
{
name = bottom;
position = "{323, 0}";
},
{
name = top;
position = "{322, 712}";
},
{
name = topleft;
position = "{19, 712}";
}
);
paths = (
{
closed = 1;
nodes = (
"251 0 LINE",
"251 284 LINE",
"4 718 LINE",
"108 718 LINE",
"300 366 LINE",
"493 718 LINE",
"598 718 LINE",
"345 285 LINE",
"345 0 LINE"
);
},
{
closed = 1;
nodes = (
"404 0 LINE",
"404 371 LINE",
"371 278 LINE",
"700 712 LINE",
"515 712 LINE",
"305 428 LINE",
"338 428 LINE",
"130 712 LINE",
"-54 712 LINE",
"275 278 LINE",
"241 371 LINE",
"241 0 LINE"
);
}
);
};
layerId = "E1B555A7-F4E1-459C-9C1A-AE952106EEF9";
paths = (
{
closed = 1;
nodes = (
"404 0 LINE",
"404 320 LINE",
"371 227 LINE",
"700 712 LINE",
"515 712 LINE",
"300 378 LINE",
"343 378 LINE",
"130 712 LINE",
"-54 712 LINE",
"275 227 LINE",
"241 320 LINE",
"241 0 LINE"
);
}
);
width = 645;
}
);
leftKerningGroup = Y;
rightKerningGroup = Y;
unicode = 0059;
userData = {
anchors = (
);
b = {
};
com.typemytype.robofont.guides = (
);
com.typemytype.robofont.layerData = {
b = {
anchors = (
);
components = (
);
contours = (
{
points = (
{
segmentType = curve;
smooth = 1;
x = 641;
y = 0;
},
{
smooth = 0;
x = 685;
y = 0;
},
{
smooth = 0;
x = 730;
y = 29;
},
{
segmentType = curve;
smooth = 1;
x = 730;
y = 85;
},
{
segmentType = line;
smooth = 0;
x = 730;
y = 1285;
},
{
segmentType = line;
smooth = 1;
x = 1115;
y = 1285;
},
{
smooth = 0;
x = 1164;
y = 1285;
},
{
smooth = 0;
x = 1190;
y = 1319;
},
{
segmentType = curve;
smooth = 1;
x = 1190;
y = 1355;
},
{
smooth = 0;
x = 1190;
y = 1392;
},
{
smooth = 0;
x = 1166;
y = 1426;
},
{
segmentType = curve;
smooth = 1;
x = 1115;
y = 1426;
},
{
segmentType = line;
smooth = 1;
x = 160;
y = 1426;
},
{
smooth = 0;
x = 111;
y = 1426;
},
{
smooth = 0;
x = 86;
y = 1392;
},
{
segmentType = curve;
smooth = 1;
x = 86;
y = 1355;
},
{
smooth = 0;
x = 86;
y = 1319;
},
{
smooth = 0;
x = 111;
y = 1285;
},
{
segmentType = curve;
smooth = 1;
x = 160;
y = 1285;
},
{
segmentType = line;
smooth = 0;
x = 552;
y = 1285;
},
{
segmentType = line;
smooth = 1;
x = 552;
y = 85;
},
{
smooth = 0;
x = 552;
y = 29;
},
{
smooth = 0;
x = 596;
y = 0;
}
);
}
);
lib = {
};
name = Y;
unicodes = (
);
width = 1278;
};
};
components = (
);
contours = (
);
lib = {
};
name = Y;
unicodes = (
);
width = 1321;
};
},
{
glyphname = Z;
lastChange = "2016-09-21 11:55:25 +0000";
layers = (
{
anchors = (
{
name = bottom;
position = "{301, 0}";
},
{
name = top;
position = "{293, 712}";
}
);
background = {
anchors = (
{
name = bottom;
position = "{301, 0}";
},
{
name = top;
position = "{293, 712}";
}
);
paths = (
{
closed = 1;
nodes = (
"120 56 LINE",
"565 679 LINE",
"565 711 LINE",
"55 711 LINE",
"55 655 LINE",
"480 655 LINE",
"37 34 LINE",
"37 0 LINE",
"558 0 LINE",
"558 56 LINE"
);
}
);
};
layerId = "9E718F8A-2CEA-4931-B05D-987794BD97DA";
paths = (
{
closed = 1;
nodes = (
"550 0 LINE",
"550 48 LINE",
"82 48 LINE",
"80 7 LINE",
"540 672 LINE",
"540 712 LINE",
"43 712 LINE",
"43 664 LINE",
"502 664 LINE",
"504 705 LINE",
"43 40 LINE",
"43 0 LINE"
);
}
);
width = 588;
},
{
anchors = (
{
name = bottom;
position = "{306, 0}";
},
{
name = top;
position = "{310, 712}";
}
);
background = {
anchors = (
{
name = bottom;
position = "{306, 0}";
},
{
name = top;
position = "{310, 712}";
}
);
paths = (
{
closed = 1;
nodes = (
"45 0 LINE",
"45 51 LINE",
"409 637 LINE",
"61 637 LINE",
"61 718 LINE",
"537 718 LINE",
"537 670 LINE",
"172 81 LINE",
"534 81 LINE",
"534 0 LINE"
);
}
);
};
layerId = "E1B555A7-F4E1-459C-9C1A-AE952106EEF9";
paths = (
{
closed = 1;
nodes = (
"582 0 LINE",
"582 128 LINE",
"201 128 LINE",
"199 84 LINE",
"571 595 LINE",
"571 712 LINE",
"51 712 LINE",
"51 584 LINE",
"419 584 LINE",
"420 628 LINE",
"51 119 LINE",
"51 0 LINE"
);
}
);
width = 617;
}
);
leftKerningGroup = Z;
rightKerningGroup = Z;
unicode = 005A;
userData = {
anchors = (
);
b = {
};
com.typemytype.robofont.layerData = {
b = {
anchors = (
);
components = (
);
contours = (
{
points = (
{
segmentType = curve;
smooth = 1;
x = 266;
y = 0;
},
{
segmentType = line;
smooth = 1;
x = 1035;
y = 0;
},
{
smooth = 0;
x = 1084;
y = 0;
},
{
smooth = 0;
x = 1108;
y = 34;
},
{
segmentType = curve;
smooth = 1;
x = 1108;
y = 71;
},
{
smooth = 0;
x = 1108;
y = 107;
},
{
smooth = 0;
x = 1084;
y = 141;
},
{
segmentType = curve;
smooth = 1;
x = 1035;
y = 141;
},
{
segmentType = line;
smooth = 0;
x = 356;
y = 141;
},
{
segmentType = line;
smooth = 0;
x = 356;
y = 665;
},
{
segmentType = line;
smooth = 1;
x = 975;
y = 665;
},
{
smooth = 0;
x = 1024;
y = 665;
},
{
smooth = 0;
x = 1049;
y = 698;
},
{
segmentType = curve;
smooth = 1;
x = 1049;
y = 734;
},
{
smooth = 0;
x = 1049;
y = 770;
},
{
smooth = 0;
x = 1026;
y = 803;
},
{
segmentType = curve;
smooth = 1;
x = 975;
y = 803;
},
{
segmentType = line;
smooth = 0;
x = 356;
y = 803;
},
{
segmentType = line;
smooth = 0;
x = 356;
y = 1285;
},
{
segmentType = line;
smooth = 1;
x = 1007;
y = 1285;
},
{
smooth = 0;
x = 1056;
y = 1285;
},
{
smooth = 0;
x = 1080;
y = 1319;
},
{
segmentType = curve;
smooth = 1;
x = 1080;
y = 1356;
},
{
smooth = 0;
x = 1080;
y = 1392;
},
{
smooth = 0;
x = 1056;
y = 1426;
},
{
segmentType = curve;
smooth = 1;
x = 1007;
y = 1426;
},
{
segmentType = line;
smooth = 1;
x = 261;
y = 1426;
},
{
smooth = 0;
x = 213;
y = 1426;
},
{
smooth = 0;
x = 178;
y = 1383;
},
{
segmentType = curve;
smooth = 1;
x = 178;
y = 1340;
},
{
segmentType = line;
smooth = 1;
x = 178;
y = 86;
},
{
smooth = 0;
x = 178;
y = 41;
},
{
smooth = 0;
x = 222;
y = 0;
}
);
}
);
lib = {
};
name = Z;
unicodes = (
);
width = 1165;
};
};
components = (
);
contours = (
);
lib = {
};
name = Z;
unicodes = (
);
width = 1222;
};
},
{
color = 3;
glyphname = a;
lastChange = "2016-09-21 14:51:45 +0000";
layers = (
{
anchors = (
{
name = bottom;
position = "{316, 0}";
},
{
name = ogonek;
position = "{548, 10}";
},
{
name = top;
position = "{316, 511}";
}
);
layerId = "E1B555A7-F4E1-459C-9C1A-AE952106EEF9";
paths = (
{
closed = 1;
nodes = (
"340 -8 OFFCURVE",
"407 33 OFFCURVE",
"430 100 CURVE",
"418 102 LINE",
"418 0 LINE",
"573 0 LINE",
"573 507 LINE",
"418 507 LINE",
"418 403 LINE",
"430 411 LINE",
"407 477 OFFCURVE",
"340 520 OFFCURVE",
"259 520 CURVE SMOOTH",
"128 520 OFFCURVE",
"35 412 OFFCURVE",
"35 253 CURVE SMOOTH",
"35 94 OFFCURVE",
"127 -8 OFFCURVE",
"259 -8 CURVE SMOOTH"
);
},
{
closed = 1;
nodes = (
"232 111 OFFCURVE",
"191 161 OFFCURVE",
"191 253 CURVE SMOOTH",
"191 346 OFFCURVE",
"234 400 OFFCURVE",
"305 400 CURVE SMOOTH",
"377 400 OFFCURVE",
"418 349 OFFCURVE",
"418 255 CURVE SMOOTH",
"418 162 OFFCURVE",
"377 111 OFFCURVE",
"305 111 CURVE SMOOTH"
);
}
);
width = 633;
},
{
anchors = (
{
name = bottom;
position = "{295, 0}";
},
{
name = ogonek;
position = "{500, 10}";
},
{
name = top;
position = "{295, 506}";
}
);
background = {
paths = (
{
closed = 1;
nodes = (
"211 513 OFFCURVE",
"152 481 OFFCURVE",
"112 433 CURVE SMOOTH",
"73 385 OFFCURVE",
"53 320 OFFCURVE",
"53 256 CURVE SMOOTH",
"53 193 OFFCURVE",
"71 126 OFFCURVE",
"109 76 CURVE SMOOTH",
"148 24 OFFCURVE",
"207 -11 OFFCURVE",
"290 -11 CURVE SMOOTH",
"340 -11 OFFCURVE",
"385 5 OFFCURVE",
"419 28 CURVE SMOOTH",
"453 51 OFFCURVE",
"476 80 OFFCURVE",
"485 107 CURVE",
"484 0 LINE",
"546 0 LINE",
"546 382 LINE",
"546 501 LINE",
"487 501 LINE",
"485 405 LINE",
"461 438 OFFCURVE",
"437 466 OFFCURVE",
"406 484 CURVE SMOOTH",
"375 503 OFFCURVE",
"338 513 OFFCURVE",
"291 513 CURVE SMOOTH"
);
},
{
closed = 1;
nodes = (
"487 174 OFFCURVE",
"466 123 OFFCURVE",
"433 88 CURVE SMOOTH",
"399 53 OFFCURVE",
"352 37 OFFCURVE",
"300 37 CURVE SMOOTH",
"222 37 OFFCURVE",
"175 66 OFFCURVE",
"147 108 CURVE SMOOTH",
"120 149 OFFCURVE",
"111 204 OFFCURVE",
"111 253 CURVE SMOOTH",
"111 302 OFFCURVE",
"124 355 OFFCURVE",
"154 396 CURVE SMOOTH",
"184 437 OFFCURVE",
"229 464 OFFCURVE",
"295 464 CURVE SMOOTH",
"366 464 OFFCURVE",
"412 439 OFFCURVE",
"441 400 CURVE SMOOTH",
"470 361 OFFCURVE",
"483 309 OFFCURVE",
"487 256 CURVE",
"487 244 LINE SMOOTH"
);
}
);
};
layerId = "9E718F8A-2CEA-4931-B05D-987794BD97DA";
paths = (
{
closed = 1;
nodes = (
"371 -7 OFFCURVE",
"438 42 OFFCURVE",
"461 132 CURVE",
"449 140 LINE",
"449 0 LINE",
"503 0 LINE",
"503 501 LINE",
"449 501 LINE",
"449 366 LINE",
"461 375 LINE",
"438 464 OFFCURVE",
"371 513 OFFCURVE",
"275 513 CURVE SMOOTH",
"142 513 OFFCURVE",
"52 409 OFFCURVE",
"52 251 CURVE SMOOTH",
"52 94 OFFCURVE",
"140 -7 OFFCURVE",
"275 -7 CURVE SMOOTH"
);
},
{
closed = 1;
nodes = (
"173 42 OFFCURVE",
"109 118 OFFCURVE",
"109 251 CURVE SMOOTH",
"109 385 OFFCURVE",
"173 464 OFFCURVE",
"280 464 CURVE SMOOTH",
"388 464 OFFCURVE",
"449 388 OFFCURVE",
"449 253 CURVE SMOOTH",
"449 119 OFFCURVE",
"388 42 OFFCURVE",
"281 42 CURVE SMOOTH"
);
}
);
width = 588;
}
);
leftKerningGroup = o;
rightKerningGroup = u;
unicode = 0061;
userData = {
anchors = (
);
b = {
};
com.typemytype.robofont.layerData = {
b = {
anchors = (
);
components = (
);
contours = (
);
lib = {
};
name = p;
unicodes = (
);
width = 1181;
};
};
components = (
);
contours = (
);
lib = {
};
name = p;
unicodes = (
);
width = 1207;
};
},
{
color = 3;
glyphname = aogonek;
lastChange = "2016-09-21 14:51:45 +0000";
layers = (
{
layerId = "E1B555A7-F4E1-459C-9C1A-AE952106EEF9";
paths = (
{
closed = 1;
nodes = (
"573 507 LINE",
"418 507 LINE",
"418 403 LINE",
"430 411 LINE",
"407 477 OFFCURVE",
"340 520 OFFCURVE",
"259 520 CURVE SMOOTH",
"127 520 OFFCURVE",
"35 410 OFFCURVE",
"35 253 CURVE SMOOTH",
"35 96 OFFCURVE",
"125 -8 OFFCURVE",
"259 -8 CURVE SMOOTH",
"340 -8 OFFCURVE",
"407 33 OFFCURVE",
"430 100 CURVE",
"418 103 LINE",
"418 0 LINE",
"462 0 LINE",
"475 38 LINE",
"413 13 OFFCURVE",
"377 -32 OFFCURVE",
"377 -88 CURVE SMOOTH",
"377 -156 OFFCURVE",
"432 -204 OFFCURVE",
"508 -204 CURVE SMOOTH",
"545 -204 OFFCURVE",
"582 -196 OFFCURVE",
"613 -183 CURVE",
"595 -109 LINE",
"575 -118 OFFCURVE",
"557 -122 OFFCURVE",
"539 -122 CURVE SMOOTH",
"499 -122 OFFCURVE",
"477 -103 OFFCURVE",
"477 -67 CURVE SMOOTH",
"477 -27 OFFCURVE",
"512 0 OFFCURVE",
"564 0 CURVE SMOOTH",
"573 0 LINE"
);
},
{
closed = 1;
nodes = (
"232 111 OFFCURVE",
"191 161 OFFCURVE",
"191 253 CURVE SMOOTH",
"191 346 OFFCURVE",
"234 400 OFFCURVE",
"305 400 CURVE SMOOTH",
"377 400 OFFCURVE",
"418 349 OFFCURVE",
"418 255 CURVE SMOOTH",
"418 162 OFFCURVE",
"377 111 OFFCURVE",
"305 111 CURVE SMOOTH"
);
}
);
width = 633;
},
{
layerId = "9E718F8A-2CEA-4931-B05D-987794BD97DA";
paths = (
{
closed = 1;
nodes = (
"503 501 LINE",
"449 501 LINE",
"449 366 LINE",
"461 375 LINE",
"438 464 OFFCURVE",
"371 513 OFFCURVE",
"275 513 CURVE SMOOTH",
"142 513 OFFCURVE",
"52 409 OFFCURVE",
"52 251 CURVE SMOOTH",
"52 94 OFFCURVE",
"140 -7 OFFCURVE",
"275 -7 CURVE SMOOTH",
"371 -7 OFFCURVE",
"438 42 OFFCURVE",
"461 132 CURVE",
"449 114 LINE",
"449 0 LINE",
"466 0 LINE",
"487 39 LINE",
"404 26 OFFCURVE",
"353 -24 OFFCURVE",
"353 -91 CURVE SMOOTH",
"353 -154 OFFCURVE",
"400 -197 OFFCURVE",
"469 -197 CURVE SMOOTH",
"501 -197 OFFCURVE",
"530 -189 OFFCURVE",
"552 -174 CURVE",
"535 -134 LINE",
"513 -147 OFFCURVE",
"492 -154 OFFCURVE",
"474 -154 CURVE SMOOTH",
"431 -154 OFFCURVE",
"404 -127 OFFCURVE",
"404 -85 CURVE SMOOTH",
"404 -35 OFFCURVE",
"443 0 OFFCURVE",
"499 0 CURVE SMOOTH",
"503 0 LINE"
);
},
{
closed = 1;
nodes = (
"173 42 OFFCURVE",
"109 118 OFFCURVE",
"109 251 CURVE SMOOTH",
"109 385 OFFCURVE",
"173 464 OFFCURVE",
"280 464 CURVE SMOOTH",
"388 464 OFFCURVE",
"449 388 OFFCURVE",
"449 253 CURVE SMOOTH",
"449 119 OFFCURVE",
"388 42 OFFCURVE",
"281 42 CURVE SMOOTH"
);
}
);
width = 588;
}
);
leftKerningGroup = o;
rightKerningGroup = u;
unicode = 0105;
userData = {
com.typemytype.robofont.layerData = {
b = {
anchors = (
);
components = (
);
contours = (
);
lib = {
};
name = aogonek;
unicodes = (
);
width = 1040;
};
};
};
},
{
color = 3;
glyphname = aringacute;
lastChange = "2016-09-21 15:47:25 +0000";
layers = (
{
layerId = "E1B555A7-F4E1-459C-9C1A-AE952106EEF9";
paths = (
{
closed = 1;
nodes = (
"340 -8 OFFCURVE",
"407 33 OFFCURVE",
"430 100 CURVE",
"418 102 LINE",
"418 0 LINE",
"573 0 LINE",
"573 507 LINE",
"418 507 LINE",
"418 403 LINE",
"430 411 LINE",
"407 477 OFFCURVE",
"340 520 OFFCURVE",
"259 520 CURVE SMOOTH",
"128 520 OFFCURVE",
"35 412 OFFCURVE",
"35 253 CURVE SMOOTH",
"35 94 OFFCURVE",
"127 -8 OFFCURVE",
"259 -8 CURVE SMOOTH"
);
},
{
closed = 1;
nodes = (
"232 111 OFFCURVE",
"191 161 OFFCURVE",
"191 253 CURVE SMOOTH",
"191 346 OFFCURVE",
"234 400 OFFCURVE",
"305 400 CURVE SMOOTH",
"377 400 OFFCURVE",
"418 349 OFFCURVE",
"418 255 CURVE SMOOTH",
"418 162 OFFCURVE",
"377 111 OFFCURVE",
"305 111 CURVE SMOOTH"
);
},
{
closed = 1;
nodes = (
"379 568 OFFCURVE",
"430 617 OFFCURVE",
"430 680 CURVE SMOOTH",
"430 742 OFFCURVE",
"379 790 OFFCURVE",
"316 790 CURVE SMOOTH",
"253 790 OFFCURVE",
"204 742 OFFCURVE",
"204 680 CURVE SMOOTH",
"204 617 OFFCURVE",
"253 568 OFFCURVE",
"316 568 CURVE SMOOTH"
);
},
{
closed = 1;
nodes = (
"290 632 OFFCURVE",
"272 654 OFFCURVE",
"272 680 CURVE SMOOTH",
"272 706 OFFCURVE",
"290 726 OFFCURVE",
"316 726 CURVE SMOOTH",
"342 726 OFFCURVE",
"361 706 OFFCURVE",
"361 680 CURVE SMOOTH",
"361 654 OFFCURVE",
"342 632 OFFCURVE",
"316 632 CURVE SMOOTH"
);
},
{
closed = 1;
nodes = (
"569 876 LINE",
"433 882 LINE",
"351 767 LINE",
"410 717 LINE"
);
}
);
width = 633;
},
{
layerId = "9E718F8A-2CEA-4931-B05D-987794BD97DA";
paths = (
{
closed = 1;
nodes = (
"371 -7 OFFCURVE",
"438 42 OFFCURVE",
"461 132 CURVE",
"449 140 LINE",
"449 0 LINE",
"503 0 LINE",
"503 501 LINE",
"449 501 LINE",
"449 366 LINE",
"461 375 LINE",
"438 464 OFFCURVE",
"371 513 OFFCURVE",
"275 513 CURVE SMOOTH",
"142 513 OFFCURVE",
"52 409 OFFCURVE",
"52 251 CURVE SMOOTH",
"52 94 OFFCURVE",
"140 -7 OFFCURVE",
"275 -7 CURVE SMOOTH"
);
},
{
closed = 1;
nodes = (
"173 42 OFFCURVE",
"109 118 OFFCURVE",
"109 251 CURVE SMOOTH",
"109 385 OFFCURVE",
"173 464 OFFCURVE",
"280 464 CURVE SMOOTH",
"388 464 OFFCURVE",
"449 388 OFFCURVE",
"449 253 CURVE SMOOTH",
"449 119 OFFCURVE",
"388 42 OFFCURVE",
"281 42 CURVE SMOOTH"
);
},
{
closed = 1;
nodes = (
"350 573 OFFCURVE",
"396 617 OFFCURVE",
"396 672 CURVE SMOOTH",
"396 728 OFFCURVE",
"350 772 OFFCURVE",
"295 772 CURVE SMOOTH",
"240 772 OFFCURVE",
"194 728 OFFCURVE",
"194 672 CURVE SMOOTH",
"194 617 OFFCURVE",
"240 573 OFFCURVE",
"295 573 CURVE SMOOTH"
);
},
{
closed = 1;
nodes = (
"265 619 OFFCURVE",
"243 643 OFFCURVE",
"243 672 CURVE SMOOTH",
"243 702 OFFCURVE",
"265 726 OFFCURVE",
"295 726 CURVE SMOOTH",
"325 726 OFFCURVE",
"347 702 OFFCURVE",
"347 672 CURVE SMOOTH",
"347 643 OFFCURVE",
"325 619 OFFCURVE",
"295 619 CURVE SMOOTH"
);
},
{
closed = 1;
nodes = (
"506 876 LINE",
"436 878 LINE",
"329 721 LINE",
"370 718 LINE"
);
}
);
width = 588;
}
);
leftKerningGroup = o;
rightKerningGroup = u;
unicode = 01FB;
},
{
color = 3;
glyphname = ae;
lastChange = "2016-09-21 14:51:45 +0000";
layers = (
{
anchors = (
{
name = bottom;
position = "{431, 0}";
},
{
name = top;
position = "{431, 511}";
}
);
layerId = "E1B555A7-F4E1-459C-9C1A-AE952106EEF9";
paths = (
{
closed = 1;
nodes = (
"697 -8 OFFCURVE",
"774 15 OFFCURVE",
"822 54 CURVE",
"781 159 LINE",
"736 127 OFFCURVE",
"683 109 OFFCURVE",
"636 109 CURVE SMOOTH",
"542 109 OFFCURVE",
"505 166 OFFCURVE",
"505 251 CURVE SMOOTH",
"505 365 OFFCURVE",
"542 411 OFFCURVE",
"609 411 CURVE SMOOTH",
"667 411 OFFCURVE",
"699 367 OFFCURVE",
"698 286 CURVE",
"737 317 LINE",
"495 317 LINE",
"494 240 LINE",
"831 240 LINE",
"831 262 LINE SMOOTH",
"831 416 OFFCURVE",
"743 520 OFFCURVE",
"613 520 CURVE SMOOTH",
"471 520 OFFCURVE",
"376 413 OFFCURVE",
"376 255 CURVE SMOOTH",
"377 87 OFFCURVE",
"467 -8 OFFCURVE",
"626 -8 CURVE SMOOTH"
);
},
{
closed = 1;
nodes = (
"359 -8 OFFCURVE",
"439 67 OFFCURVE",
"439 198 CURVE",
"490 208 LINE",
"490 300 LINE SMOOTH",
"490 450 OFFCURVE",
"425 520 OFFCURVE",
"284 520 CURVE SMOOTH",
"211 520 OFFCURVE",
"117 493 OFFCURVE",
"60 457 CURVE",
"101 351 LINE",
"156 383 OFFCURVE",
"220 402 OFFCURVE",
"275 402 CURVE SMOOTH",
"333 402 OFFCURVE",
"356 378 OFFCURVE",
"356 320 CURVE SMOOTH",
"356 209 LINE SMOOTH",
"356 148 OFFCURVE",
"325 100 OFFCURVE",
"263 100 CURVE SMOOTH",
"220 100 OFFCURVE",
"191 125 OFFCURVE",
"191 165 CURVE SMOOTH",
"191 215 OFFCURVE",
"229 242 OFFCURVE",
"328 242 CURVE SMOOTH",
"363 242 LINE",
"363 317 LINE",
"319 317 LINE SMOOTH",
"117 317 OFFCURVE",
"39 269 OFFCURVE",
"39 159 CURVE SMOOTH",
"39 59 OFFCURVE",
"125 -8 OFFCURVE",
"242 -8 CURVE SMOOTH"
);
}
);
width = 865;
},
{
anchors = (
{
name = bottom;
position = "{436, 0}";
},
{
name = top;
position = "{436, 506}";
}
);
background = {
paths = (
{
closed = 1;
nodes = (
"125 421 OFFCURVE",
"146 438 OFFCURVE",
"174 449 CURVE SMOOTH",
"201 460 OFFCURVE",
"232 464 OFFCURVE",
"266 464 CURVE SMOOTH",
"313 464 OFFCURVE",
"344 449 OFFCURVE",
"364 422 CURVE SMOOTH",
"383 396 OFFCURVE",
"391 358 OFFCURVE",
"394 317 CURVE",
"395 314 OFFCURVE",
"395 311 OFFCURVE",
"395 309 CURVE SMOOTH",
"395 306 OFFCURVE",
"395 304 OFFCURVE",
"395 302 CURVE",
"396 295 LINE",
"334 293 OFFCURVE",
"283 292 OFFCURVE",
"225 286 CURVE SMOOTH",
"168 282 OFFCURVE",
"124 269 OFFCURVE",
"93 244 CURVE SMOOTH",
"63 219 OFFCURVE",
"46 183 OFFCURVE",
"46 136 CURVE SMOOTH",
"46 89 OFFCURVE",
"63 52 OFFCURVE",
"93 26 CURVE SMOOTH",
"123 0 OFFCURVE",
"165 -14 OFFCURVE",
"215 -14 CURVE",
"266 -12 OFFCURVE",
"309 -4 OFFCURVE",
"344 15 CURVE SMOOTH",
"379 35 OFFCURVE",
"406 65 OFFCURVE",
"425 114 CURVE",
"441 73 OFFCURVE",
"467 42 OFFCURVE",
"500 21 CURVE SMOOTH",
"532 -1 OFFCURVE",
"572 -12 OFFCURVE",
"615 -12 CURVE SMOOTH",
"709 -12 OFFCURVE",
"780 24 OFFCURVE",
"821 93 CURVE",
"788 126 LINE",
"753 71 OFFCURVE",
"694 39 OFFCURVE",
"622 39 CURVE SMOOTH",
"563 39 OFFCURVE",
"522 59 OFFCURVE",
"496 93 CURVE SMOOTH",
"470 126 OFFCURVE",
"458 172 OFFCURVE",
"458 223 CURVE SMOOTH",
"458 243 LINE",
"839 243 LINE",
"839 246 OFFCURVE",
"839 250 OFFCURVE",
"839 254 CURVE SMOOTH",
"839 259 OFFCURVE",
"839 263 OFFCURVE",
"839 266 CURVE SMOOTH",
"839 333 OFFCURVE",
"822 396 OFFCURVE",
"787 441 CURVE SMOOTH",
"751 486 OFFCURVE",
"698 514 OFFCURVE",
"625 514 CURVE SMOOTH",
"585 514 OFFCURVE",
"546 505 OFFCURVE",
"513 484 CURVE SMOOTH",
"479 464 OFFCURVE",
"450 433 OFFCURVE",
"432 389 CURVE",
"429 389 LINE",
"423 431 OFFCURVE",
"403 462 OFFCURVE",
"375 482 CURVE SMOOTH",
"348 503 OFFCURVE",
"311 513 OFFCURVE",
"272 514 CURVE",
"183 514 OFFCURVE",
"112 490 OFFCURVE",
"77 429 CURVE",
"110 396 LINE"
);
},
{
closed = 1;
nodes = (
"395 181 OFFCURVE",
"386 132 OFFCURVE",
"361 96 CURVE SMOOTH",
"335 60 OFFCURVE",
"295 37 OFFCURVE",
"233 37 CURVE SMOOTH",
"200 37 OFFCURVE",
"169 44 OFFCURVE",
"146 60 CURVE SMOOTH",
"123 76 OFFCURVE",
"107 102 OFFCURVE",
"107 138 CURVE SMOOTH",
"107 183 OFFCURVE",
"132 208 OFFCURVE",
"169 223 CURVE SMOOTH",
"206 237 OFFCURVE",
"256 240 OFFCURVE",
"309 242 CURVE SMOOTH",
"395 243 LINE",
"395 231 LINE SMOOTH"
);
},
{
closed = 1;
nodes = (
"458 338 OFFCURVE",
"473 381 OFFCURVE",
"501 413 CURVE SMOOTH",
"530 444 OFFCURVE",
"572 464 OFFCURVE",
"625 464 CURVE SMOOTH",
"676 464 OFFCURVE",
"715 445 OFFCURVE",
"741 416 CURVE SMOOTH",
"768 386 OFFCURVE",
"781 346 OFFCURVE",
"781 304 CURVE SMOOTH",
"781 303 OFFCURVE",
"781 301 OFFCURVE",
"781 299 CURVE",
"780 296 OFFCURVE",
"780 294 OFFCURVE",
"780 293 CURVE",
"457 293 LINE"
);
}
);
};
layerId = "9E718F8A-2CEA-4931-B05D-987794BD97DA";
paths = (
{
closed = 1;
nodes = (
"714 -7 OFFCURVE",
"787 21 OFFCURVE",
"829 62 CURVE",
"808 105 LINE",
"755 63 OFFCURVE",
"701 42 OFFCURVE",
"646 42 CURVE SMOOTH",
"529 42 OFFCURVE",
"463 117 OFFCURVE",
"463 254 CURVE SMOOTH",
"463 385 OFFCURVE",
"529 467 OFFCURVE",
"634 467 CURVE SMOOTH",
"735 467 OFFCURVE",
"791 395 OFFCURVE",
"788 264 CURVE",
"808 304 LINE",
"442 304 LINE",
"443 259 LINE",
"838 259 LINE",
"838 270 LINE SMOOTH",
"838 422 OFFCURVE",
"762 513 OFFCURVE",
"634 513 CURVE SMOOTH",
"501 513 OFFCURVE",
"409 405 OFFCURVE",
"414 249 CURVE SMOOTH",
"419 87 OFFCURVE",
"505 -7 OFFCURVE",
"647 -7 CURVE SMOOTH"
);
},
{
closed = 1;
nodes = (
"357 -7 OFFCURVE",
"430 64 OFFCURVE",
"442 177 CURVE",
"461 176 LINE",
"461 331 LINE",
"461 451 OFFCURVE",
"402 513 OFFCURVE",
"283 513 CURVE SMOOTH",
"215 513 OFFCURVE",
"139 490 OFFCURVE",
"90 452 CURVE",
"112 409 LINE",
"171 446 OFFCURVE",
"226 464 OFFCURVE",
"287 464 CURVE SMOOTH",
"373 464 OFFCURVE",
"408 422 OFFCURVE",
"408 324 CURVE SMOOTH",
"408 215 LINE SMOOTH",
"408 113 OFFCURVE",
"342 42 OFFCURVE",
"251 42 CURVE SMOOTH",
"179 42 OFFCURVE",
"127 85 OFFCURVE",
"127 152 CURVE SMOOTH",
"127 228 OFFCURVE",
"183 259 OFFCURVE",
"368 259 CURVE SMOOTH",
"419 259 LINE",
"419 304 LINE",
"366 304 LINE SMOOTH",
"145 304 OFFCURVE",
"68 258 OFFCURVE",
"69 147 CURVE SMOOTH",
"70 56 OFFCURVE",
"147 -7 OFFCURVE",
"248 -7 CURVE SMOOTH"
);
}
);
width = 887;
}
);
leftKerningGroup = a;
rightKerningGroup = e;
unicode = 00E6;
userData = {
com.typemytype.robofont.layerData = {
b = {
anchors = (
);
components = (
);
contours = (
);
lib = {
};
name = ae;
unicodes = (
);
width = 1734;
};
};
};
},
{
color = 3;
glyphname = b;
lastChange = "2016-09-21 14:51:45 +0000";
layers = (
{
anchors = (
{
name = bottom;
position = "{318, 0}";
},
{
name = top;
position = "{375, 511}";
}
);
layerId = "E1B555A7-F4E1-459C-9C1A-AE952106EEF9";
paths = (
{
closed = 1;
nodes = (
"215 0 LINE",
"215 123 LINE",
"204 100 LINE",
"226 33 OFFCURVE",
"293 -8 OFFCURVE",
"375 -8 CURVE SMOOTH",
"506 -8 OFFCURVE",
"599 99 OFFCURVE",
"599 258 CURVE SMOOTH",
"599 417 OFFCURVE",
"507 520 OFFCURVE",
"375 520 CURVE SMOOTH",
"293 520 OFFCURVE",
"226 477 OFFCURVE",
"204 411 CURVE",
"217 392 LINE",
"217 736 LINE",
"60 736 LINE",
"60 0 LINE"
);
},
{
closed = 1;
nodes = (
"256 111 OFFCURVE",
"215 162 OFFCURVE",
"215 256 CURVE SMOOTH",
"215 348 OFFCURVE",
"256 400 OFFCURVE",
"329 400 CURVE SMOOTH",
"402 400 OFFCURVE",
"442 349 OFFCURVE",
"442 258 CURVE SMOOTH",
"442 164 OFFCURVE",
"401 111 OFFCURVE",
"329 111 CURVE SMOOTH"
);
}
);
width = 634;
},
{
anchors = (
{
name = bottom;
position = "{311, 0}";
},
{
name = top;
position = "{313, 506}";
}
);
background = {
paths = (
{
closed = 1;
nodes = (
"188 24 OFFCURVE",
"250 -11 OFFCURVE",
"332 -11 CURVE SMOOTH",
"407 -11 OFFCURVE",
"464 19 OFFCURVE",
"501 68 CURVE SMOOTH",
"539 117 OFFCURVE",
"558 183 OFFCURVE",
"558 257 CURVE SMOOTH",
"558 325 OFFCURVE",
"542 390 OFFCURVE",
"507 437 CURVE SMOOTH",
"473 483 OFFCURVE",
"420 513 OFFCURVE",
"344 513 CURVE SMOOTH",
"303 513 OFFCURVE",
"263 504 OFFCURVE",
"229 485 CURVE SMOOTH",
"195 465 OFFCURVE",
"166 437 OFFCURVE",
"146 398 CURVE",
"146 736 LINE",
"86 736 LINE",
"86 0 LINE",
"143 0 LINE",
"146 94 LINE"
);
},
{
closed = 1;
nodes = (
"383 464 OFFCURVE",
"427 441 OFFCURVE",
"455 404 CURVE SMOOTH",
"483 367 OFFCURVE",
"497 316 OFFCURVE",
"497 259 CURVE SMOOTH",
"497 206 OFFCURVE",
"485 150 OFFCURVE",
"458 108 CURVE SMOOTH",
"430 65 OFFCURVE",
"386 37 OFFCURVE",
"322 37 CURVE SMOOTH",
"265 37 OFFCURVE",
"220 59 OFFCURVE",
"191 95 CURVE SMOOTH",
"161 131 OFFCURVE",
"146 181 OFFCURVE",
"146 239 CURVE SMOOTH",
"146 298 OFFCURVE",
"157 354 OFFCURVE",
"185 396 CURVE SMOOTH",
"212 438 OFFCURVE",
"257 464 OFFCURVE",
"324 464 CURVE SMOOTH"
);
}
);
};
layerId = "9E718F8A-2CEA-4931-B05D-987794BD97DA";
paths = (
{
closed = 1;
nodes = (
"139 0 LINE",
"139 139 LINE",
"128 132 LINE",
"151 42 OFFCURVE",
"218 -7 OFFCURVE",
"313 -7 CURVE SMOOTH",
"446 -7 OFFCURVE",
"536 97 OFFCURVE",
"536 255 CURVE SMOOTH",
"536 412 OFFCURVE",
"447 513 OFFCURVE",
"313 513 CURVE SMOOTH",
"218 513 OFFCURVE",
"151 464 OFFCURVE",
"128 374 CURVE",
"138 367 LINE",
"138 736 LINE",
"85 736 LINE",
"85 0 LINE"
);
},
{
closed = 1;
nodes = (
"199 42 OFFCURVE",
"139 119 OFFCURVE",
"139 253 CURVE SMOOTH",
"139 387 OFFCURVE",
"199 464 OFFCURVE",
"308 464 CURVE SMOOTH",
"415 464 OFFCURVE",
"479 388 OFFCURVE",
"479 255 CURVE SMOOTH",
"479 121 OFFCURVE",
"415 42 OFFCURVE",
"309 42 CURVE SMOOTH"
);
}
);
width = 588;
}
);
leftKerningGroup = h;
rightKerningGroup = o;
unicode = 0062;
userData = {
anchors = (
);
b = {
};
com.typemytype.robofont.layerData = {
b = {
anchors = (
);
components = (
);
contours = (
{
points = (
{
segmentType = curve;
smooth = 1;
x = 238;
y = 1425;
},
{
smooth = 0;
x = 198;
y = 1425;
},
{
smooth = 0;
x = 158;
y = 1400;
},
{
segmentType = curve;
smooth = 1;
x = 158;
y = 1351;
},
{
segmentType = line;
smooth = 1;
x = 158;
y = 76;
},
{
smooth = 0;
x = 158;
y = 27;
},
{
smooth = 0;
x = 197;
y = 3;
},
{
segmentType = curve;
smooth = 1;
x = 237;
y = 3;
},
{
smooth = 0;
x = 297;
y = 3;
},
{
smooth = 0;
x = 318;
y = 38;
},
{
segmentType = curve;
smooth = 1;
x = 318;
y = 76;
},
{
segmentType = line;
smooth = 0;
x = 318;
y = 183;
},
{
smooth = 0;
x = 384;
y = 46;
},
{
smooth = 0;
x = 516;
y = "-20";
},
{
segmentType = curve;
smooth = 1;
x = 666;
y = "-20";
},
{
smooth = 0;
x = 957;
y = "-20";
},
{
smooth = 0;
x = 1095;
y = 225;
},
{
segmentType = curve;
smooth = 1;
x = 1095;
y = 502;
},
{
smooth = 0;
x = 1095;
y = 777;
},
{
smooth = 0;
x = 939;
y = 1013;
},
{
segmentType = curve;
smooth = 1;
x = 650;
y = 1013;
},
{
smooth = 0;
x = 503;
y = 1013;
},
{
smooth = 0;
x = 376;
y = 942;
},
{
segmentType = curve;
smooth = 0;
x = 318;
y = 814;
},
{
segmentType = line;
smooth = 1;
x = 318;
y = 1351;
},
{
smooth = 0;
x = 318;
y = 1400;
},
{
smooth = 0;
x = 278;
y = 1425;
}
);
},
{
points = (
{
segmentType = curve;
smooth = 1;
x = 632;
y = 903;
},
{
smooth = 0;
x = 859;
y = 903;
},
{
smooth = 0;
x = 935;
y = 685;
},
{
segmentType = curve;
smooth = 1;
x = 935;
y = 496;
},
{
smooth = 0;
x = 935;
y = 316;
},
{
smooth = 0;
x = 869;
y = 93;
},
{
segmentType = curve;
smooth = 0;
x = 645;
y = 90;
},
{
smooth = 0;
x = 395;
y = 90;
},
{
smooth = 0;
x = 319;
y = 279;
},
{
segmentType = curve;
smooth = 1;
x = 319;
y = 501;
},
{
smooth = 0;
x = 319;
y = 701;
},
{
smooth = 0;
x = 407;
y = 903;
}
);
}
);
lib = {
};
name = b;
unicodes = (
);
width = 1181;
};
};
components = (
);
contours = (
);
lib = {
};
name = b;
unicodes = (
);
width = 1203;
};
},
{
color = 3;
glyphname = c;
lastChange = "2016-09-21 14:51:45 +0000";
layers = (
{
anchors = (
{
name = bottom;
position = "{295, 0}";
},
{
name = top;
position = "{304, 511}";
}
);
layerId = "E1B555A7-F4E1-459C-9C1A-AE952106EEF9";
paths = (
{
closed = 1;
nodes = (
"380 -8 OFFCURVE",
"456 15 OFFCURVE",
"500 54 CURVE",
"459 162 LINE",
"420 130 OFFCURVE",
"369 112 OFFCURVE",
"324 112 CURVE SMOOTH",
"243 112 OFFCURVE",
"196 160 OFFCURVE",
"196 256 CURVE SMOOTH",
"196 351 OFFCURVE",
"244 399 OFFCURVE",
"324 399 CURVE SMOOTH",
"369 399 OFFCURVE",
"420 380 OFFCURVE",
"459 349 CURVE",
"500 458 LINE",
"458 496 OFFCURVE",
"382 520 OFFCURVE",
"309 520 CURVE SMOOTH",
"144 520 OFFCURVE",
"35 413 OFFCURVE",
"35 253 CURVE SMOOTH",
"35 93 OFFCURVE",
"135 -8 OFFCURVE",
"302 -8 CURVE SMOOTH"
);
}
);
width = 510;
},
{
anchors = (
{
name = bottom;
position = "{282, 0}";
},
{
name = top;
position = "{284, 506}";
}
);
background = {
paths = (
{
closed = 1;
nodes = (
"434 490 OFFCURVE",
"379 513 OFFCURVE",
"303 513 CURVE SMOOTH",
"223 513 OFFCURVE",
"162 482 OFFCURVE",
"120 434 CURVE SMOOTH",
"78 385 OFFCURVE",
"55 318 OFFCURVE",
"55 244 CURVE SMOOTH",
"55 174 OFFCURVE",
"75 110 OFFCURVE",
"116 63 CURVE SMOOTH",
"157 17 OFFCURVE",
"218 -11 OFFCURVE",
"300 -11 CURVE SMOOTH",
"369 -11 OFFCURVE",
"427 3 OFFCURVE",
"470 38 CURVE",
"455 85 LINE",
"417 53 OFFCURVE",
"368 37 OFFCURVE",
"308 37 CURVE SMOOTH",
"241 37 OFFCURVE",
"194 60 OFFCURVE",
"163 98 CURVE SMOOTH",
"132 136 OFFCURVE",
"118 189 OFFCURVE",
"118 249 CURVE SMOOTH",
"118 308 OFFCURVE",
"135 362 OFFCURVE",
"168 401 CURVE SMOOTH",
"201 440 OFFCURVE",
"248 464 OFFCURVE",
"308 464 CURVE SMOOTH",
"365 464 OFFCURVE",
"414 447 OFFCURVE",
"441 414 CURVE",
"467 451 LINE"
);
}
);
};
layerId = "9E718F8A-2CEA-4931-B05D-987794BD97DA";
paths = (
{
closed = 1;
nodes = (
"350 -7 OFFCURVE",
"417 19 OFFCURVE",
"459 60 CURVE",
"437 103 LINE",
"384 61 OFFCURVE",
"339 42 OFFCURVE",
"287 42 CURVE SMOOTH",
"177 42 OFFCURVE",
"109 119 OFFCURVE",
"109 251 CURVE SMOOTH",
"109 384 OFFCURVE",
"178 464 OFFCURVE",
"288 464 CURVE SMOOTH",
"339 464 OFFCURVE",
"384 445 OFFCURVE",
"437 403 CURVE",
"459 446 LINE",
"419 488 OFFCURVE",
"353 513 OFFCURVE",
"287 513 CURVE SMOOTH",
"144 513 OFFCURVE",
"52 408 OFFCURVE",
"52 251 CURVE SMOOTH",
"52 96 OFFCURVE",
"143 -7 OFFCURVE",
"285 -7 CURVE SMOOTH"
);
}
);
width = 489;
}
);
leftKerningGroup = o;
rightKerningGroup = c;
unicode = 0063;
userData = {
anchors = (
);
b = {
};
com.typemytype.robofont.layerData = {
b = {
anchors = (
);
components = (
);
contours = (
);
lib = {
};
name = c;
unicodes = (
);
width = 956.14099;
};
};
components = (
);
contours = (
);
lib = {
};
name = c;
unicodes = (
);
width = 992;
};
},
{
color = 3;
glyphname = d;
lastChange = "2016-09-21 14:51:45 +0000";
layers = (
{
anchors = (
{
name = bottom;
position = "{317, 0}";
},
{
name = center;
position = "{317, 256}";
},
{
name = top;
position = "{317, 511}";
},
{
name = topright;
position = "{600, 736}";
}
);
layerId = "E1B555A7-F4E1-459C-9C1A-AE952106EEF9";
paths = (
{
closed = 1;
nodes = (
"573 736 LINE",
"416 736 LINE",
"416 392 LINE",
"430 411 LINE",
"407 477 OFFCURVE",
"340 520 OFFCURVE",
"259 520 CURVE SMOOTH",
"127 520 OFFCURVE",
"35 417 OFFCURVE",
"35 258 CURVE SMOOTH",
"35 99 OFFCURVE",
"128 -8 OFFCURVE",
"259 -8 CURVE SMOOTH",
"340 -8 OFFCURVE",
"407 33 OFFCURVE",
"430 100 CURVE",
"418 123 LINE",
"418 0 LINE",
"573 0 LINE"
);
},
{
closed = 1;
nodes = (
"234 111 OFFCURVE",
"191 164 OFFCURVE",
"191 258 CURVE SMOOTH",
"191 349 OFFCURVE",
"232 400 OFFCURVE",
"305 400 CURVE SMOOTH",
"377 400 OFFCURVE",
"418 348 OFFCURVE",
"418 256 CURVE SMOOTH",
"418 162 OFFCURVE",
"377 111 OFFCURVE",
"305 111 CURVE SMOOTH"
);
}
);
width = 633;
},
{
anchors = (
{
name = bottom;
position = "{296, 0}";
},
{
name = center;
position = "{296, 253}";
},
{
name = top;
position = "{296, 506}";
},
{
name = topright;
position = "{544, 736}";
}
);
background = {
paths = (
{
closed = 1;
nodes = (
"434 478 OFFCURVE",
"368 513 OFFCURVE",
"282 513 CURVE SMOOTH",
"206 513 OFFCURVE",
"150 482 OFFCURVE",
"112 433 CURVE SMOOTH",
"74 384 OFFCURVE",
"55 317 OFFCURVE",
"55 246 CURVE SMOOTH",
"55 174 OFFCURVE",
"72 110 OFFCURVE",
"108 64 CURVE SMOOTH",
"145 18 OFFCURVE",
"200 -11 OFFCURVE",
"276 -11 CURVE SMOOTH",
"358 -11 OFFCURVE",
"422 22 OFFCURVE",
"467 101 CURVE",
"470 0 LINE",
"530 0 LINE",
"528 43 OFFCURVE",
"528 78 OFFCURVE",
"528 121 CURVE SMOOTH",
"528 736 LINE",
"467 736 LINE",
"467 401 LINE"
);
},
{
closed = 1;
nodes = (
"226 37 OFFCURVE",
"184 62 OFFCURVE",
"156 101 CURVE SMOOTH",
"129 140 OFFCURVE",
"118 192 OFFCURVE",
"118 248 CURVE SMOOTH",
"118 306 OFFCURVE",
"131 360 OFFCURVE",
"160 399 CURVE SMOOTH",
"188 439 OFFCURVE",
"232 464 OFFCURVE",
"294 464 CURVE SMOOTH",
"347 464 OFFCURVE",
"391 444 OFFCURVE",
"420 409 CURVE SMOOTH",
"450 374 OFFCURVE",
"467 323 OFFCURVE",
"467 260 CURVE SMOOTH",
"467 196 OFFCURVE",
"453 140 OFFCURVE",
"424 100 CURVE SMOOTH",
"395 61 OFFCURVE",
"350 37 OFFCURVE",
"290 37 CURVE SMOOTH"
);
}
);
};
layerId = "9E718F8A-2CEA-4931-B05D-987794BD97DA";
paths = (
{
closed = 1;
nodes = (
"503 736 LINE",
"449 736 LINE",
"449 367 LINE",
"461 374 LINE",
"438 464 OFFCURVE",
"371 513 OFFCURVE",
"275 513 CURVE SMOOTH",
"140 513 OFFCURVE",
"52 412 OFFCURVE",
"52 255 CURVE SMOOTH",
"52 97 OFFCURVE",
"142 -7 OFFCURVE",
"275 -7 CURVE SMOOTH",
"371 -7 OFFCURVE",
"438 42 OFFCURVE",
"461 132 CURVE",
"449 139 LINE",
"449 0 LINE",
"503 0 LINE"
);
},
{
closed = 1;
nodes = (
"173 42 OFFCURVE",
"109 121 OFFCURVE",
"109 255 CURVE SMOOTH",
"109 388 OFFCURVE",
"173 464 OFFCURVE",
"281 464 CURVE SMOOTH",
"388 464 OFFCURVE",
"449 387 OFFCURVE",
"449 253 CURVE SMOOTH",
"449 119 OFFCURVE",
"388 42 OFFCURVE",
"280 42 CURVE SMOOTH"
);
}
);
width = 588;
}
);
leftKerningGroup = o;
rightKerningGroup = l;
unicode = 0064;
userData = {
anchors = (
);
b = {
};
com.typemytype.robofont.layerData = {
b = {
anchors = (
);
components = (
);
contours = (
);
lib = {
};
name = d;
unicodes = (
);
width = 1181;
};
};
components = (
);
contours = (
);
lib = {
};
name = d;
unicodes = (
);
width = 1207;
};
},
{
color = 3;
glyphname = eth;
lastChange = "2016-09-21 14:51:45 +0000";
layers = (
{
layerId = "E1B555A7-F4E1-459C-9C1A-AE952106EEF9";
paths = (
{
closed = 1;
nodes = (
"478 -8 OFFCURVE",
"580 106 OFFCURVE",
"580 307 CURVE SMOOTH",
"580 508 OFFCURVE",
"444 712 OFFCURVE",
"187 748 CURVE",
"152 640 LINE",
"308 618 OFFCURVE",
"433 506 OFFCURVE",
"433 336 CURVE",
"474 331 LINE",
"448 424 OFFCURVE",
"385 470 OFFCURVE",
"283 470 CURVE SMOOTH",
"137 470 OFFCURVE",
"35 372 OFFCURVE",
"35 232 CURVE SMOOTH",
"35 89 OFFCURVE",
"142 -8 OFFCURVE",
"298 -8 CURVE SMOOTH"
);
},
{
closed = 1;
nodes = (
"230 111 OFFCURVE",
"191 152 OFFCURVE",
"191 232 CURVE SMOOTH",
"191 312 OFFCURVE",
"230 354 OFFCURVE",
"304 354 CURVE SMOOTH",
"377 354 OFFCURVE",
"416 312 OFFCURVE",
"416 232 CURVE SMOOTH",
"416 154 OFFCURVE",
"376 111 OFFCURVE",
"304 111 CURVE SMOOTH"
);
},
{
closed = 1;
nodes = (
"574 600 LINE",
"554 680 LINE",
"152 571 LINE",
"174 491 LINE"
);
}
);
width = 615;
},
{
background = {
paths = (
{
closed = 1;
nodes = (
"610 551 LINE",
"507 551 LINE",
"471 643 OFFCURVE",
"410 712 OFFCURVE",
"318 751 CURVE",
"289 706 LINE",
"362 680 OFFCURVE",
"411 622 OFFCURVE",
"442 551 CURVE",
"346 551 LINE",
"346 501 LINE",
"459 501 LINE",
"471 459 OFFCURVE",
"478 421 OFFCURVE",
"478 376 CURVE SMOOTH",
"478 355 OFFCURVE",
"477 331 OFFCURVE",
"475 312 CURVE",
"444 393 OFFCURVE",
"376 437 OFFCURVE",
"277 437 CURVE SMOOTH",
"207 437 OFFCURVE",
"149 412 OFFCURVE",
"109 371 CURVE SMOOTH",
"68 330 OFFCURVE",
"45 272 OFFCURVE",
"45 207 CURVE SMOOTH",
"45 145 OFFCURVE",
"67 90 OFFCURVE",
"106 51 CURVE SMOOTH",
"146 12 OFFCURVE",
"202 -11 OFFCURVE",
"271 -11 CURVE SMOOTH",
"357 -11 OFFCURVE",
"426 24 OFFCURVE",
"472 87 CURVE SMOOTH",
"518 150 OFFCURVE",
"542 241 OFFCURVE",
"542 352 CURVE SMOOTH",
"542 382 OFFCURVE",
"541 408 OFFCURVE",
"537 432 CURVE SMOOTH",
"534 456 OFFCURVE",
"529 478 OFFCURVE",
"523 501 CURVE",
"610 501 LINE"
);
},
{
closed = 1;
nodes = (
"331 383 OFFCURVE",
"369 371 OFFCURVE",
"399 351 CURVE SMOOTH",
"428 330 OFFCURVE",
"450 300 OFFCURVE",
"459 267 CURVE",
"459 208 OFFCURVE",
"444 152 OFFCURVE",
"413 111 CURVE SMOOTH",
"381 70 OFFCURVE",
"333 42 OFFCURVE",
"269 42 CURVE SMOOTH",
"220 42 OFFCURVE",
"181 60 OFFCURVE",
"153 89 CURVE SMOOTH",
"125 119 OFFCURVE",
"109 160 OFFCURVE",
"109 208 CURVE SMOOTH",
"109 254 OFFCURVE",
"123 298 OFFCURVE",
"152 331 CURVE SMOOTH",
"182 363 OFFCURVE",
"226 383 OFFCURVE",
"289 383 CURVE SMOOTH"
);
}
);
};
layerId = "9E718F8A-2CEA-4931-B05D-987794BD97DA";
paths = (
{
closed = 1;
nodes = (
"431 -7 OFFCURVE",
"510 95 OFFCURVE",
"510 293 CURVE SMOOTH",
"510 527 OFFCURVE",
"397 676 OFFCURVE",
"181 742 CURVE",
"165 699 LINE",
"357 641 OFFCURVE",
"460 505 OFFCURVE",
"457 300 CURVE",
"483 298 LINE",
"461 410 OFFCURVE",
"390 470 OFFCURVE",
"280 470 CURVE SMOOTH",
"143 470 OFFCURVE",
"52 376 OFFCURVE",
"52 231 CURVE SMOOTH",
"52 87 OFFCURVE",
"142 -7 OFFCURVE",
"279 -7 CURVE SMOOTH"
);
},
{
closed = 1;
nodes = (
"170 42 OFFCURVE",
"109 110 OFFCURVE",
"109 231 CURVE SMOOTH",
"109 351 OFFCURVE",
"173 420 OFFCURVE",
"280 420 CURVE SMOOTH",
"386 420 OFFCURVE",
"450 351 OFFCURVE",
"450 231 CURVE SMOOTH",
"450 113 OFFCURVE",
"385 42 OFFCURVE",
"279 42 CURVE SMOOTH"
);
},
{
closed = 1;
nodes = (
"508 661 LINE",
"493 702 LINE",
"173 574 LINE",
"188 533 LINE"
);
}
);
width = 562;
}
);
leftKerningGroup = o;
rightKerningGroup = o;
unicode = 00F0;
userData = {
com.typemytype.robofont.layerData = {
b = {
anchors = (
);
components = (
);
contours = (
);
lib = {
};
name = eth;
unicodes = (
);
width = 1230;
};
};
};
},
{
color = 3;
glyphname = dcaron;
lastChange = "2016-09-21 14:51:45 +0000";
layers = (
{
components = (
{
name = d;
}
);
layerId = "E1B555A7-F4E1-459C-9C1A-AE952106EEF9";
paths = (
{
closed = 1;
nodes = (
"681 736 LINE",
"600 736 LINE",
"600 536 LINE",
"654 536 LINE"
);
}
);
width = 633;
},
{
components = (
{
name = d;
}
);
layerId = "9E718F8A-2CEA-4931-B05D-987794BD97DA";
paths = (
{
closed = 1;
nodes = (
"600 736 LINE",
"540 736 LINE",
"540 541 LINE",
"573 541 LINE"
);
}
);
width = 588;
}
);
leftKerningGroup = o;
rightKerningGroup = lcaron;
unicode = 010F;
},
{
color = 3;
glyphname = dcroat;
lastChange = "2016-09-21 14:51:45 +0000";
layers = (
{
layerId = "E1B555A7-F4E1-459C-9C1A-AE952106EEF9";
paths = (
{
closed = 1;
nodes = (
"662 558 LINE",
"662 667 LINE",
"225 667 LINE",
"225 558 LINE"
);
},
{
closed = 1;
nodes = (
"573 736 LINE",
"416 736 LINE",
"416 392 LINE",
"430 411 LINE",
"407 477 OFFCURVE",
"340 520 OFFCURVE",
"259 520 CURVE SMOOTH",
"127 520 OFFCURVE",
"35 417 OFFCURVE",
"35 258 CURVE SMOOTH",
"35 99 OFFCURVE",
"128 -8 OFFCURVE",
"259 -8 CURVE SMOOTH",
"340 -8 OFFCURVE",
"407 33 OFFCURVE",
"430 100 CURVE",
"418 123 LINE",
"418 0 LINE",
"573 0 LINE"
);
},
{
closed = 1;
nodes = (
"234 111 OFFCURVE",
"191 164 OFFCURVE",
"191 258 CURVE SMOOTH",
"191 349 OFFCURVE",
"232 400 OFFCURVE",
"305 400 CURVE SMOOTH",
"377 400 OFFCURVE",
"418 348 OFFCURVE",
"418 256 CURVE SMOOTH",
"418 162 OFFCURVE",
"377 111 OFFCURVE",
"305 111 CURVE SMOOTH"
);
}
);
width = 633;
},
{
layerId = "9E718F8A-2CEA-4931-B05D-987794BD97DA";
paths = (
{
closed = 1;
nodes = (
"601 591 LINE",
"601 635 LINE",
"247 635 LINE",
"247 591 LINE"
);
},
{
closed = 1;
nodes = (
"503 736 LINE",
"449 736 LINE",
"449 367 LINE",
"461 374 LINE",
"438 464 OFFCURVE",
"371 513 OFFCURVE",
"275 513 CURVE SMOOTH",
"140 513 OFFCURVE",
"52 412 OFFCURVE",
"52 255 CURVE SMOOTH",
"52 97 OFFCURVE",
"142 -7 OFFCURVE",
"275 -7 CURVE SMOOTH",
"371 -7 OFFCURVE",
"438 42 OFFCURVE",
"461 132 CURVE",
"449 139 LINE",
"449 0 LINE",
"503 0 LINE"
);
},
{
closed = 1;
nodes = (
"173 42 OFFCURVE",
"109 121 OFFCURVE",
"109 255 CURVE SMOOTH",
"109 388 OFFCURVE",
"173 464 OFFCURVE",
"281 464 CURVE SMOOTH",
"388 464 OFFCURVE",
"449 387 OFFCURVE",
"449 253 CURVE SMOOTH",
"449 119 OFFCURVE",
"388 42 OFFCURVE",
"280 42 CURVE SMOOTH"
);
}
);
width = 588;
}
);
leftKerningGroup = o;
rightKerningGroup = l;
unicode = 0111;
userData = {
com.typemytype.robofont.layerData = {
b = {
anchors = (
);
components = (
);
contours = (
);
lib = {
};
name = dcroat;
unicodes = (
);
width = 1181;
};
};
};
},
{
color = 3;
glyphname = e;
lastChange = "2016-09-21 14:51:45 +0000";
layers = (
{
anchors = (
{
name = bottom;
position = "{307, 0}";
},
{
name = ogonek;
position = "{410, 10}";
},
{
name = top;
position = "{285, 511}";
}
);
layerId = "E1B555A7-F4E1-459C-9C1A-AE952106EEF9";
paths = (
{
closed = 1;
nodes = (
"467 159 LINE",
"424 127 OFFCURVE",
"370 109 OFFCURVE",
"318 109 CURVE SMOOTH",
"227 109 OFFCURVE",
"185 156 OFFCURVE",
"185 268 CURVE SMOOTH",
"185 362 OFFCURVE",
"222 411 OFFCURVE",
"289 411 CURVE SMOOTH",
"351 411 OFFCURVE",
"384 369 OFFCURVE",
"384 286 CURVE",
"423 317 LINE",
"175 317 LINE",
"174 240 LINE",
"517 240 LINE",
"517 262 LINE SMOOTH",
"517 421 OFFCURVE",
"428 520 OFFCURVE",
"285 520 CURVE SMOOTH",
"138 520 OFFCURVE",
"35 411 OFFCURVE",
"35 255 CURVE SMOOTH",
"35 93 OFFCURVE",
"139 -8 OFFCURVE",
"311 -8 CURVE SMOOTH",
"382 -8 OFFCURVE",
"459 15 OFFCURVE",
"508 54 CURVE"
);
}
);
width = 551;
},
{
anchors = (
{
name = bottom;
position = "{296, 0}";
},
{
name = ogonek;
position = "{389, 10}";
},
{
name = top;
position = "{285, 506}";
}
);
background = {
paths = (
{
closed = 1;
nodes = (
"135 337 OFFCURVE",
"153 381 OFFCURVE",
"182 413 CURVE SMOOTH",
"211 444 OFFCURVE",
"253 464 OFFCURVE",
"307 464 CURVE SMOOTH",
"362 464 OFFCURVE",
"401 446 OFFCURVE",
"427 415 CURVE SMOOTH",
"452 384 OFFCURVE",
"464 340 OFFCURVE",
"466 287 CURVE",
"466 291 LINE",
"466 290 LINE",
"131 290 LINE"
);
},
{
closed = 1;
nodes = (
"450 59 OFFCURVE",
"391 37 OFFCURVE",
"318 37 CURVE SMOOTH",
"259 37 OFFCURVE",
"213 57 OFFCURVE",
"180 90 CURVE SMOOTH",
"147 124 OFFCURVE",
"130 172 OFFCURVE",
"130 230 CURVE SMOOTH",
"130 240 LINE",
"529 240 LINE",
"529 241 OFFCURVE",
"529 244 OFFCURVE",
"530 247 CURVE",
"530 250 OFFCURVE",
"530 253 OFFCURVE",
"530 255 CURVE SMOOTH",
"530 332 OFFCURVE",
"513 396 OFFCURVE",
"477 441 CURVE SMOOTH",
"440 486 OFFCURVE",
"385 513 OFFCURVE",
"309 513 CURVE SMOOTH",
"233 513 OFFCURVE",
"172 483 OFFCURVE",
"130 435 CURVE SMOOTH",
"89 387 OFFCURVE",
"66 320 OFFCURVE",
"66 248 CURVE SMOOTH",
"66 172 OFFCURVE",
"89 108 OFFCURVE",
"131 62 CURVE SMOOTH",
"173 16 OFFCURVE",
"234 -11 OFFCURVE",
"312 -11 CURVE SMOOTH",
"393 -11 OFFCURVE",
"458 7 OFFCURVE",
"506 52 CURVE",
"489 99 LINE"
);
}
);
};
layerId = "9E718F8A-2CEA-4931-B05D-987794BD97DA";
paths = (
{
closed = 1;
nodes = (
"462 105 LINE",
"409 62 OFFCURVE",
"356 42 OFFCURVE",
"295 42 CURVE SMOOTH",
"175 42 OFFCURVE",
"110 117 OFFCURVE",
"110 254 CURVE SMOOTH",
"110 386 OFFCURVE",
"176 467 OFFCURVE",
"285 467 CURVE SMOOTH",
"390 467 OFFCURVE",
"446 394 OFFCURVE",
"442 264 CURVE",
"463 304 LINE",
"99 304 LINE",
"100 259 LINE",
"493 259 LINE",
"493 272 LINE SMOOTH",
"493 424 OFFCURVE",
"415 513 OFFCURVE",
"285 513 CURVE SMOOTH",
"147 513 OFFCURVE",
"52 408 OFFCURVE",
"52 252 CURVE SMOOTH",
"52 90 OFFCURVE",
"145 -7 OFFCURVE",
"296 -7 CURVE SMOOTH",
"368 -7 OFFCURVE",
"441 20 OFFCURVE",
"484 62 CURVE"
);
}
);
width = 542;
}
);
leftKerningGroup = o;
rightKerningGroup = e;
unicode = 0065;
userData = {
anchors = (
);
b = {
};
com.typemytype.robofont.layerData = {
b = {
anchors = (
);
components = (
);
contours = (
);
lib = {
};
name = e;
unicodes = (
);
width = 1132;
};
};
components = (
);
contours = (
);
lib = {
};
name = e;
unicodes = (
);
width = 1132;
};
},
{
color = 3;
glyphname = eogonek;
lastChange = "2016-09-21 14:51:45 +0000";
layers = (
{
anchors = (
{
name = top;
position = "{285, 511}";
}
);
layerId = "E1B555A7-F4E1-459C-9C1A-AE952106EEF9";
paths = (
{
closed = 1;
nodes = (
"441 -204 OFFCURVE",
"476 -196 OFFCURVE",
"507 -183 CURVE",
"490 -109 LINE",
"470 -118 OFFCURVE",
"451 -122 OFFCURVE",
"434 -122 CURVE SMOOTH",
"395 -122 OFFCURVE",
"373 -103 OFFCURVE",
"373 -67 CURVE SMOOTH",
"373 -31 OFFCURVE",
"394 -7 OFFCURVE",
"449 21 CURVE SMOOTH",
"486 38 OFFCURVE",
"498 45 OFFCURVE",
"508 54 CURVE",
"467 159 LINE",
"424 127 OFFCURVE",
"370 109 OFFCURVE",
"318 109 CURVE SMOOTH",
"227 109 OFFCURVE",
"185 156 OFFCURVE",
"185 268 CURVE SMOOTH",
"185 358 OFFCURVE",
"222 411 OFFCURVE",
"289 411 CURVE SMOOTH",
"351 411 OFFCURVE",
"384 369 OFFCURVE",
"384 286 CURVE",
"423 317 LINE",
"175 317 LINE",
"174 240 LINE",
"517 240 LINE",
"517 262 LINE SMOOTH",
"517 421 OFFCURVE",
"428 520 OFFCURVE",
"285 520 CURVE SMOOTH",
"138 520 OFFCURVE",
"35 411 OFFCURVE",
"35 255 CURVE SMOOTH",
"35 93 OFFCURVE",
"139 -8 OFFCURVE",
"311 -8 CURVE SMOOTH",
"327 -8 OFFCURVE",
"343 -6 OFFCURVE",
"364 -3 CURVE",
"335 13 LINE",
"294 -10 OFFCURVE",
"272 -48 OFFCURVE",
"272 -90 CURVE SMOOTH",
"272 -156 OFFCURVE",
"326 -204 OFFCURVE",
"404 -204 CURVE SMOOTH"
);
}
);
width = 551;
},
{
anchors = (
{
name = top;
position = "{285, 506}";
}
);
layerId = "9E718F8A-2CEA-4931-B05D-987794BD97DA";
paths = (
{
closed = 1;
nodes = (
"434 -197 OFFCURVE",
"463 -189 OFFCURVE",
"484 -174 CURVE",
"468 -134 LINE",
"446 -147 OFFCURVE",
"424 -154 OFFCURVE",
"406 -154 CURVE SMOOTH",
"363 -154 OFFCURVE",
"336 -127 OFFCURVE",
"336 -85 CURVE SMOOTH",
"336 -43 OFFCURVE",
"362 -12 OFFCURVE",
"434 28 CURVE SMOOTH",
"467 46 OFFCURVE",
"475 53 OFFCURVE",
"484 63 CURVE",
"462 105 LINE",
"409 62 OFFCURVE",
"356 42 OFFCURVE",
"295 42 CURVE SMOOTH",
"175 42 OFFCURVE",
"110 117 OFFCURVE",
"110 254 CURVE SMOOTH",
"110 387 OFFCURVE",
"176 467 OFFCURVE",
"285 467 CURVE SMOOTH",
"390 467 OFFCURVE",
"446 394 OFFCURVE",
"442 264 CURVE",
"463 304 LINE",
"99 304 LINE",
"100 259 LINE",
"493 259 LINE",
"493 272 LINE SMOOTH",
"493 424 OFFCURVE",
"415 513 OFFCURVE",
"285 513 CURVE SMOOTH",
"147 513 OFFCURVE",
"52 408 OFFCURVE",
"52 252 CURVE SMOOTH",
"52 90 OFFCURVE",
"145 -7 OFFCURVE",
"296 -7 CURVE SMOOTH",
"321 -7 OFFCURVE",
"336 -4 OFFCURVE",
"363 5 CURVE",
"349 13 LINE",
"308 -11 OFFCURVE",
"285 -48 OFFCURVE",
"285 -91 CURVE SMOOTH",
"285 -154 OFFCURVE",
"333 -197 OFFCURVE",
"402 -197 CURVE SMOOTH"
);
}
);
width = 542;
}
);
leftKerningGroup = o;
rightKerningGroup = e;
unicode = 0119;
},
{
color = 3;
glyphname = schwa;
lastChange = "2016-09-21 14:51:45 +0000";
layers = (
{
layerId = "E1B555A7-F4E1-459C-9C1A-AE952106EEF9";
paths = (
{
closed = 1;
nodes = (
"84 352 LINE",
"140 385 OFFCURVE",
"191 402 OFFCURVE",
"240 402 CURVE SMOOTH",
"327 402 OFFCURVE",
"366 357 OFFCURVE",
"368 250 CURVE SMOOTH",
"371 152 OFFCURVE",
"335 100 OFFCURVE",
"267 100 CURVE SMOOTH",
"203 100 OFFCURVE",
"170 144 OFFCURVE",
"170 225 CURVE",
"127 193 LINE",
"376 193 LINE",
"376 272 LINE",
"34 272 LINE",
"34 248 LINE SMOOTH",
"34 88 OFFCURVE",
"126 -8 OFFCURVE",
"274 -8 CURVE SMOOTH",
"417 -8 OFFCURVE",
"516 98 OFFCURVE",
"516 256 CURVE SMOOTH",
"516 417 OFFCURVE",
"411 520 OFFCURVE",
"251 520 CURVE SMOOTH",
"173 520 OFFCURVE",
"94 497 OFFCURVE",
"42 457 CURVE"
);
}
);
width = 551;
},
{
layerId = "9E718F8A-2CEA-4931-B05D-987794BD97DA";
paths = (
{
closed = 1;
nodes = (
"80 401 LINE",
"138 444 OFFCURVE",
"192 464 OFFCURVE",
"250 464 CURVE SMOOTH",
"367 464 OFFCURVE",
"433 388 OFFCURVE",
"433 252 CURVE SMOOTH",
"433 117 OFFCURVE",
"371 39 OFFCURVE",
"262 39 CURVE SMOOTH",
"156 39 OFFCURVE",
"98 112 OFFCURVE",
"102 242 CURVE",
"79 202 LINE",
"442 202 LINE",
"441 247 LINE",
"49 247 LINE",
"49 237 LINE SMOOTH",
"49 83 OFFCURVE",
"128 -7 OFFCURVE",
"262 -7 CURVE SMOOTH",
"401 -7 OFFCURVE",
"489 94 OFFCURVE",
"489 254 CURVE SMOOTH",
"489 415 OFFCURVE",
"398 513 OFFCURVE",
"249 513 CURVE SMOOTH",
"181 513 OFFCURVE",
"105 487 OFFCURVE",
"57 444 CURVE"
);
}
);
width = 541;
}
);
leftKerningGroup = o;
rightKerningGroup = o;
unicode = 0259;
},
{
color = 9;
glyphname = f;
lastChange = "2016-09-21 11:59:23 +0000";
layers = (
{
anchors = (
{
name = bottom;
position = "{179, 0}";
},
{
name = top;
position = "{179, 511}";
}
);
background = {
paths = (
{
closed = 1;
nodes = (
"257 0 LINE",
"257 533 LINE SMOOTH",
"257 613 OFFCURVE",
"272 626 OFFCURVE",
"355 626 CURVE SMOOTH",
"379 626 LINE",
"379 739 LINE",
"338 739 LINE SMOOTH",
"162 739 OFFCURVE",
"100 689 OFFCURVE",
"100 546 CURVE SMOOTH",
"100 0 LINE"
);
},
{
closed = 1;
nodes = (
"360 390 LINE",
"360 507 LINE",
"4 507 LINE",
"4 390 LINE"
);
}
);
};
layerId = "E1B555A7-F4E1-459C-9C1A-AE952106EEF9";
paths = (
{
closed = 1;
nodes = (
"360 390 LINE",
"360 507 LINE",
"4 507 LINE",
"4 390 LINE"
);
},
{
closed = 1;
nodes = (
"381 728 LINE",
"354 738 OFFCURVE",
"324 741 OFFCURVE",
"293 741 CURVE SMOOTH",
"165 741 OFFCURVE",
"98 664 OFFCURVE",
"98 536 CURVE SMOOTH",
"98 0 LINE",
"255 0 LINE",
"255 532 LINE SMOOTH",
"255 591 OFFCURVE",
"290 613 OFFCURVE",
"332 613 CURVE SMOOTH",
"347 613 OFFCURVE",
"360 611 OFFCURVE",
"381 606 CURVE"
);
}
);
width = 389;
},
{
anchors = (
{
name = bottom;
position = "{134, 0}";
},
{
name = top;
position = "{134, 506}";
}
);
background = {
paths = (
{
closed = 1;
nodes = (
"289 461 LINE",
"289 501 LINE",
"165 501 LINE",
"165 580 LINE",
"164 618 OFFCURVE",
"166 647 OFFCURVE",
"180 667 CURVE SMOOTH",
"194 688 OFFCURVE",
"218 698 OFFCURVE",
"257 698 CURVE SMOOTH",
"280 698 OFFCURVE",
"293 695 OFFCURVE",
"301 693 CURVE",
"302 740 LINE",
"297 741 OFFCURVE",
"292 742 OFFCURVE",
"289 744 CURVE",
"285 745 OFFCURVE",
"281 746 OFFCURVE",
"277 746 CURVE",
"268 748 OFFCURVE",
"258 749 OFFCURVE",
"244 749 CURVE SMOOTH",
"195 749 OFFCURVE",
"159 733 OFFCURVE",
"137 705 CURVE SMOOTH",
"114 675 OFFCURVE",
"104 634 OFFCURVE",
"104 581 CURVE SMOOTH",
"104 501 LINE",
"3 501 LINE",
"3 461 LINE",
"104 461 LINE",
"104 0 LINE",
"165 0 LINE",
"165 461 LINE"
);
},
{
closed = 1;
nodes = (
"161 0 LINE",
"161 562 LINE SMOOTH",
"161 673 OFFCURVE",
"183 694 OFFCURVE",
"287 694 CURVE SMOOTH",
"312 694 LINE",
"312 739 LINE",
"284 739 LINE SMOOTH",
"152 739 OFFCURVE",
"107 690 OFFCURVE",
"107 578 CURVE SMOOTH",
"107 0 LINE"
);
},
{
closed = 1;
nodes = (
"291 456 LINE",
"291 501 LINE",
"8 501 LINE",
"8 456 LINE"
);
}
);
};
layerId = "9E718F8A-2CEA-4931-B05D-987794BD97DA";
paths = (
{
closed = 1;
nodes = (
"291 456 LINE",
"291 501 LINE",
"8 501 LINE",
"8 456 LINE"
);
},
{
closed = 1;
nodes = (
"302 732 LINE",
"282 737 OFFCURVE",
"262 740 OFFCURVE",
"241 740 CURVE SMOOTH",
"161 740 OFFCURVE",
"107 696 OFFCURVE",
"107 595 CURVE SMOOTH",
"107 0 LINE",
"161 0 LINE",
"161 583 LINE SMOOTH",
"161 670 OFFCURVE",
"199 690 OFFCURVE",
"250 690 CURVE SMOOTH",
"268 690 OFFCURVE",
"282 688 OFFCURVE",
"302 682 CURVE"
);
}
);
width = 319;
}
);
leftKerningGroup = f;
rightKerningGroup = f;
unicode = 0066;
userData = {
anchors = (
);
b = {
};
com.typemytype.robofont.layerData = {
b = {
anchors = (
);
components = (
);
contours = (
);
lib = {
};
name = f;
unicodes = (
);
width = 696;
};
};
components = (
);
contours = (
);
lib = {
};
name = f;
unicodes = (
);
width = 723;
};
},
{
color = 3;
glyphname = g;
lastChange = "2016-09-21 14:51:45 +0000";
layers = (
{
anchors = (
{
name = bottom;
position = "{319, 0}";
},
{
name = top;
position = "{319, 511}";
}
);
layerId = "E1B555A7-F4E1-459C-9C1A-AE952106EEF9";
paths = (
{
closed = 1;
nodes = (
"482 -224 OFFCURVE",
"578 -138 OFFCURVE",
"578 25 CURVE SMOOTH",
"578 507 LINE",
"422 507 LINE",
"422 400 LINE",
"434 411 LINE",
"411 477 OFFCURVE",
"343 520 OFFCURVE",
"261 520 CURVE SMOOTH",
"129 520 OFFCURVE",
"35 419 OFFCURVE",
"35 267 CURVE SMOOTH",
"35 114 OFFCURVE",
"129 14 OFFCURVE",
"261 14 CURVE SMOOTH",
"343 14 OFFCURVE",
"411 66 OFFCURVE",
"434 121 CURVE",
"422 129 LINE",
"422 13 LINE SMOOTH",
"422 -68 OFFCURVE",
"381 -107 OFFCURVE",
"295 -107 CURVE SMOOTH",
"236 -107 OFFCURVE",
"173 -91 OFFCURVE",
"113 -62 CURVE",
"89 -178 LINE",
"148 -208 OFFCURVE",
"222 -224 OFFCURVE",
"300 -224 CURVE SMOOTH"
);
},
{
closed = 1;
nodes = (
"236 133 OFFCURVE",
"191 184 OFFCURVE",
"191 267 CURVE SMOOTH",
"191 350 OFFCURVE",
"235 400 OFFCURVE",
"307 400 CURVE SMOOTH",
"380 400 OFFCURVE",
"422 349 OFFCURVE",
"422 267 CURVE SMOOTH",
"422 183 OFFCURVE",
"379 133 OFFCURVE",
"307 133 CURVE SMOOTH"
);
}
);
width = 637;
},
{
anchors = (
{
name = bottom;
position = "{299, 0}";
},
{
name = top;
position = "{299, 506}";
}
);
background = {
paths = (
{
closed = 1;
nodes = (
"449 436 OFFCURVE",
"424 463 OFFCURVE",
"394 483 CURVE SMOOTH",
"363 502 OFFCURVE",
"327 513 OFFCURVE",
"286 513 CURVE SMOOTH",
"208 513 OFFCURVE",
"151 483 OFFCURVE",
"112 435 CURVE SMOOTH",
"73 387 OFFCURVE",
"54 321 OFFCURVE",
"54 249 CURVE SMOOTH",
"54 174 OFFCURVE",
"75 112 OFFCURVE",
"113 69 CURVE SMOOTH",
"152 25 OFFCURVE",
"208 0 OFFCURVE",
"278 0 CURVE SMOOTH",
"362 0 OFFCURVE",
"433 40 OFFCURVE",
"470 123 CURVE",
"467 16 LINE SMOOTH",
"464 -105 OFFCURVE",
"395 -161 OFFCURVE",
"268 -161 CURVE SMOOTH",
"210 -161 OFFCURVE",
"154 -147 OFFCURVE",
"106 -120 CURVE",
"101 -177 LINE",
"149 -202 OFFCURVE",
"209 -214 OFFCURVE",
"272 -214 CURVE SMOOTH",
"348 -214 OFFCURVE",
"401 -198 OFFCURVE",
"439 -171 CURVE SMOOTH",
"477 -145 OFFCURVE",
"500 -109 OFFCURVE",
"512 -67 CURVE SMOOTH",
"525 -26 OFFCURVE",
"530 17 OFFCURVE",
"530 66 CURVE SMOOTH",
"530 382 LINE",
"530 501 LINE",
"470 501 LINE",
"468 403 LINE"
);
},
{
closed = 1;
nodes = (
"468 232 OFFCURVE",
"463 195 OFFCURVE",
"452 163 CURVE SMOOTH",
"440 131 OFFCURVE",
"423 103 OFFCURVE",
"397 83 CURVE SMOOTH",
"372 63 OFFCURVE",
"337 51 OFFCURVE",
"294 51 CURVE SMOOTH",
"228 51 OFFCURVE",
"184 70 OFFCURVE",
"157 105 CURVE SMOOTH",
"129 140 OFFCURVE",
"118 190 OFFCURVE",
"118 252 CURVE SMOOTH",
"118 308 OFFCURVE",
"133 361 OFFCURVE",
"163 400 CURVE SMOOTH",
"192 439 OFFCURVE",
"236 464 OFFCURVE",
"295 464 CURVE SMOOTH",
"348 464 OFFCURVE",
"392 442 OFFCURVE",
"422 407 CURVE SMOOTH",
"452 372 OFFCURVE",
"468 322 OFFCURVE",
"468 269 CURVE SMOOTH"
);
}
);
};
layerId = "9E718F8A-2CEA-4931-B05D-987794BD97DA";
paths = (
{
closed = 1;
nodes = (
"436 -223 OFFCURVE",
"507 -149 OFFCURVE",
"507 -4 CURVE SMOOTH",
"507 501 LINE",
"453 501 LINE",
"453 393 LINE",
"465 374 LINE",
"442 464 OFFCURVE",
"375 513 OFFCURVE",
"277 513 CURVE SMOOTH",
"143 513 OFFCURVE",
"52 413 OFFCURVE",
"52 264 CURVE SMOOTH",
"52 116 OFFCURVE",
"143 15 OFFCURVE",
"277 15 CURVE SMOOTH",
"375 15 OFFCURVE",
"442 65 OFFCURVE",
"465 155 CURVE",
"454 134 LINE",
"454 -9 LINE SMOOTH",
"454 -117 OFFCURVE",
"401 -174 OFFCURVE",
"300 -174 CURVE SMOOTH",
"226 -174 OFFCURVE",
"179 -158 OFFCURVE",
"116 -120 CURVE",
"105 -168 LINE",
"160 -205 OFFCURVE",
"225 -223 OFFCURVE",
"299 -223 CURVE SMOOTH"
);
},
{
closed = 1;
nodes = (
"175 65 OFFCURVE",
"109 139 OFFCURVE",
"109 264 CURVE SMOOTH",
"109 389 OFFCURVE",
"175 464 OFFCURVE",
"282 464 CURVE SMOOTH",
"389 464 OFFCURVE",
"453 388 OFFCURVE",
"453 264 CURVE SMOOTH",
"453 141 OFFCURVE",
"389 65 OFFCURVE",
"282 65 CURVE SMOOTH"
);
}
);
width = 592;
}
);
leftKerningGroup = o;
rightKerningGroup = u;
unicode = 0067;
userData = {
anchors = (
);
b = {
};
com.typemytype.robofont.layerData = {
b = {
anchors = (
);
components = (
);
contours = (
);
lib = {
};
name = g;
unicodes = (
);
width = 1167;
};
};
components = (
);
contours = (
);
lib = {
};
name = g;
unicodes = (
);
width = 1207;
};
},
{
color = 3;
glyphname = h;
lastChange = "2016-09-21 14:51:45 +0000";
layers = (
{
anchors = (
{
name = bottom;
position = "{309, 0}";
},
{
name = center;
position = "{309, 256}";
},
{
name = top;
position = "{141, 736}";
}
);
layerId = "E1B555A7-F4E1-459C-9C1A-AE952106EEF9";
paths = (
{
closed = 1;
nodes = (
"217 0 LINE",
"217 284 LINE SMOOTH",
"217 353 OFFCURVE",
"259 398 OFFCURVE",
"323 398 CURVE SMOOTH",
"376 398 OFFCURVE",
"401 369 OFFCURVE",
"401 299 CURVE SMOOTH",
"401 0 LINE",
"558 0 LINE",
"558 306 LINE SMOOTH",
"558 449 OFFCURVE",
"499 520 OFFCURVE",
"378 520 CURVE SMOOTH",
"298 520 OFFCURVE",
"234 481 OFFCURVE",
"199 411 CURVE",
"217 404 LINE",
"217 736 LINE",
"60 736 LINE",
"60 0 LINE"
);
}
);
width = 615;
},
{
anchors = (
{
name = bottom;
position = "{288, 0}";
},
{
name = center;
position = "{288, 253}";
},
{
name = top;
position = "{112, 736}";
}
);
background = {
paths = (
{
closed = 1;
nodes = (
"92 0 LINE",
"153 0 LINE",
"153 287 LINE",
"152 336 OFFCURVE",
"167 381 OFFCURVE",
"194 413 CURVE SMOOTH",
"221 445 OFFCURVE",
"262 464 OFFCURVE",
"316 464 CURVE SMOOTH",
"406 464 OFFCURVE",
"450 413 OFFCURVE",
"455 321 CURVE",
"455 320 OFFCURVE",
"455 313 OFFCURVE",
"455 299 CURVE SMOOTH",
"456 284 OFFCURVE",
"456 271 OFFCURVE",
"456 259 CURVE SMOOTH",
"456 0 LINE",
"516 0 LINE",
"516 312 LINE",
"515 333 LINE SMOOTH",
"512 378 OFFCURVE",
"500 423 OFFCURVE",
"474 457 CURVE SMOOTH",
"447 491 OFFCURVE",
"404 513 OFFCURVE",
"339 513 CURVE SMOOTH",
"254 513 OFFCURVE",
"196 479 OFFCURVE",
"153 403 CURVE",
"153 736 LINE",
"92 736 LINE"
);
}
);
};
layerId = "9E718F8A-2CEA-4931-B05D-987794BD97DA";
paths = (
{
closed = 1;
nodes = (
"138 0 LINE",
"138 290 LINE SMOOTH",
"138 397 OFFCURVE",
"206 464 OFFCURVE",
"309 464 CURVE SMOOTH",
"399 464 OFFCURVE",
"439 418 OFFCURVE",
"439 316 CURVE SMOOTH",
"439 0 LINE",
"493 0 LINE",
"493 320 LINE SMOOTH",
"493 448 OFFCURVE",
"432 513 OFFCURVE",
"311 513 CURVE SMOOTH",
"224 513 OFFCURVE",
"152 469 OFFCURVE",
"127 384 CURVE",
"138 400 LINE",
"138 736 LINE",
"85 736 LINE",
"85 0 LINE"
);
}
);
width = 575;
}
);
leftKerningGroup = h;
rightKerningGroup = n;
unicode = 0068;
userData = {
anchors = (
);
b = {
};
com.typemytype.robofont.layerData = {
b = {
anchors = (
);
components = (
);
contours = (
);
lib = {
};
name = h;
unicodes = (
);
width = 1148;
};
};
components = (
);
contours = {
};
lib = {
};
name = h;
points = {
};
segmentType = curve;
unicodes = (
);
width = 1195;
x = 137;
y = 113;
};
},
